G04 #@! TF.FileFunction,Legend,Bot*
%FSLAX46Y46*%
G04 Gerber Fmt 4.6, Leading zero omitted, Abs format (unit mm)*
G04 Created by KiCad (PCBNEW 4.0.7) date 06/14/18 07:18:42*
%MOMM*%
%LPD*%
G01*
G04 APERTURE LIST*
%ADD10C,0.100000*%
%ADD11C,0.120000*%
G04 APERTURE END LIST*
D10*
D11*
X55820000Y-117960000D02*
X55820000Y-123160000D01*
X55820000Y-123160000D02*
X53160000Y-123160000D01*
X53160000Y-123160000D02*
X53160000Y-117960000D01*
X53160000Y-117960000D02*
X55820000Y-117960000D01*
X53160000Y-118910000D02*
X47160000Y-118910000D01*
X47160000Y-118910000D02*
X47160000Y-119670000D01*
X47160000Y-119670000D02*
X53160000Y-119670000D01*
X53160000Y-118970000D02*
X47160000Y-118970000D01*
X53160000Y-119090000D02*
X47160000Y-119090000D01*
X53160000Y-119210000D02*
X47160000Y-119210000D01*
X53160000Y-119330000D02*
X47160000Y-119330000D01*
X53160000Y-119450000D02*
X47160000Y-119450000D01*
X53160000Y-119570000D02*
X47160000Y-119570000D01*
X56150000Y-118910000D02*
X55820000Y-118910000D01*
X56150000Y-119670000D02*
X55820000Y-119670000D01*
X55820000Y-120560000D02*
X53160000Y-120560000D01*
X53160000Y-121450000D02*
X47160000Y-121450000D01*
X47160000Y-121450000D02*
X47160000Y-122210000D01*
X47160000Y-122210000D02*
X53160000Y-122210000D01*
X56217071Y-121450000D02*
X55820000Y-121450000D01*
X56217071Y-122210000D02*
X55820000Y-122210000D01*
X58530000Y-119290000D02*
X58530000Y-118020000D01*
X58530000Y-118020000D02*
X57260000Y-118020000D01*
M02*
