M48
;DRILL file {KiCad 4.0.7} date 06/14/18 07:18:45
;FORMAT={-:-/ absolute / metric / decimal}
FMAT,2
METRIC,TZ
T1C0.300
T2C0.762
T3C0.890
T4C1.000
T5C1.016
T6C2.010
%
G90
G05
M71
T1
X55.91Y-84.21
X56.49Y-48.41
X57.05Y-81.78
X57.07Y-31.31
X57.49Y-110.19
X59.76Y-74.61
X60.365Y-78.46
X61.04Y-89.9
X61.29Y-34.24
X61.67Y-72.94
X62.36Y-75.3
X62.47Y-123.07
X63.125Y-69.88
X63.93Y-33.87
X63.96Y-64.73
X64.42Y-66.04
X64.56Y-70.91
X65.21Y-65.38
X65.44Y-30.58
X65.7Y-29.5
X65.94Y-64.55
X66.565Y-62.89
X67.19Y-62.16
X68.434Y-62.506
X69.05Y-55.23
X69.059Y-71.71
X70.04Y-81.14
X70.43Y-62.81
X70.61Y-69.58
X70.98Y-70.86
X71.32Y-77.36
X71.66Y-86.89
X72.08Y-64.57
X72.51Y-75.02
X72.77Y-72.65
X73.1Y-61.69
X73.23Y-41.39
X73.28Y-65.39
X73.569Y-72.69
X73.664Y-70.616
X74.42Y-73.72
X74.73Y-58.81
X74.81Y-87.32
X74.835Y-65.53
X74.93Y-60.3
X74.94Y-61.43
X75.07Y-76.9
X75.104Y-72.056
X75.35Y-109.34
X75.73Y-74.53
X77.71Y-124.43
X78.53Y-77.93
X78.55Y-75.2
X78.89Y-110.63
X79.155Y-82.34
X80.29Y-125.7
X81.4Y-80.81
X83.02Y-49.28
X83.91Y-101.95
X84.35Y-109.4
X84.82Y-38.44
X85.18Y-96.2
X85.84Y-54.92
X85.99Y-87.17
X87.12Y-110.16
X87.16Y-80.28
X87.32Y-79.25
X87.66Y-52.92
X91.51Y-52.85
X94.44Y-68.18
X94.86Y-70.53
X94.96Y-55.64
X95.5Y-31.5
X95.77Y-68.93
X95.85Y-56.54
X95.9Y-70.49
X96.125Y-36.66
X96.75Y-57.74
X96.8Y-38.79
X96.95Y-66.36
X97.38Y-41.42
X97.64Y-58.95
X98.Y-97.72
X98.75Y-58.62
X99.44Y-89.33
X99.8Y-53.13
X101.27Y-90.16
X101.59Y-75.15
X101.77Y-89.28
X103.7Y-76.05
X103.78Y-74.68
X103.93Y-68.7
X104.17Y-96.2
X105.23Y-66.15
X105.36Y-78.2
X107.86Y-61.28
X108.52Y-81.58
X108.87Y-61.62
X110.15Y-108.5
X111.94Y-65.85
X112.05Y-37.92
X112.51Y-91.68
X112.68Y-62.47
X113.78Y-70.71
X113.96Y-77.71
X113.99Y-73.27
X114.48Y-90.28
X115.5Y-101.53
X115.55Y-43.86
X116.25Y-81.65
X116.32Y-72.82
X116.43Y-64.13
X117.21Y-86.98
X117.88Y-82.94
X117.92Y-89.58
X119.11Y-88.13
X119.86Y-60.355
X120.14Y-66.33
X120.45Y-62.22
X120.71Y-60.65
X121.64Y-77.75
X123.2Y-88.8
X124.03Y-84.66
X126.45Y-85.03
X127.01Y-74.89
X127.88Y-79.34
X128.46Y-58.98
X128.61Y-60.44
X129.48Y-59.73
X129.61Y-45.01
X130.87Y-97.17
X131.44Y-101.58
X138.36Y-107.98
X140.66Y-45.42
X143.48Y-121.58
X145.02Y-75.67
X150.02Y-119.
X155.4Y-117.18
X158.71Y-105.19
X159.4Y-75.09
X160.45Y-121.01
X161.21Y-52.19
X163.14Y-107.35
X165.79Y-101.14
X166.98Y-66.61
X167.11Y-60.3
X167.79Y-48.11
X169.82Y-79.94
X172.54Y-117.14
X173.13Y-90.61
X173.86Y-116.9
X182.69Y-41.43
X192.24Y-81.49
X192.26Y-45.7
X199.83Y-122.04
T2
X92.14Y-103.85
X92.14Y-116.05
X98.14Y-101.85
X104.14Y-103.85
X104.14Y-116.05
X192.13Y-93.93
X192.13Y-101.53
T3
X126.15Y-120.
X128.69Y-120.
T4
X57.23Y-68.62
X57.23Y-71.16
X57.23Y-73.7
X57.23Y-76.24
X57.23Y-78.78
X57.26Y-119.29
X57.26Y-121.83
X65.49Y-126.06
X68.03Y-126.06
X70.57Y-126.06
X73.11Y-126.06
X75.65Y-126.06
X92.16Y-32.33
X92.16Y-34.87
X92.16Y-37.41
X92.16Y-39.95
X92.16Y-42.49
X92.16Y-45.03
X92.16Y-47.57
X92.16Y-50.11
X96.17Y-123.47
X98.71Y-123.47
X101.25Y-123.47
X112.61Y-121.58
X112.61Y-124.12
X129.25Y-74.65
X131.79Y-74.65
X145.17Y-125.17
X147.71Y-125.17
X150.25Y-125.17
X159.28Y-109.52
X159.28Y-112.06
X159.28Y-114.6
X159.28Y-117.14
X162.51Y-125.25
X165.05Y-125.25
X167.59Y-125.25
X167.98Y-109.54
X167.98Y-112.08
X167.98Y-114.62
X167.98Y-117.16
X170.13Y-125.25
X180.47Y-125.21
X183.01Y-125.21
X185.55Y-125.21
X188.09Y-125.21
X195.19Y-125.4
X197.73Y-125.4
T5
X120.24Y-94.88
X120.24Y-112.66
X122.78Y-94.88
X122.78Y-112.66
X125.32Y-94.88
X125.32Y-112.66
T6
X121.07Y-125.08
X131.23Y-125.08
T0
M30
