G04 #@! TF.FileFunction,Paste,Top*
%FSLAX46Y46*%
G04 Gerber Fmt 4.6, Leading zero omitted, Abs format (unit mm)*
G04 Created by KiCad (PCBNEW 4.0.7) date 06/14/18 07:18:42*
%MOMM*%
%LPD*%
G01*
G04 APERTURE LIST*
%ADD10C,0.100000*%
%ADD11R,4.600000X1.100000*%
%ADD12R,4.550000X5.250000*%
%ADD13R,3.200000X2.300000*%
%ADD14R,2.000000X0.600000*%
%ADD15R,3.000000X4.500000*%
%ADD16R,0.600000X0.500000*%
%ADD17R,0.500000X0.600000*%
%ADD18R,2.500000X4.000000*%
%ADD19R,4.000000X2.500000*%
%ADD20R,0.600000X0.700000*%
%ADD21R,0.400000X1.050000*%
%ADD22R,1.200000X0.900000*%
%ADD23R,2.500000X1.800000*%
%ADD24R,1.000000X2.300000*%
%ADD25R,0.500000X2.300000*%
%ADD26R,1.000000X4.000000*%
%ADD27R,3.200000X2.600000*%
%ADD28R,0.900000X0.800000*%
%ADD29R,0.400000X0.600000*%
%ADD30R,0.600000X0.400000*%
%ADD31R,0.900000X1.700000*%
%ADD32R,0.660000X2.070000*%
%ADD33R,0.533400X1.981200*%
%ADD34R,1.800000X1.200000*%
%ADD35R,1.500000X0.350000*%
%ADD36R,0.350000X1.500000*%
%ADD37R,1.060000X0.650000*%
%ADD38R,0.300000X1.600000*%
%ADD39R,2.000000X3.000000*%
%ADD40R,5.000000X10.000000*%
%ADD41R,1.000000X1.500000*%
%ADD42R,1.000000X1.800000*%
%ADD43R,2.200000X1.840000*%
%ADD44R,0.500000X0.900000*%
G04 APERTURE END LIST*
D10*
D11*
X69605000Y-105670000D03*
X69605000Y-103970000D03*
X69605000Y-102270000D03*
X69605000Y-100570000D03*
X69605000Y-98870000D03*
D12*
X58030000Y-99495000D03*
X62880000Y-105045000D03*
X58030000Y-105045000D03*
X62880000Y-99495000D03*
D13*
X124150000Y-36450000D03*
X124150000Y-65750000D03*
D14*
X123550000Y-39300000D03*
X131750000Y-39700000D03*
X123550000Y-40100000D03*
X131750000Y-40500000D03*
X123550000Y-40900000D03*
X131750000Y-41300000D03*
X123550000Y-41700000D03*
X131750000Y-42100000D03*
X123550000Y-42500000D03*
X131750000Y-42900000D03*
X123550000Y-43300000D03*
X131750000Y-43700000D03*
X123550000Y-44100000D03*
X131750000Y-44500000D03*
X123550000Y-44900000D03*
X131750000Y-45300000D03*
X123550000Y-48900000D03*
X131750000Y-49300000D03*
X123550000Y-49700000D03*
X131750000Y-50100000D03*
X123550000Y-50500000D03*
X131750000Y-50900000D03*
X123550000Y-51300000D03*
X131750000Y-51700000D03*
X123550000Y-52100000D03*
X131750000Y-52500000D03*
X123550000Y-52900000D03*
X131750000Y-53300000D03*
X123550000Y-53700000D03*
X131750000Y-54100000D03*
X123550000Y-54500000D03*
X131750000Y-54900000D03*
X123550000Y-55300000D03*
X131750000Y-55700000D03*
X123550000Y-56100000D03*
X131750000Y-56500000D03*
X123550000Y-56900000D03*
X131750000Y-57300000D03*
X123550000Y-57700000D03*
X131750000Y-58100000D03*
X123550000Y-58500000D03*
X131750000Y-58900000D03*
X123550000Y-59300000D03*
X131750000Y-59700000D03*
X123550000Y-60100000D03*
X131750000Y-60500000D03*
X123550000Y-60900000D03*
X131750000Y-61300000D03*
X123550000Y-61700000D03*
X131750000Y-62100000D03*
X123550000Y-62500000D03*
X131750000Y-62900000D03*
D15*
X77760000Y-31900000D03*
X77760000Y-47100000D03*
D16*
X62230000Y-66710000D03*
X61130000Y-66710000D03*
X128610000Y-81950000D03*
X127510000Y-81950000D03*
X61270000Y-68650000D03*
X62370000Y-68650000D03*
X89330000Y-54480000D03*
X88230000Y-54480000D03*
X74110000Y-63030000D03*
X73010000Y-63030000D03*
D17*
X81650000Y-75710000D03*
X81650000Y-76810000D03*
X141680000Y-112820000D03*
X141680000Y-111720000D03*
X56740000Y-36700000D03*
X56740000Y-35600000D03*
X67060000Y-36780000D03*
X67060000Y-35680000D03*
X145500000Y-112600000D03*
X145500000Y-111500000D03*
X139590000Y-111650000D03*
X139590000Y-112750000D03*
X79790000Y-54400000D03*
X79790000Y-53300000D03*
X110540000Y-63830000D03*
X110540000Y-62730000D03*
X104200000Y-63830000D03*
X104200000Y-62730000D03*
D18*
X84750000Y-116250000D03*
X84750000Y-122350000D03*
D19*
X59440000Y-87720000D03*
X67440000Y-87720000D03*
D20*
X68370000Y-76950000D03*
X67270000Y-76950000D03*
D21*
X108220000Y-68210000D03*
X107570000Y-68210000D03*
X106920000Y-68210000D03*
X106920000Y-70060000D03*
X107570000Y-70060000D03*
X108220000Y-70060000D03*
D22*
X89790000Y-97350000D03*
X89790000Y-94050000D03*
D23*
X96140000Y-94220000D03*
X100140000Y-94220000D03*
D24*
X104190000Y-56050000D03*
X105460000Y-56050000D03*
X106730000Y-56050000D03*
X109270000Y-56050000D03*
X110540000Y-56050000D03*
X108000000Y-56050000D03*
D25*
X114080000Y-56050000D03*
X115380000Y-56050000D03*
D26*
X97840000Y-32950000D03*
X118240000Y-32950000D03*
D27*
X80200000Y-106990000D03*
X80200000Y-95990000D03*
D28*
X118160000Y-70200000D03*
X118160000Y-72100000D03*
X120160000Y-71150000D03*
X109610000Y-74760000D03*
X109610000Y-76660000D03*
X111610000Y-75710000D03*
X83440000Y-90440000D03*
X83440000Y-92340000D03*
X85440000Y-91390000D03*
D29*
X61960000Y-61420000D03*
X61060000Y-61420000D03*
D30*
X68140000Y-79580000D03*
X68140000Y-78680000D03*
X125470000Y-90070000D03*
X125470000Y-90970000D03*
D29*
X114720000Y-85490000D03*
X115620000Y-85490000D03*
X115520000Y-87390000D03*
X114620000Y-87390000D03*
D30*
X84150000Y-77580000D03*
X84150000Y-78480000D03*
X122990000Y-90040000D03*
X122990000Y-90940000D03*
D29*
X115690000Y-83810000D03*
X114790000Y-83810000D03*
X114600000Y-89100000D03*
X115500000Y-89100000D03*
X62630000Y-29300000D03*
X63530000Y-29300000D03*
D30*
X117060000Y-76810000D03*
X117060000Y-77710000D03*
D29*
X161720000Y-120930000D03*
X162620000Y-120930000D03*
X165710000Y-120980000D03*
X166610000Y-120980000D03*
X168550000Y-120800000D03*
X169450000Y-120800000D03*
D30*
X109080000Y-85540000D03*
X109080000Y-84640000D03*
X148310000Y-115550000D03*
X148310000Y-116450000D03*
X192300000Y-80300000D03*
X192300000Y-79400000D03*
D29*
X74210000Y-91340000D03*
X75110000Y-91340000D03*
D30*
X78430000Y-91790000D03*
X78430000Y-90890000D03*
X197790000Y-121200000D03*
X197790000Y-122100000D03*
X118100000Y-67370000D03*
X118100000Y-66470000D03*
X115330000Y-70340000D03*
X115330000Y-69440000D03*
D29*
X120190000Y-75170000D03*
X121090000Y-75170000D03*
X109710000Y-71800000D03*
X110610000Y-71800000D03*
D30*
X106510000Y-76100000D03*
X106510000Y-75200000D03*
D29*
X114320000Y-75720000D03*
X115220000Y-75720000D03*
D30*
X106730000Y-60630000D03*
X106730000Y-59730000D03*
X109260000Y-60550000D03*
X109260000Y-59650000D03*
X110550000Y-60570000D03*
X110550000Y-59670000D03*
D31*
X60100000Y-64230000D03*
X56700000Y-64230000D03*
D32*
X124150000Y-81930000D03*
X122880000Y-81930000D03*
X121610000Y-81930000D03*
X120340000Y-81930000D03*
X120340000Y-86780000D03*
X121610000Y-86780000D03*
X122880000Y-86780000D03*
X124150000Y-86780000D03*
D33*
X60090000Y-36840000D03*
X61360000Y-36840000D03*
X62630000Y-36840000D03*
X63900000Y-36840000D03*
X63900000Y-31912400D03*
X62630000Y-31912400D03*
X61360000Y-31912400D03*
X60090000Y-31912400D03*
D34*
X147920000Y-101140000D03*
X147920000Y-93520000D03*
X137720000Y-101140000D03*
X137720000Y-96060000D03*
X137720000Y-93520000D03*
D35*
X76800000Y-59400000D03*
X76800000Y-59900000D03*
X76800000Y-60400000D03*
X76800000Y-60900000D03*
X76800000Y-61400000D03*
X76800000Y-61900000D03*
X76800000Y-62400000D03*
X76800000Y-62900000D03*
X76800000Y-63400000D03*
X76800000Y-63900000D03*
X76800000Y-64400000D03*
X76800000Y-64900000D03*
X76800000Y-65400000D03*
X76800000Y-65900000D03*
X76800000Y-66400000D03*
X76800000Y-66900000D03*
X76800000Y-67400000D03*
X76800000Y-67900000D03*
X76800000Y-68400000D03*
X76800000Y-68900000D03*
X76800000Y-69400000D03*
X76800000Y-69900000D03*
X76800000Y-70400000D03*
X76800000Y-70900000D03*
X76800000Y-71400000D03*
D36*
X78800000Y-73400000D03*
X79300000Y-73400000D03*
X79800000Y-73400000D03*
X80300000Y-73400000D03*
X80800000Y-73400000D03*
X81300000Y-73400000D03*
X81800000Y-73400000D03*
X82300000Y-73400000D03*
X82800000Y-73400000D03*
X83300000Y-73400000D03*
X83800000Y-73400000D03*
X84300000Y-73400000D03*
X84800000Y-73400000D03*
X85300000Y-73400000D03*
X85800000Y-73400000D03*
X86300000Y-73400000D03*
X86800000Y-73400000D03*
X87300000Y-73400000D03*
X87800000Y-73400000D03*
X88300000Y-73400000D03*
X88800000Y-73400000D03*
X89300000Y-73400000D03*
X89800000Y-73400000D03*
X90300000Y-73400000D03*
X90800000Y-73400000D03*
D35*
X92800000Y-71400000D03*
X92800000Y-70900000D03*
X92800000Y-70400000D03*
X92800000Y-69900000D03*
X92800000Y-69400000D03*
X92800000Y-68900000D03*
X92800000Y-68400000D03*
X92800000Y-67900000D03*
X92800000Y-67400000D03*
X92800000Y-66900000D03*
X92800000Y-66400000D03*
X92800000Y-65900000D03*
X92800000Y-65400000D03*
X92800000Y-64900000D03*
X92800000Y-64400000D03*
X92800000Y-63900000D03*
X92800000Y-63400000D03*
X92800000Y-62900000D03*
X92800000Y-62400000D03*
X92800000Y-61900000D03*
X92800000Y-61400000D03*
X92800000Y-60900000D03*
X92800000Y-60400000D03*
X92800000Y-59900000D03*
X92800000Y-59400000D03*
D36*
X90800000Y-57400000D03*
X90300000Y-57400000D03*
X89800000Y-57400000D03*
X89300000Y-57400000D03*
X88800000Y-57400000D03*
X88300000Y-57400000D03*
X87800000Y-57400000D03*
X87300000Y-57400000D03*
X86800000Y-57400000D03*
X86300000Y-57400000D03*
X85800000Y-57400000D03*
X85300000Y-57400000D03*
X84800000Y-57400000D03*
X84300000Y-57400000D03*
X83800000Y-57400000D03*
X83300000Y-57400000D03*
X82800000Y-57400000D03*
X82300000Y-57400000D03*
X81800000Y-57400000D03*
X81300000Y-57400000D03*
X80800000Y-57400000D03*
X80300000Y-57400000D03*
X79800000Y-57400000D03*
X79300000Y-57400000D03*
X78800000Y-57400000D03*
D37*
X134000000Y-111650000D03*
X134000000Y-112600000D03*
X134000000Y-113550000D03*
X136200000Y-113550000D03*
X136200000Y-111650000D03*
D38*
X83720000Y-84340000D03*
X84670000Y-84340000D03*
X85620000Y-84340000D03*
D39*
X67140000Y-43180000D03*
D40*
X62060000Y-53340000D03*
D39*
X56980000Y-43180000D03*
D16*
X127860000Y-87410000D03*
X126760000Y-87410000D03*
D17*
X156760000Y-80360000D03*
X156760000Y-79260000D03*
X159920000Y-79990000D03*
X159920000Y-78890000D03*
D10*
G36*
X159420000Y-88392000D02*
X158820000Y-89242000D01*
X157820000Y-89242000D01*
X157220000Y-88392000D01*
X159420000Y-88392000D01*
X159420000Y-88392000D01*
G37*
D41*
X159820000Y-84670000D03*
D42*
X158320000Y-84816500D03*
D41*
X156820000Y-84670000D03*
D43*
X158320000Y-87483500D03*
D10*
G36*
X157220000Y-86573800D02*
X157920000Y-85573800D01*
X158720000Y-85573800D01*
X159420000Y-86573800D01*
X157220000Y-86573800D01*
X157220000Y-86573800D01*
G37*
D44*
X84870000Y-80750000D03*
X83370000Y-80750000D03*
M02*
