G04 #@! TF.FileFunction,Copper,L2,Bot,Signal*
%FSLAX46Y46*%
G04 Gerber Fmt 4.6, Leading zero omitted, Abs format (unit mm)*
G04 Created by KiCad (PCBNEW 4.0.7) date 06/14/18 07:18:42*
%MOMM*%
%LPD*%
G01*
G04 APERTURE LIST*
%ADD10C,0.100000*%
%ADD11C,0.600000*%
%ADD12C,1.500000*%
%ADD13C,1.524000*%
%ADD14R,1.700000X1.700000*%
%ADD15O,1.700000X1.700000*%
%ADD16O,1.542000X2.540000*%
%ADD17O,1.524000X2.540000*%
%ADD18C,3.500000*%
%ADD19R,1.800000X1.800000*%
%ADD20C,1.800000*%
%ADD21C,0.250000*%
%ADD22C,1.300000*%
%ADD23C,0.254000*%
G04 APERTURE END LIST*
D10*
D11*
X74810000Y-87320000D03*
X75350000Y-109340000D03*
X62470000Y-123070000D03*
X78890000Y-110630000D03*
X161210000Y-52190000D03*
X182690000Y-41430000D03*
X173130000Y-90610000D03*
X192260000Y-45700000D03*
X167110000Y-60300000D03*
X145020000Y-75670000D03*
X169820000Y-79940000D03*
X166980000Y-66610000D03*
X57050000Y-81780000D03*
X71320000Y-77360000D03*
D12*
X192130000Y-101530000D03*
D13*
X192130000Y-93930000D03*
D11*
X103930000Y-68700000D03*
X112680000Y-62470000D03*
X71660000Y-86890000D03*
X117880000Y-82940000D03*
X57070000Y-31310000D03*
X138360000Y-107980000D03*
X130870000Y-97170000D03*
X110150000Y-108500000D03*
X113990000Y-73270000D03*
X159400000Y-75090000D03*
X167790000Y-48110000D03*
X140660000Y-45420000D03*
X112050000Y-37920000D03*
X55910000Y-84210000D03*
X81400000Y-80810000D03*
X72080000Y-64570000D03*
X70040000Y-81140000D03*
X59760000Y-74610000D03*
X63960000Y-64730000D03*
X70430000Y-62810000D03*
X85840000Y-54920000D03*
X73230000Y-41390000D03*
X56490000Y-48410000D03*
X84820000Y-38440000D03*
X69050000Y-55230000D03*
X57490000Y-110190000D03*
X85180000Y-96200000D03*
D14*
X145170000Y-125170000D03*
D15*
X147710000Y-125170000D03*
X150250000Y-125170000D03*
D16*
X120240000Y-94880000D03*
D17*
X122780000Y-94880000D03*
X125320000Y-94880000D03*
X120240000Y-112660000D03*
X122780000Y-112660000D03*
X125320000Y-112660000D03*
D14*
X92160000Y-32330000D03*
D15*
X92160000Y-34870000D03*
X92160000Y-37410000D03*
X92160000Y-39950000D03*
X92160000Y-42490000D03*
X92160000Y-45030000D03*
X92160000Y-47570000D03*
X92160000Y-50110000D03*
D14*
X57260000Y-119290000D03*
D15*
X57260000Y-121830000D03*
D14*
X57230000Y-68620000D03*
D15*
X57230000Y-71160000D03*
X57230000Y-73700000D03*
X57230000Y-76240000D03*
X57230000Y-78780000D03*
D14*
X129250000Y-74650000D03*
D15*
X131790000Y-74650000D03*
D14*
X180470000Y-125210000D03*
D15*
X183010000Y-125210000D03*
X185550000Y-125210000D03*
X188090000Y-125210000D03*
D14*
X167980000Y-109540000D03*
D15*
X167980000Y-112080000D03*
X167980000Y-114620000D03*
X167980000Y-117160000D03*
D14*
X159280000Y-109520000D03*
D15*
X159280000Y-112060000D03*
X159280000Y-114600000D03*
X159280000Y-117140000D03*
D18*
X131230000Y-125080000D03*
X121070000Y-125080000D03*
D19*
X126150000Y-120000000D03*
D20*
X128690000Y-120000000D03*
D14*
X162510000Y-125250000D03*
D15*
X165050000Y-125250000D03*
X167590000Y-125250000D03*
X170130000Y-125250000D03*
D14*
X195190000Y-125400000D03*
D15*
X197730000Y-125400000D03*
D14*
X96170000Y-123470000D03*
D15*
X98710000Y-123470000D03*
X101250000Y-123470000D03*
D13*
X104140000Y-116050000D03*
X104140000Y-103850000D03*
X92140000Y-116050000D03*
X92140000Y-103850000D03*
X98140000Y-101850000D03*
D14*
X112610000Y-121580000D03*
D15*
X112610000Y-124120000D03*
D11*
X85990000Y-87170000D03*
D14*
X75650000Y-126060000D03*
D15*
X73110000Y-126060000D03*
X70570000Y-126060000D03*
X68030000Y-126060000D03*
X65490000Y-126060000D03*
D11*
X98750000Y-58620000D03*
X192240000Y-81490000D03*
X61670000Y-72940000D03*
X70610000Y-69580000D03*
X78530000Y-77930000D03*
X60365010Y-78460000D03*
X96950000Y-66360000D03*
X91510000Y-52850000D03*
X121640000Y-77750000D03*
X127880000Y-79340000D03*
X124030000Y-84660000D03*
X119110000Y-88130000D03*
X104170000Y-96200000D03*
X98000000Y-97720000D03*
X70980000Y-70860000D03*
X73100000Y-61690000D03*
X84350000Y-109400000D03*
X83910000Y-101950000D03*
X87660000Y-52920000D03*
X83020000Y-49280000D03*
X72770000Y-72650000D03*
X131440000Y-101580000D03*
X126450000Y-85030000D03*
X114480000Y-90280000D03*
X155400000Y-117180000D03*
X158710000Y-105190000D03*
X87120000Y-110160000D03*
X115550000Y-43860000D03*
X99800000Y-53130000D03*
X101590000Y-75150000D03*
X117920000Y-89580000D03*
X123200000Y-88800000D03*
X117210000Y-86980000D03*
X115500000Y-101530000D03*
X103700000Y-76050000D03*
X112510000Y-91680000D03*
X103780000Y-74680000D03*
X95500000Y-31500000D03*
X94960000Y-55640000D03*
X96125000Y-36660000D03*
X95850000Y-56540000D03*
X96800000Y-38790000D03*
X96750000Y-57740000D03*
X199830000Y-122040000D03*
X97380000Y-41420000D03*
X97640000Y-58950000D03*
X74730000Y-58810000D03*
X74930000Y-60300000D03*
X127010000Y-74890000D03*
X116250000Y-81650000D03*
X105360000Y-78200000D03*
X108520000Y-81580000D03*
X172540000Y-117140000D03*
X75104443Y-72055557D03*
X73664443Y-70615557D03*
X73568978Y-72690454D03*
X87160000Y-80280000D03*
X101270000Y-90160000D03*
X74420000Y-73720000D03*
X87320000Y-79250000D03*
X101770000Y-89280000D03*
X173860000Y-116900000D03*
X67190000Y-62160000D03*
X68433737Y-62506263D03*
X163140000Y-107350000D03*
X165790000Y-101140000D03*
X65940000Y-64550000D03*
X66565000Y-62890000D03*
X80290000Y-125700000D03*
X65210000Y-65380000D03*
X73280000Y-65390000D03*
X113960000Y-77710000D03*
X116320000Y-72820000D03*
X74835000Y-65530000D03*
X79155001Y-82340000D03*
X78550000Y-75200000D03*
X99440000Y-89330000D03*
X150020000Y-119000000D03*
X94440000Y-68180000D03*
X65440000Y-30580000D03*
X95770000Y-68930000D03*
X65700000Y-29500000D03*
X75730000Y-74530000D03*
X75070000Y-76900000D03*
X72510000Y-75020000D03*
X69058737Y-71710000D03*
X64560000Y-70910000D03*
X160450000Y-121010000D03*
X143480000Y-121580000D03*
X77710000Y-124430000D03*
X61040000Y-89900000D03*
X74940000Y-61430000D03*
X63930000Y-33870000D03*
X94860000Y-70530000D03*
X61290000Y-34240000D03*
X95900000Y-70490000D03*
X120140000Y-66330000D03*
X129610000Y-45010000D03*
X119860000Y-60355000D03*
X116430000Y-64130000D03*
X120710000Y-60650000D03*
X113780000Y-70710000D03*
X128460000Y-58980000D03*
X107860000Y-61280000D03*
X129480000Y-59730000D03*
X108870000Y-61620000D03*
X128610000Y-60440000D03*
X120450000Y-62220000D03*
X105230000Y-66150000D03*
X111940000Y-65850000D03*
X64420000Y-66040000D03*
X63125000Y-69880000D03*
X62360000Y-75300000D03*
D21*
X179840000Y-59234998D02*
X179840000Y-89160000D01*
X179840000Y-89160000D02*
X179840000Y-89240000D01*
X179840000Y-89240000D02*
X192130000Y-101530000D01*
X114630000Y-31910000D02*
X152515002Y-31910000D01*
X152515002Y-31910000D02*
X179840000Y-59234998D01*
X98090010Y-48449990D02*
X114630000Y-31910000D01*
X98750000Y-58620000D02*
X98090010Y-57960010D01*
X98090010Y-57960010D02*
X98090010Y-48449990D01*
X192130000Y-93930000D02*
X192130000Y-81600000D01*
X192130000Y-81600000D02*
X192240000Y-81490000D01*
X61670000Y-114280000D02*
X67130000Y-119740000D01*
X67130000Y-119740000D02*
X67130000Y-125160000D01*
X67130000Y-125160000D02*
X68030000Y-126060000D01*
X61670000Y-72940000D02*
X61670000Y-114280000D01*
X78530000Y-76364998D02*
X71320000Y-69154998D01*
X70610000Y-69580000D02*
X70909999Y-69280001D01*
X70909999Y-69280001D02*
X71194997Y-69280001D01*
X71194997Y-69280001D02*
X71320000Y-69154998D01*
X78530000Y-77930000D02*
X78530000Y-76364998D01*
X60365010Y-113611420D02*
X65730000Y-118976410D01*
X65730000Y-118976410D02*
X65490000Y-119216410D01*
X65490000Y-119216410D02*
X65490000Y-126060000D01*
X60365010Y-78460000D02*
X60365010Y-113611420D01*
X91510000Y-52850000D02*
X91510000Y-54673590D01*
X91510000Y-54673590D02*
X96950000Y-60113590D01*
X96950000Y-60113590D02*
X96950000Y-66360000D01*
X127880000Y-79340000D02*
X126290000Y-77750000D01*
X126290000Y-77750000D02*
X121640000Y-77750000D01*
X119110000Y-88130000D02*
X120560000Y-88130000D01*
X120560000Y-88130000D02*
X124030000Y-84660000D01*
X98000000Y-97720000D02*
X99520000Y-96200000D01*
X99520000Y-96200000D02*
X104170000Y-96200000D01*
X70980000Y-70860000D02*
X68974999Y-68854999D01*
X68974999Y-68854999D02*
X68974999Y-65815001D01*
X68974999Y-65815001D02*
X73100000Y-61690000D01*
X72770000Y-72650000D02*
X70980000Y-70860000D01*
X83910000Y-101950000D02*
X84350000Y-102390000D01*
X84350000Y-102390000D02*
X84350000Y-109400000D01*
X83020000Y-49280000D02*
X84020000Y-49280000D01*
X84020000Y-49280000D02*
X87660000Y-52920000D01*
X131440000Y-101580000D02*
X131440000Y-101155736D01*
X131440000Y-101155736D02*
X128354264Y-98070000D01*
X128354264Y-98070000D02*
X122931000Y-98070000D01*
X122931000Y-98070000D02*
X120240000Y-95379000D01*
X120240000Y-95379000D02*
X120240000Y-94880000D01*
X119294998Y-83970000D02*
X125390000Y-83970000D01*
X125390000Y-83970000D02*
X126450000Y-85030000D01*
X115830000Y-88930000D02*
X115830000Y-87434998D01*
X115830000Y-87434998D02*
X119294998Y-83970000D01*
X115830000Y-88930000D02*
X114480000Y-90280000D01*
X158710000Y-105190000D02*
X155400000Y-108500000D01*
X155400000Y-108500000D02*
X155400000Y-117180000D01*
D22*
X87950000Y-98530000D02*
X101590000Y-84890000D01*
X87120000Y-110160000D02*
X87950000Y-109330000D01*
X87950000Y-109330000D02*
X87950000Y-98530000D01*
X99800000Y-53130000D02*
X109070000Y-43860000D01*
X109070000Y-43860000D02*
X115550000Y-43860000D01*
X101590000Y-84890000D02*
X101590000Y-75150000D01*
D21*
X123200000Y-88800000D02*
X123200000Y-93040000D01*
X120039999Y-89879999D02*
X123200000Y-93040000D01*
X123200000Y-93040000D02*
X123200000Y-94460000D01*
X117920000Y-89580000D02*
X118219999Y-89879999D01*
X118219999Y-89879999D02*
X120039999Y-89879999D01*
X122780000Y-94372000D02*
X122780000Y-94880000D01*
X123200000Y-94460000D02*
X122780000Y-94880000D01*
X117210000Y-86980000D02*
X117210000Y-89801008D01*
X117210000Y-89801008D02*
X121692990Y-94283998D01*
X121692990Y-94283998D02*
X121692990Y-95838254D01*
X121692990Y-95838254D02*
X122329746Y-96475010D01*
X122329746Y-96475010D02*
X124232990Y-96475010D01*
X124232990Y-96475010D02*
X125320000Y-95388000D01*
X125320000Y-95388000D02*
X125320000Y-94880000D01*
X115300000Y-96200000D02*
X115300000Y-101330000D01*
X115300000Y-101330000D02*
X115500000Y-101530000D01*
X111884999Y-92784999D02*
X115300000Y-96200000D01*
X111970000Y-83884998D02*
X111970000Y-91294998D01*
X111970000Y-91294998D02*
X111884999Y-91379999D01*
X111884999Y-91379999D02*
X111884999Y-92784999D01*
X103700000Y-76050000D02*
X103999999Y-76349999D01*
X103999999Y-76349999D02*
X104435001Y-76349999D01*
X104435001Y-76349999D02*
X111970000Y-83884998D01*
X103780000Y-74680000D02*
X112510000Y-83410000D01*
X112510000Y-83410000D02*
X112510000Y-91680000D01*
X94960000Y-55640000D02*
X95500000Y-55100000D01*
X95500000Y-55100000D02*
X95500000Y-31500000D01*
X95850000Y-56540000D02*
X96149999Y-56240001D01*
X96149999Y-56240001D02*
X96149999Y-36684999D01*
X96149999Y-36684999D02*
X96125000Y-36660000D01*
X96750000Y-57740000D02*
X96750000Y-38840000D01*
X96750000Y-38840000D02*
X96800000Y-38790000D01*
X201250000Y-122890000D02*
X200680000Y-122890000D01*
X200680000Y-122890000D02*
X199830000Y-122040000D01*
X201250000Y-80008588D02*
X201250000Y-122890000D01*
X97380000Y-41420000D02*
X107340010Y-31459990D01*
X107340010Y-31459990D02*
X152701402Y-31459990D01*
X152701402Y-31459990D02*
X201250000Y-80008588D01*
X97640000Y-58950000D02*
X97640000Y-41680000D01*
X97640000Y-41680000D02*
X97380000Y-41420000D01*
X59860000Y-64690000D02*
X59860000Y-70570000D01*
X59860000Y-70570000D02*
X59270000Y-71160000D01*
X65740000Y-58810000D02*
X59860000Y-64690000D01*
X74730000Y-58810000D02*
X65740000Y-58810000D01*
X59270000Y-71160000D02*
X57230000Y-71160000D01*
X60540000Y-70815002D02*
X58505001Y-72850001D01*
X66099990Y-59260010D02*
X60540000Y-64820000D01*
X60540000Y-64820000D02*
X60540000Y-70815002D01*
X73890010Y-59260010D02*
X66099990Y-59260010D01*
X74930000Y-60300000D02*
X73890010Y-59260010D01*
X58079999Y-72850001D02*
X57230000Y-73700000D01*
X58505001Y-72850001D02*
X58079999Y-72850001D01*
X116250000Y-81650000D02*
X123010000Y-74890000D01*
X123010000Y-74890000D02*
X127010000Y-74890000D01*
X108520000Y-81580000D02*
X105360000Y-78420000D01*
X105360000Y-78420000D02*
X105360000Y-78200000D01*
X172540000Y-117140000D02*
X172839999Y-116840001D01*
X172839999Y-116840001D02*
X172849999Y-116840001D01*
X172849999Y-116840001D02*
X173240000Y-116450000D01*
X173240000Y-116450000D02*
X173240000Y-106740000D01*
X150876410Y-104230000D02*
X115340000Y-104230000D01*
X173240000Y-106740000D02*
X169620010Y-103120010D01*
X151986400Y-103120010D02*
X150876410Y-104230000D01*
X169620010Y-103120010D02*
X151986400Y-103120010D01*
X115340000Y-104230000D02*
X101270000Y-90160000D01*
X73664443Y-70615557D02*
X75104443Y-72055557D01*
X87160000Y-80280000D02*
X81954990Y-85485010D01*
X81954990Y-85485010D02*
X77033598Y-85485010D01*
X77033598Y-85485010D02*
X73568978Y-82020390D01*
X73568978Y-82020390D02*
X73568978Y-72690454D01*
X173860000Y-116900000D02*
X173860000Y-106370000D01*
X173860000Y-106370000D02*
X170160000Y-102670000D01*
X170160000Y-102670000D02*
X151800000Y-102670000D01*
X151800000Y-102670000D02*
X151060000Y-103410000D01*
X151060000Y-103410000D02*
X115900000Y-103410000D01*
X115900000Y-103410000D02*
X101770000Y-89280000D01*
X87320000Y-79250000D02*
X86895736Y-79250000D01*
X86895736Y-79250000D02*
X83400000Y-82745736D01*
X83400000Y-82745736D02*
X83400000Y-83403590D01*
X83400000Y-83403590D02*
X81768590Y-85035000D01*
X81768590Y-85035000D02*
X77219999Y-85035001D01*
X77219999Y-85035001D02*
X74420000Y-82235002D01*
X74420000Y-82235002D02*
X74420000Y-73720000D01*
X77500000Y-119066410D02*
X107157408Y-119066410D01*
X107157408Y-119066410D02*
X110845999Y-122755001D01*
X110845999Y-122755001D02*
X164124001Y-122755001D01*
X164124001Y-122755001D02*
X169155001Y-117724001D01*
X169155001Y-117724001D02*
X169155001Y-113255001D01*
X169155001Y-113255001D02*
X168829999Y-112929999D01*
X168829999Y-112929999D02*
X167980000Y-112080000D01*
X67190000Y-62160000D02*
X67190000Y-108756410D01*
X67190000Y-108756410D02*
X77500000Y-119066410D01*
X77240000Y-118170000D02*
X148264998Y-118170000D01*
X148264998Y-118170000D02*
X149719999Y-119625001D01*
X149719999Y-119625001D02*
X162974999Y-119625001D01*
X162974999Y-119625001D02*
X167130001Y-115469999D01*
X167130001Y-115469999D02*
X167980000Y-114620000D01*
X68433737Y-109363737D02*
X77240000Y-118170000D01*
X68433737Y-62506263D02*
X68433737Y-109363737D01*
X163140000Y-107350000D02*
X163140000Y-108200000D01*
X163140000Y-108200000D02*
X159280000Y-112060000D01*
X171250000Y-101140000D02*
X165790000Y-101140000D01*
X176610000Y-106500000D02*
X171250000Y-101140000D01*
X176610000Y-120509002D02*
X176610000Y-106500000D01*
X77220000Y-121050000D02*
X83775011Y-127605011D01*
X83775011Y-127605011D02*
X169513991Y-127605011D01*
X169513991Y-127605011D02*
X176610000Y-120509002D01*
X74640000Y-121050000D02*
X77220000Y-121050000D01*
X65940000Y-64550000D02*
X65940000Y-112350000D01*
X65940000Y-112350000D02*
X74640000Y-121050000D01*
X164130000Y-114980000D02*
X163750000Y-114600000D01*
X163750000Y-114600000D02*
X159280000Y-114600000D01*
X165490000Y-113620000D02*
X164130000Y-114980000D01*
X165490000Y-109270000D02*
X165490000Y-113620000D01*
X170000000Y-104760000D02*
X165490000Y-109270000D01*
X172660000Y-107420000D02*
X170000000Y-104760000D01*
X172660000Y-114855412D02*
X172660000Y-107420000D01*
X77390000Y-119630000D02*
X84915001Y-127155001D01*
X84915001Y-127155001D02*
X132226001Y-127155001D01*
X136175992Y-123205010D02*
X164310402Y-123205010D01*
X132226001Y-127155001D02*
X136175992Y-123205010D01*
X164310402Y-123205010D02*
X172660000Y-114855412D01*
X75260000Y-119630000D02*
X77390000Y-119630000D01*
X66565000Y-62890000D02*
X66565000Y-110935000D01*
X66565000Y-110935000D02*
X75260000Y-119630000D01*
X77160000Y-121860000D02*
X80290000Y-124990000D01*
X80290000Y-124990000D02*
X80290000Y-125700000D01*
X74813590Y-121860000D02*
X77160000Y-121860000D01*
X65210000Y-65380000D02*
X65210000Y-112256410D01*
X65210000Y-112256410D02*
X74813590Y-121860000D01*
X74210000Y-66744264D02*
X74210000Y-67870000D01*
X74210000Y-67870000D02*
X74210000Y-68280000D01*
X73280000Y-65390000D02*
X73280000Y-65814264D01*
X73280000Y-65814264D02*
X74210000Y-66744264D01*
X74210000Y-70200000D02*
X76590000Y-72580000D01*
X74210000Y-68280000D02*
X74190000Y-68300000D01*
X74210000Y-68320000D02*
X74210000Y-70200000D01*
X74190000Y-68300000D02*
X74210000Y-68320000D01*
X76590000Y-72580000D02*
X108830000Y-72580000D01*
X108830000Y-72580000D02*
X113960000Y-77710000D01*
X115105010Y-71605010D02*
X116320000Y-72820000D01*
X79109999Y-71819999D02*
X79324988Y-71605010D01*
X79324988Y-71605010D02*
X115105010Y-71605010D01*
X75380000Y-69949998D02*
X75380000Y-66075000D01*
X75380000Y-66075000D02*
X74835000Y-65530000D01*
X77250001Y-71819999D02*
X75380000Y-69949998D01*
X79109999Y-71819999D02*
X77250001Y-71819999D01*
X79155001Y-82340000D02*
X79155001Y-75805001D01*
X79155001Y-75805001D02*
X78550000Y-75200000D01*
X124305264Y-109600000D02*
X119710000Y-109600000D01*
X119710000Y-109600000D02*
X99440000Y-89330000D01*
X144595001Y-113575001D02*
X128280265Y-113575001D01*
X128280265Y-113575001D02*
X124305264Y-109600000D01*
X150020000Y-119000000D02*
X144595001Y-113575001D01*
X65440000Y-30580000D02*
X65440000Y-39180000D01*
X65440000Y-39180000D02*
X94440000Y-68180000D01*
X65700000Y-29500000D02*
X95770000Y-59570000D01*
X95770000Y-59570000D02*
X95770000Y-68930000D01*
X75070000Y-76900000D02*
X75730000Y-76240000D01*
X75730000Y-76240000D02*
X75730000Y-74530000D01*
X69058737Y-71710000D02*
X72368737Y-75020000D01*
X72368737Y-75020000D02*
X72510000Y-75020000D01*
X64560000Y-70910000D02*
X64560000Y-112242820D01*
X143480000Y-121580000D02*
X144050000Y-121010000D01*
X144050000Y-121010000D02*
X160450000Y-121010000D01*
X77250000Y-122870000D02*
X77250000Y-123970000D01*
X77250000Y-123970000D02*
X77710000Y-124430000D01*
X75187180Y-122870000D02*
X77250000Y-122870000D01*
X64560000Y-112242820D02*
X75187180Y-122870000D01*
X60990010Y-89409990D02*
X60990010Y-89850010D01*
X60990010Y-89850010D02*
X61040000Y-89900000D01*
X60990010Y-72179990D02*
X60990010Y-89409990D01*
X64690000Y-61710000D02*
X60990010Y-65409990D01*
X60990010Y-65409990D02*
X60990010Y-72179990D01*
X64760000Y-61710000D02*
X64690000Y-61710000D01*
X73570000Y-60060000D02*
X74940000Y-61430000D01*
X64760000Y-61710000D02*
X66410000Y-60060000D01*
X66410000Y-60060000D02*
X73570000Y-60060000D01*
X94860000Y-70530000D02*
X63930000Y-39600000D01*
X63930000Y-39600000D02*
X63930000Y-33870000D01*
X62440000Y-39280000D02*
X62440000Y-35390000D01*
X62440000Y-35390000D02*
X61290000Y-34240000D01*
X95900000Y-70490000D02*
X95234999Y-71155001D01*
X95234999Y-71155001D02*
X94315001Y-71155001D01*
X94315001Y-71155001D02*
X62440000Y-39280000D01*
X130105001Y-61344999D02*
X125120000Y-66330000D01*
X125120000Y-66330000D02*
X120140000Y-66330000D01*
X129610000Y-45010000D02*
X129610000Y-45434264D01*
X129610000Y-45434264D02*
X130105001Y-45929265D01*
X130105001Y-45929265D02*
X130105001Y-61344999D01*
X116430000Y-64130000D02*
X119860000Y-60700000D01*
X119860000Y-60700000D02*
X119860000Y-60355000D01*
X113780000Y-70710000D02*
X113780000Y-67964998D01*
X120710000Y-61034998D02*
X120710000Y-60650000D01*
X113780000Y-67964998D02*
X120710000Y-61034998D01*
X107860000Y-61280000D02*
X110160000Y-58980000D01*
X110160000Y-58980000D02*
X128460000Y-58980000D01*
X108870000Y-61620000D02*
X110760000Y-59730000D01*
X110760000Y-59730000D02*
X129480000Y-59730000D01*
X120450000Y-62220000D02*
X122230000Y-60440000D01*
X122230000Y-60440000D02*
X128610000Y-60440000D01*
X111940000Y-65850000D02*
X111640000Y-66150000D01*
X111640000Y-66150000D02*
X105230000Y-66150000D01*
X74660000Y-124190000D02*
X74880000Y-124190000D01*
X74880000Y-124190000D02*
X75650000Y-124960000D01*
X75650000Y-124960000D02*
X75650000Y-126060000D01*
X64005001Y-113535001D02*
X74660000Y-124190000D01*
X64420000Y-66040000D02*
X63750000Y-66710000D01*
X64005001Y-91179999D02*
X64005001Y-113535001D01*
X63750000Y-66710000D02*
X63750000Y-90924998D01*
X63750000Y-90924998D02*
X64005001Y-91179999D01*
X70330000Y-120990000D02*
X70330000Y-123280000D01*
X63125000Y-113785000D02*
X70330000Y-120990000D01*
X70330000Y-123280000D02*
X73110000Y-126060000D01*
X63125000Y-89075000D02*
X63125000Y-113785000D01*
X63125000Y-89075000D02*
X63230000Y-89180000D01*
X63125000Y-69880000D02*
X63125000Y-89075000D01*
X68180000Y-123670000D02*
X70570000Y-126060000D01*
X62360000Y-113656410D02*
X68180000Y-119476410D01*
X68180000Y-119476410D02*
X68180000Y-123670000D01*
X62360000Y-75300000D02*
X62360000Y-113656410D01*
D23*
G36*
X203720000Y-127380000D02*
X170813804Y-127380000D01*
X172698054Y-125495750D01*
X178985000Y-125495750D01*
X178985000Y-126186309D01*
X179081673Y-126419698D01*
X179260301Y-126598327D01*
X179493690Y-126695000D01*
X180184250Y-126695000D01*
X180343000Y-126536250D01*
X180343000Y-125337000D01*
X179143750Y-125337000D01*
X178985000Y-125495750D01*
X172698054Y-125495750D01*
X173960113Y-124233691D01*
X178985000Y-124233691D01*
X178985000Y-124924250D01*
X179143750Y-125083000D01*
X180343000Y-125083000D01*
X180343000Y-123883750D01*
X180597000Y-123883750D01*
X180597000Y-125083000D01*
X180617000Y-125083000D01*
X180617000Y-125337000D01*
X180597000Y-125337000D01*
X180597000Y-126536250D01*
X180755750Y-126695000D01*
X181446310Y-126695000D01*
X181679699Y-126598327D01*
X181858327Y-126419698D01*
X181930597Y-126245223D01*
X181959946Y-126289147D01*
X182441715Y-126611054D01*
X183010000Y-126724093D01*
X183578285Y-126611054D01*
X184060054Y-126289147D01*
X184280000Y-125959974D01*
X184499946Y-126289147D01*
X184981715Y-126611054D01*
X185550000Y-126724093D01*
X186118285Y-126611054D01*
X186600054Y-126289147D01*
X186820000Y-125959974D01*
X187039946Y-126289147D01*
X187521715Y-126611054D01*
X188090000Y-126724093D01*
X188658285Y-126611054D01*
X189140054Y-126289147D01*
X189461961Y-125807378D01*
X189575000Y-125239093D01*
X189575000Y-125180907D01*
X189461961Y-124612622D01*
X189420119Y-124550000D01*
X193692560Y-124550000D01*
X193692560Y-126250000D01*
X193736838Y-126485317D01*
X193875910Y-126701441D01*
X194088110Y-126846431D01*
X194340000Y-126897440D01*
X196040000Y-126897440D01*
X196275317Y-126853162D01*
X196491441Y-126714090D01*
X196636431Y-126501890D01*
X196650086Y-126434459D01*
X196679946Y-126479147D01*
X197161715Y-126801054D01*
X197730000Y-126914093D01*
X198298285Y-126801054D01*
X198780054Y-126479147D01*
X199101961Y-125997378D01*
X199215000Y-125429093D01*
X199215000Y-125370907D01*
X199101961Y-124802622D01*
X198780054Y-124320853D01*
X198298285Y-123998946D01*
X197730000Y-123885907D01*
X197161715Y-123998946D01*
X196679946Y-124320853D01*
X196652150Y-124362452D01*
X196643162Y-124314683D01*
X196504090Y-124098559D01*
X196291890Y-123953569D01*
X196040000Y-123902560D01*
X194340000Y-123902560D01*
X194104683Y-123946838D01*
X193888559Y-124085910D01*
X193743569Y-124298110D01*
X193692560Y-124550000D01*
X189420119Y-124550000D01*
X189140054Y-124130853D01*
X188658285Y-123808946D01*
X188090000Y-123695907D01*
X187521715Y-123808946D01*
X187039946Y-124130853D01*
X186820000Y-124460026D01*
X186600054Y-124130853D01*
X186118285Y-123808946D01*
X185550000Y-123695907D01*
X184981715Y-123808946D01*
X184499946Y-124130853D01*
X184280000Y-124460026D01*
X184060054Y-124130853D01*
X183578285Y-123808946D01*
X183010000Y-123695907D01*
X182441715Y-123808946D01*
X181959946Y-124130853D01*
X181930597Y-124174777D01*
X181858327Y-124000302D01*
X181679699Y-123821673D01*
X181446310Y-123725000D01*
X180755750Y-123725000D01*
X180597000Y-123883750D01*
X180343000Y-123883750D01*
X180184250Y-123725000D01*
X179493690Y-123725000D01*
X179260301Y-123821673D01*
X179081673Y-124000302D01*
X178985000Y-124233691D01*
X173960113Y-124233691D01*
X177147401Y-121046403D01*
X177312148Y-120799842D01*
X177370000Y-120509002D01*
X177370000Y-106500000D01*
X177312148Y-106209161D01*
X177147401Y-105962599D01*
X171787401Y-100602599D01*
X171540839Y-100437852D01*
X171250000Y-100380000D01*
X166352463Y-100380000D01*
X166320327Y-100347808D01*
X165976799Y-100205162D01*
X165604833Y-100204838D01*
X165261057Y-100346883D01*
X164997808Y-100609673D01*
X164855162Y-100953201D01*
X164854838Y-101325167D01*
X164996883Y-101668943D01*
X165237520Y-101910000D01*
X151800000Y-101910000D01*
X151509161Y-101967852D01*
X151262599Y-102132599D01*
X150745198Y-102650000D01*
X116214802Y-102650000D01*
X115929152Y-102364350D01*
X116028943Y-102323117D01*
X116292192Y-102060327D01*
X116434838Y-101716799D01*
X116435162Y-101344833D01*
X116293117Y-101001057D01*
X116060000Y-100767533D01*
X116060000Y-96200000D01*
X116002148Y-95909161D01*
X115837401Y-95662599D01*
X112762247Y-92587445D01*
X113038943Y-92473117D01*
X113302192Y-92210327D01*
X113444838Y-91866799D01*
X113445162Y-91494833D01*
X113303117Y-91151057D01*
X113270000Y-91117882D01*
X113270000Y-90465167D01*
X113544838Y-90465167D01*
X113686883Y-90808943D01*
X113949673Y-91072192D01*
X114293201Y-91214838D01*
X114665167Y-91215162D01*
X115008943Y-91073117D01*
X115272192Y-90810327D01*
X115414838Y-90466799D01*
X115414879Y-90419923D01*
X116367401Y-89467401D01*
X116450000Y-89343783D01*
X116450000Y-89801008D01*
X116507852Y-90091847D01*
X116672599Y-90338409D01*
X119508291Y-93174101D01*
X119245808Y-93349487D01*
X118941025Y-93805626D01*
X118834000Y-94343679D01*
X118834000Y-95416321D01*
X118941025Y-95954374D01*
X119245808Y-96410513D01*
X119701947Y-96715296D01*
X120240000Y-96822321D01*
X120547378Y-96761180D01*
X122393599Y-98607401D01*
X122640161Y-98772148D01*
X122931000Y-98830000D01*
X128039462Y-98830000D01*
X130533769Y-101324307D01*
X130505162Y-101393201D01*
X130504838Y-101765167D01*
X130646883Y-102108943D01*
X130909673Y-102372192D01*
X131253201Y-102514838D01*
X131625167Y-102515162D01*
X131968943Y-102373117D01*
X132232192Y-102110327D01*
X132374838Y-101766799D01*
X132375162Y-101394833D01*
X132233117Y-101051057D01*
X132165755Y-100983578D01*
X132142148Y-100864897D01*
X131977401Y-100618335D01*
X128891665Y-97532599D01*
X128645103Y-97367852D01*
X128354264Y-97310000D01*
X123245802Y-97310000D01*
X123170812Y-97235010D01*
X124232990Y-97235010D01*
X124523829Y-97177158D01*
X124770391Y-97012411D01*
X125020129Y-96762673D01*
X125320000Y-96822321D01*
X125854609Y-96715981D01*
X126307828Y-96413149D01*
X126610660Y-95959930D01*
X126717000Y-95425321D01*
X126717000Y-94334679D01*
X126610660Y-93800070D01*
X126307828Y-93346851D01*
X125854609Y-93044019D01*
X125320000Y-92937679D01*
X124785391Y-93044019D01*
X124332172Y-93346851D01*
X124050000Y-93769150D01*
X123960000Y-93634456D01*
X123960000Y-89362463D01*
X123992192Y-89330327D01*
X124134838Y-88986799D01*
X124135162Y-88614833D01*
X123993117Y-88271057D01*
X123730327Y-88007808D01*
X123386799Y-87865162D01*
X123014833Y-87864838D01*
X122671057Y-88006883D01*
X122407808Y-88269673D01*
X122265162Y-88613201D01*
X122264838Y-88985167D01*
X122406883Y-89328943D01*
X122440000Y-89362118D01*
X122440000Y-91205198D01*
X120577400Y-89342598D01*
X120330838Y-89177851D01*
X120039999Y-89119999D01*
X118741603Y-89119999D01*
X118713117Y-89051057D01*
X118587878Y-88925599D01*
X118923201Y-89064838D01*
X119295167Y-89065162D01*
X119638943Y-88923117D01*
X119672118Y-88890000D01*
X120560000Y-88890000D01*
X120850839Y-88832148D01*
X121097401Y-88667401D01*
X124169680Y-85595122D01*
X124215167Y-85595162D01*
X124558943Y-85453117D01*
X124822192Y-85190327D01*
X124964838Y-84846799D01*
X124964940Y-84730000D01*
X125075198Y-84730000D01*
X125514878Y-85169680D01*
X125514838Y-85215167D01*
X125656883Y-85558943D01*
X125919673Y-85822192D01*
X126263201Y-85964838D01*
X126635167Y-85965162D01*
X126978943Y-85823117D01*
X127242192Y-85560327D01*
X127384838Y-85216799D01*
X127385162Y-84844833D01*
X127243117Y-84501057D01*
X126980327Y-84237808D01*
X126636799Y-84095162D01*
X126589923Y-84095121D01*
X125927401Y-83432599D01*
X125680839Y-83267852D01*
X125390000Y-83210000D01*
X119294998Y-83210000D01*
X119004159Y-83267852D01*
X118757597Y-83432599D01*
X115292599Y-86897597D01*
X115127852Y-87144159D01*
X115070000Y-87434998D01*
X115070000Y-88615198D01*
X114340320Y-89344878D01*
X114294833Y-89344838D01*
X113951057Y-89486883D01*
X113687808Y-89749673D01*
X113545162Y-90093201D01*
X113544838Y-90465167D01*
X113270000Y-90465167D01*
X113270000Y-83410000D01*
X113212148Y-83119161D01*
X113212148Y-83119160D01*
X113047401Y-82872599D01*
X112009969Y-81835167D01*
X115314838Y-81835167D01*
X115456883Y-82178943D01*
X115719673Y-82442192D01*
X116063201Y-82584838D01*
X116435167Y-82585162D01*
X116778943Y-82443117D01*
X117042192Y-82180327D01*
X117184838Y-81836799D01*
X117184879Y-81789923D01*
X120802726Y-78172076D01*
X120846883Y-78278943D01*
X121109673Y-78542192D01*
X121453201Y-78684838D01*
X121825167Y-78685162D01*
X122168943Y-78543117D01*
X122202118Y-78510000D01*
X125975198Y-78510000D01*
X126944878Y-79479680D01*
X126944838Y-79525167D01*
X127086883Y-79868943D01*
X127349673Y-80132192D01*
X127693201Y-80274838D01*
X128065167Y-80275162D01*
X128408943Y-80133117D01*
X128672192Y-79870327D01*
X128814838Y-79526799D01*
X128815162Y-79154833D01*
X128673117Y-78811057D01*
X128410327Y-78547808D01*
X128066799Y-78405162D01*
X128019923Y-78405121D01*
X126827401Y-77212599D01*
X126580839Y-77047852D01*
X126290000Y-76990000D01*
X122202463Y-76990000D01*
X122170327Y-76957808D01*
X122061983Y-76912819D01*
X123324802Y-75650000D01*
X126447537Y-75650000D01*
X126479673Y-75682192D01*
X126823201Y-75824838D01*
X127195167Y-75825162D01*
X127538943Y-75683117D01*
X127752560Y-75469872D01*
X127752560Y-75500000D01*
X127796838Y-75735317D01*
X127935910Y-75951441D01*
X128148110Y-76096431D01*
X128400000Y-76147440D01*
X130100000Y-76147440D01*
X130335317Y-76103162D01*
X130551441Y-75964090D01*
X130696431Y-75751890D01*
X130710086Y-75684459D01*
X130739946Y-75729147D01*
X131221715Y-76051054D01*
X131790000Y-76164093D01*
X132358285Y-76051054D01*
X132840054Y-75729147D01*
X133161961Y-75247378D01*
X133275000Y-74679093D01*
X133275000Y-74620907D01*
X133161961Y-74052622D01*
X132840054Y-73570853D01*
X132358285Y-73248946D01*
X131790000Y-73135907D01*
X131221715Y-73248946D01*
X130739946Y-73570853D01*
X130712150Y-73612452D01*
X130703162Y-73564683D01*
X130564090Y-73348559D01*
X130351890Y-73203569D01*
X130100000Y-73152560D01*
X128400000Y-73152560D01*
X128164683Y-73196838D01*
X127948559Y-73335910D01*
X127803569Y-73548110D01*
X127752560Y-73800000D01*
X127752560Y-74310412D01*
X127540327Y-74097808D01*
X127196799Y-73955162D01*
X126824833Y-73954838D01*
X126481057Y-74096883D01*
X126447882Y-74130000D01*
X123010000Y-74130000D01*
X122719161Y-74187852D01*
X122472599Y-74352599D01*
X116110320Y-80714878D01*
X116064833Y-80714838D01*
X115721057Y-80856883D01*
X115457808Y-81119673D01*
X115315162Y-81463201D01*
X115314838Y-81835167D01*
X112009969Y-81835167D01*
X104715122Y-74540320D01*
X104715162Y-74494833D01*
X104573117Y-74151057D01*
X104310327Y-73887808D01*
X103966799Y-73745162D01*
X103594833Y-73744838D01*
X103251057Y-73886883D01*
X102987808Y-74149673D01*
X102845162Y-74493201D01*
X102844838Y-74865167D01*
X102986883Y-75208943D01*
X103102779Y-75325042D01*
X102907808Y-75519673D01*
X102875000Y-75598683D01*
X102875000Y-75150000D01*
X102777185Y-74658252D01*
X102498632Y-74241368D01*
X102081748Y-73962815D01*
X101590000Y-73865000D01*
X101098252Y-73962815D01*
X100681368Y-74241368D01*
X100402815Y-74658252D01*
X100305000Y-75150000D01*
X100305000Y-84357736D01*
X87041368Y-97621368D01*
X86762815Y-98038252D01*
X86665000Y-98530000D01*
X86665000Y-108797736D01*
X86211368Y-109251368D01*
X85932815Y-109668252D01*
X85835000Y-110160000D01*
X85932815Y-110651748D01*
X86211368Y-111068632D01*
X86628252Y-111347185D01*
X87120000Y-111445000D01*
X87611748Y-111347185D01*
X88028632Y-111068632D01*
X88858632Y-110238632D01*
X89137185Y-109821748D01*
X89235000Y-109330000D01*
X89235000Y-104126661D01*
X90742758Y-104126661D01*
X90954990Y-104640303D01*
X91347630Y-105033629D01*
X91860900Y-105246757D01*
X92416661Y-105247242D01*
X92930303Y-105035010D01*
X93323629Y-104642370D01*
X93536757Y-104129100D01*
X93536759Y-104126661D01*
X102742758Y-104126661D01*
X102954990Y-104640303D01*
X103347630Y-105033629D01*
X103860900Y-105246757D01*
X104416661Y-105247242D01*
X104930303Y-105035010D01*
X105323629Y-104642370D01*
X105536757Y-104129100D01*
X105537242Y-103573339D01*
X105325010Y-103059697D01*
X104932370Y-102666371D01*
X104419100Y-102453243D01*
X103863339Y-102452758D01*
X103349697Y-102664990D01*
X102956371Y-103057630D01*
X102743243Y-103570900D01*
X102742758Y-104126661D01*
X93536759Y-104126661D01*
X93537242Y-103573339D01*
X93325010Y-103059697D01*
X92932370Y-102666371D01*
X92419100Y-102453243D01*
X91863339Y-102452758D01*
X91349697Y-102664990D01*
X90956371Y-103057630D01*
X90743243Y-103570900D01*
X90742758Y-104126661D01*
X89235000Y-104126661D01*
X89235000Y-102126661D01*
X96742758Y-102126661D01*
X96954990Y-102640303D01*
X97347630Y-103033629D01*
X97860900Y-103246757D01*
X98416661Y-103247242D01*
X98930303Y-103035010D01*
X99323629Y-102642370D01*
X99536757Y-102129100D01*
X99537242Y-101573339D01*
X99325010Y-101059697D01*
X98932370Y-100666371D01*
X98419100Y-100453243D01*
X97863339Y-100452758D01*
X97349697Y-100664990D01*
X96956371Y-101057630D01*
X96743243Y-101570900D01*
X96742758Y-102126661D01*
X89235000Y-102126661D01*
X89235000Y-99062264D01*
X98585903Y-89711361D01*
X98646883Y-89858943D01*
X98909673Y-90122192D01*
X99253201Y-90264838D01*
X99300077Y-90264879D01*
X104300311Y-95265113D01*
X103984833Y-95264838D01*
X103641057Y-95406883D01*
X103607882Y-95440000D01*
X99520000Y-95440000D01*
X99229161Y-95497852D01*
X98982599Y-95662599D01*
X97860320Y-96784878D01*
X97814833Y-96784838D01*
X97471057Y-96926883D01*
X97207808Y-97189673D01*
X97065162Y-97533201D01*
X97064838Y-97905167D01*
X97206883Y-98248943D01*
X97469673Y-98512192D01*
X97813201Y-98654838D01*
X98185167Y-98655162D01*
X98528943Y-98513117D01*
X98792192Y-98250327D01*
X98934838Y-97906799D01*
X98934879Y-97859923D01*
X99834802Y-96960000D01*
X103607537Y-96960000D01*
X103639673Y-96992192D01*
X103983201Y-97134838D01*
X104355167Y-97135162D01*
X104698943Y-96993117D01*
X104962192Y-96730327D01*
X105104838Y-96386799D01*
X105105114Y-96069916D01*
X119172599Y-110137401D01*
X119419161Y-110302148D01*
X119710000Y-110360000D01*
X123990462Y-110360000D01*
X124587025Y-110956563D01*
X124332172Y-111126851D01*
X124050000Y-111549150D01*
X123767828Y-111126851D01*
X123314609Y-110824019D01*
X122780000Y-110717679D01*
X122245391Y-110824019D01*
X121792172Y-111126851D01*
X121510000Y-111549150D01*
X121227828Y-111126851D01*
X120774609Y-110824019D01*
X120240000Y-110717679D01*
X119705391Y-110824019D01*
X119252172Y-111126851D01*
X118949340Y-111580070D01*
X118843000Y-112114679D01*
X118843000Y-113205321D01*
X118949340Y-113739930D01*
X119252172Y-114193149D01*
X119705391Y-114495981D01*
X120240000Y-114602321D01*
X120774609Y-114495981D01*
X121227828Y-114193149D01*
X121510000Y-113770850D01*
X121792172Y-114193149D01*
X122245391Y-114495981D01*
X122780000Y-114602321D01*
X123314609Y-114495981D01*
X123767828Y-114193149D01*
X124050000Y-113770850D01*
X124332172Y-114193149D01*
X124785391Y-114495981D01*
X125320000Y-114602321D01*
X125854609Y-114495981D01*
X126307828Y-114193149D01*
X126610660Y-113739930D01*
X126717000Y-113205321D01*
X126717000Y-113086538D01*
X127742864Y-114112402D01*
X127989425Y-114277149D01*
X128280265Y-114335001D01*
X144280199Y-114335001D01*
X147355198Y-117410000D01*
X104506794Y-117410000D01*
X104930303Y-117235010D01*
X105323629Y-116842370D01*
X105536757Y-116329100D01*
X105537242Y-115773339D01*
X105325010Y-115259697D01*
X104932370Y-114866371D01*
X104419100Y-114653243D01*
X103863339Y-114652758D01*
X103349697Y-114864990D01*
X102956371Y-115257630D01*
X102743243Y-115770900D01*
X102742758Y-116326661D01*
X102954990Y-116840303D01*
X103347630Y-117233629D01*
X103772379Y-117410000D01*
X92506794Y-117410000D01*
X92930303Y-117235010D01*
X93323629Y-116842370D01*
X93536757Y-116329100D01*
X93537242Y-115773339D01*
X93325010Y-115259697D01*
X92932370Y-114866371D01*
X92419100Y-114653243D01*
X91863339Y-114652758D01*
X91349697Y-114864990D01*
X90956371Y-115257630D01*
X90743243Y-115770900D01*
X90742758Y-116326661D01*
X90954990Y-116840303D01*
X91347630Y-117233629D01*
X91772379Y-117410000D01*
X77554802Y-117410000D01*
X69193737Y-109048935D01*
X69193737Y-102135167D01*
X82974838Y-102135167D01*
X83116883Y-102478943D01*
X83379673Y-102742192D01*
X83590000Y-102829528D01*
X83590000Y-108837537D01*
X83557808Y-108869673D01*
X83415162Y-109213201D01*
X83414838Y-109585167D01*
X83556883Y-109928943D01*
X83819673Y-110192192D01*
X84163201Y-110334838D01*
X84535167Y-110335162D01*
X84878943Y-110193117D01*
X85142192Y-109930327D01*
X85284838Y-109586799D01*
X85285162Y-109214833D01*
X85143117Y-108871057D01*
X85110000Y-108837882D01*
X85110000Y-102390000D01*
X85052148Y-102099161D01*
X84887401Y-101852599D01*
X84845122Y-101810320D01*
X84845162Y-101764833D01*
X84703117Y-101421057D01*
X84440327Y-101157808D01*
X84096799Y-101015162D01*
X83724833Y-101014838D01*
X83381057Y-101156883D01*
X83117808Y-101419673D01*
X82975162Y-101763201D01*
X82974838Y-102135167D01*
X69193737Y-102135167D01*
X69193737Y-72919802D01*
X71642249Y-75368314D01*
X71716883Y-75548943D01*
X71979673Y-75812192D01*
X72323201Y-75954838D01*
X72695167Y-75955162D01*
X72808978Y-75908136D01*
X72808978Y-82020390D01*
X72866830Y-82311229D01*
X73031577Y-82557791D01*
X76496197Y-86022411D01*
X76742759Y-86187158D01*
X77033598Y-86245010D01*
X81954990Y-86245010D01*
X82245829Y-86187158D01*
X82492391Y-86022411D01*
X87299680Y-81215122D01*
X87345167Y-81215162D01*
X87688943Y-81073117D01*
X87952192Y-80810327D01*
X88094838Y-80466799D01*
X88095162Y-80094833D01*
X88008133Y-79884205D01*
X88112192Y-79780327D01*
X88254838Y-79436799D01*
X88255162Y-79064833D01*
X88113117Y-78721057D01*
X87850327Y-78457808D01*
X87506799Y-78315162D01*
X87134833Y-78314838D01*
X86791057Y-78456883D01*
X86723578Y-78524245D01*
X86604896Y-78547852D01*
X86358335Y-78712599D01*
X82862599Y-82208335D01*
X82697852Y-82454897D01*
X82640000Y-82745736D01*
X82640000Y-83088788D01*
X81453788Y-84275000D01*
X77534801Y-84275001D01*
X75180000Y-81920200D01*
X75180000Y-77835097D01*
X75255167Y-77835162D01*
X75598943Y-77693117D01*
X75862192Y-77430327D01*
X76004838Y-77086799D01*
X76004879Y-77039923D01*
X76267401Y-76777401D01*
X76432148Y-76530839D01*
X76490000Y-76240000D01*
X76490000Y-75399800D01*
X77770000Y-76679800D01*
X77770000Y-77367537D01*
X77737808Y-77399673D01*
X77595162Y-77743201D01*
X77594838Y-78115167D01*
X77736883Y-78458943D01*
X77999673Y-78722192D01*
X78343201Y-78864838D01*
X78395001Y-78864883D01*
X78395001Y-81777537D01*
X78362809Y-81809673D01*
X78220163Y-82153201D01*
X78219839Y-82525167D01*
X78361884Y-82868943D01*
X78624674Y-83132192D01*
X78968202Y-83274838D01*
X79340168Y-83275162D01*
X79683944Y-83133117D01*
X79947193Y-82870327D01*
X80089839Y-82526799D01*
X80090163Y-82154833D01*
X79948118Y-81811057D01*
X79915001Y-81777882D01*
X79915001Y-75805001D01*
X79857149Y-75514162D01*
X79692402Y-75267600D01*
X79485122Y-75060320D01*
X79485162Y-75014833D01*
X79343117Y-74671057D01*
X79080327Y-74407808D01*
X78736799Y-74265162D01*
X78364833Y-74264838D01*
X78021057Y-74406883D01*
X77833709Y-74593905D01*
X76577272Y-73337468D01*
X76590000Y-73340000D01*
X108515198Y-73340000D01*
X113024878Y-77849680D01*
X113024838Y-77895167D01*
X113166883Y-78238943D01*
X113429673Y-78502192D01*
X113773201Y-78644838D01*
X114145167Y-78645162D01*
X114488943Y-78503117D01*
X114752192Y-78240327D01*
X114894838Y-77896799D01*
X114895162Y-77524833D01*
X114753117Y-77181057D01*
X114490327Y-76917808D01*
X114146799Y-76775162D01*
X114099923Y-76775121D01*
X109689812Y-72365010D01*
X114790208Y-72365010D01*
X115384878Y-72959680D01*
X115384838Y-73005167D01*
X115526883Y-73348943D01*
X115789673Y-73612192D01*
X116133201Y-73754838D01*
X116505167Y-73755162D01*
X116848943Y-73613117D01*
X117112192Y-73350327D01*
X117254838Y-73006799D01*
X117255162Y-72634833D01*
X117113117Y-72291057D01*
X116850327Y-72027808D01*
X116506799Y-71885162D01*
X116459923Y-71885121D01*
X115642411Y-71067609D01*
X115395849Y-70902862D01*
X115105010Y-70845010D01*
X114714883Y-70845010D01*
X114715162Y-70524833D01*
X114573117Y-70181057D01*
X114540000Y-70147882D01*
X114540000Y-68279800D01*
X119863689Y-62956111D01*
X119919673Y-63012192D01*
X120263201Y-63154838D01*
X120635167Y-63155162D01*
X120978943Y-63013117D01*
X121242192Y-62750327D01*
X121384838Y-62406799D01*
X121384879Y-62359923D01*
X122544802Y-61200000D01*
X128047537Y-61200000D01*
X128079673Y-61232192D01*
X128423201Y-61374838D01*
X128795167Y-61375162D01*
X129138943Y-61233117D01*
X129345001Y-61027418D01*
X129345001Y-61030197D01*
X127938501Y-62436697D01*
X127886745Y-62415206D01*
X127415323Y-62414794D01*
X126979628Y-62594820D01*
X126645991Y-62927875D01*
X126465206Y-63363255D01*
X126464794Y-63834677D01*
X126486935Y-63888263D01*
X124805198Y-65570000D01*
X120702463Y-65570000D01*
X120670327Y-65537808D01*
X120326799Y-65395162D01*
X119954833Y-65394838D01*
X119611057Y-65536883D01*
X119347808Y-65799673D01*
X119205162Y-66143201D01*
X119204838Y-66515167D01*
X119346883Y-66858943D01*
X119609673Y-67122192D01*
X119953201Y-67264838D01*
X120325167Y-67265162D01*
X120668943Y-67123117D01*
X120702118Y-67090000D01*
X125120000Y-67090000D01*
X125410839Y-67032148D01*
X125657401Y-66867401D01*
X127739723Y-64785079D01*
X127884677Y-64785206D01*
X128320372Y-64605180D01*
X128654009Y-64272125D01*
X128834794Y-63836745D01*
X128834922Y-63689880D01*
X130642402Y-61882400D01*
X130807149Y-61635838D01*
X130865001Y-61344999D01*
X130865001Y-45929265D01*
X130807149Y-45638426D01*
X130642402Y-45391864D01*
X130516231Y-45265693D01*
X130544838Y-45196799D01*
X130545162Y-44824833D01*
X130403117Y-44481057D01*
X130140327Y-44217808D01*
X129796799Y-44075162D01*
X129424833Y-44074838D01*
X129081057Y-44216883D01*
X128817808Y-44479673D01*
X128675162Y-44823201D01*
X128674838Y-45195167D01*
X128816883Y-45538943D01*
X128884245Y-45606422D01*
X128907852Y-45725103D01*
X129072599Y-45971665D01*
X129345001Y-46244067D01*
X129345001Y-58673434D01*
X129253117Y-58451057D01*
X128990327Y-58187808D01*
X128646799Y-58045162D01*
X128274833Y-58044838D01*
X127931057Y-58186883D01*
X127897882Y-58220000D01*
X110160000Y-58220000D01*
X109869160Y-58277852D01*
X109622599Y-58442599D01*
X107720320Y-60344878D01*
X107674833Y-60344838D01*
X107331057Y-60486883D01*
X107067808Y-60749673D01*
X106925162Y-61093201D01*
X106924838Y-61465167D01*
X107066883Y-61808943D01*
X107329673Y-62072192D01*
X107673201Y-62214838D01*
X108045167Y-62215162D01*
X108114421Y-62186547D01*
X108339673Y-62412192D01*
X108683201Y-62554838D01*
X109055167Y-62555162D01*
X109398943Y-62413117D01*
X109662192Y-62150327D01*
X109804838Y-61806799D01*
X109804879Y-61759923D01*
X111074802Y-60490000D01*
X118924882Y-60490000D01*
X118924838Y-60540167D01*
X118930742Y-60554456D01*
X116290320Y-63194878D01*
X116244833Y-63194838D01*
X115901057Y-63336883D01*
X115637808Y-63599673D01*
X115495162Y-63943201D01*
X115494838Y-64315167D01*
X115636883Y-64658943D01*
X115823905Y-64846291D01*
X113242599Y-67427597D01*
X113077852Y-67674159D01*
X113020000Y-67964998D01*
X113020000Y-70147537D01*
X112987808Y-70179673D01*
X112845162Y-70523201D01*
X112844882Y-70845010D01*
X96764990Y-70845010D01*
X96834838Y-70676799D01*
X96835162Y-70304833D01*
X96693117Y-69961057D01*
X96430327Y-69697808D01*
X96355445Y-69666714D01*
X96562192Y-69460327D01*
X96704838Y-69116799D01*
X96705162Y-68744833D01*
X96563117Y-68401057D01*
X96530000Y-68367882D01*
X96530000Y-67198004D01*
X96763201Y-67294838D01*
X97135167Y-67295162D01*
X97478943Y-67153117D01*
X97742192Y-66890327D01*
X97884838Y-66546799D01*
X97885022Y-66335167D01*
X104294838Y-66335167D01*
X104436883Y-66678943D01*
X104699673Y-66942192D01*
X105043201Y-67084838D01*
X105415167Y-67085162D01*
X105758943Y-66943117D01*
X105792118Y-66910000D01*
X111640000Y-66910000D01*
X111930839Y-66852148D01*
X112031213Y-66785080D01*
X112125167Y-66785162D01*
X112468943Y-66643117D01*
X112732192Y-66380327D01*
X112874838Y-66036799D01*
X112875162Y-65664833D01*
X112733117Y-65321057D01*
X112470327Y-65057808D01*
X112126799Y-64915162D01*
X111754833Y-64914838D01*
X111411057Y-65056883D01*
X111147808Y-65319673D01*
X111118606Y-65390000D01*
X105792463Y-65390000D01*
X105760327Y-65357808D01*
X105416799Y-65215162D01*
X105044833Y-65214838D01*
X104701057Y-65356883D01*
X104437808Y-65619673D01*
X104295162Y-65963201D01*
X104294838Y-66335167D01*
X97885022Y-66335167D01*
X97885162Y-66174833D01*
X97743117Y-65831057D01*
X97710000Y-65797882D01*
X97710000Y-60113590D01*
X97664535Y-59885022D01*
X97825167Y-59885162D01*
X98168943Y-59743117D01*
X98417964Y-59494530D01*
X98563201Y-59554838D01*
X98935167Y-59555162D01*
X99278943Y-59413117D01*
X99542192Y-59150327D01*
X99684838Y-58806799D01*
X99685162Y-58434833D01*
X99543117Y-58091057D01*
X99280327Y-57827808D01*
X98936799Y-57685162D01*
X98889923Y-57685121D01*
X98850010Y-57645208D01*
X98850010Y-53976735D01*
X98891368Y-54038632D01*
X99308252Y-54317185D01*
X99800000Y-54415000D01*
X100291748Y-54317185D01*
X100708632Y-54038632D01*
X109602264Y-45145000D01*
X115550000Y-45145000D01*
X116041748Y-45047185D01*
X116458632Y-44768632D01*
X116737185Y-44351748D01*
X116835000Y-43860000D01*
X116737185Y-43368252D01*
X116458632Y-42951368D01*
X116041748Y-42672815D01*
X115550000Y-42575000D01*
X109070000Y-42575000D01*
X108578252Y-42672815D01*
X108161368Y-42951368D01*
X98891368Y-52221368D01*
X98850010Y-52283265D01*
X98850010Y-48764792D01*
X108730615Y-38884187D01*
X126214752Y-38884187D01*
X126432757Y-39411800D01*
X126836077Y-39815824D01*
X127363309Y-40034750D01*
X127934187Y-40035248D01*
X128461800Y-39817243D01*
X128865824Y-39413923D01*
X129084750Y-38886691D01*
X129085248Y-38315813D01*
X128867243Y-37788200D01*
X128463923Y-37384176D01*
X127936691Y-37165250D01*
X127365813Y-37164752D01*
X126838200Y-37382757D01*
X126434176Y-37786077D01*
X126215250Y-38313309D01*
X126214752Y-38884187D01*
X108730615Y-38884187D01*
X114944802Y-32670000D01*
X152200200Y-32670000D01*
X179080000Y-59549800D01*
X179080000Y-89240000D01*
X179137852Y-89530839D01*
X179302599Y-89777401D01*
X190754998Y-101229800D01*
X190745241Y-101253298D01*
X190744760Y-101804285D01*
X190955169Y-102313515D01*
X191344436Y-102703461D01*
X191853298Y-102914759D01*
X192404285Y-102915240D01*
X192913515Y-102704831D01*
X193303461Y-102315564D01*
X193514759Y-101806702D01*
X193515240Y-101255715D01*
X193304831Y-100746485D01*
X192915564Y-100356539D01*
X192406702Y-100145241D01*
X191855715Y-100144760D01*
X191830132Y-100155330D01*
X185881463Y-94206661D01*
X190732758Y-94206661D01*
X190944990Y-94720303D01*
X191337630Y-95113629D01*
X191850900Y-95326757D01*
X192406661Y-95327242D01*
X192920303Y-95115010D01*
X193313629Y-94722370D01*
X193526757Y-94209100D01*
X193527242Y-93653339D01*
X193315010Y-93139697D01*
X192922370Y-92746371D01*
X192890000Y-92732930D01*
X192890000Y-82162271D01*
X193032192Y-82020327D01*
X193174838Y-81676799D01*
X193175162Y-81304833D01*
X193033117Y-80961057D01*
X192770327Y-80697808D01*
X192426799Y-80555162D01*
X192054833Y-80554838D01*
X191711057Y-80696883D01*
X191447808Y-80959673D01*
X191305162Y-81303201D01*
X191304838Y-81675167D01*
X191370000Y-81832871D01*
X191370000Y-92732469D01*
X191339697Y-92744990D01*
X190946371Y-93137630D01*
X190733243Y-93650900D01*
X190732758Y-94206661D01*
X185881463Y-94206661D01*
X180600000Y-88925198D01*
X180600000Y-60433390D01*
X200490000Y-80323390D01*
X200490000Y-121377707D01*
X200360327Y-121247808D01*
X200016799Y-121105162D01*
X199644833Y-121104838D01*
X199301057Y-121246883D01*
X199037808Y-121509673D01*
X198895162Y-121853201D01*
X198894838Y-122225167D01*
X199036883Y-122568943D01*
X199299673Y-122832192D01*
X199643201Y-122974838D01*
X199690077Y-122974879D01*
X200142599Y-123427401D01*
X200389161Y-123592148D01*
X200680000Y-123650000D01*
X201250000Y-123650000D01*
X201540839Y-123592148D01*
X201787401Y-123427401D01*
X201952148Y-123180839D01*
X202010000Y-122890000D01*
X202010000Y-80008588D01*
X201952148Y-79717749D01*
X201787401Y-79471187D01*
X187921237Y-65605023D01*
X188695294Y-65926439D01*
X189979074Y-65927559D01*
X191165561Y-65437313D01*
X192074123Y-64530336D01*
X192566439Y-63344706D01*
X192567559Y-62060926D01*
X192077313Y-60874439D01*
X191170336Y-59965877D01*
X189984706Y-59473561D01*
X188700926Y-59472441D01*
X187514439Y-59962687D01*
X186605877Y-60869664D01*
X186113561Y-62055294D01*
X186112441Y-63339074D01*
X186434337Y-64118123D01*
X153238803Y-30922589D01*
X152992241Y-30757842D01*
X152701402Y-30699990D01*
X107340010Y-30699990D01*
X107049170Y-30757842D01*
X106802609Y-30922589D01*
X97510000Y-40215198D01*
X97510000Y-39402376D01*
X97592192Y-39320327D01*
X97734838Y-38976799D01*
X97735162Y-38604833D01*
X97593117Y-38261057D01*
X97330327Y-37997808D01*
X96986799Y-37855162D01*
X96909999Y-37855095D01*
X96909999Y-37197507D01*
X96917192Y-37190327D01*
X97059838Y-36846799D01*
X97060162Y-36474833D01*
X96918117Y-36131057D01*
X96655327Y-35867808D01*
X96311799Y-35725162D01*
X96260000Y-35725117D01*
X96260000Y-32062463D01*
X96292192Y-32030327D01*
X96434838Y-31686799D01*
X96435162Y-31314833D01*
X96293117Y-30971057D01*
X96030327Y-30707808D01*
X95686799Y-30565162D01*
X95314833Y-30564838D01*
X94971057Y-30706883D01*
X94707808Y-30969673D01*
X94565162Y-31313201D01*
X94564838Y-31685167D01*
X94706883Y-32028943D01*
X94740000Y-32062118D01*
X94740000Y-54719231D01*
X94431057Y-54846883D01*
X94167808Y-55109673D01*
X94025162Y-55453201D01*
X94024838Y-55825167D01*
X94166883Y-56168943D01*
X94429673Y-56432192D01*
X94773201Y-56574838D01*
X94914969Y-56574961D01*
X94914838Y-56725167D01*
X95056883Y-57068943D01*
X95319673Y-57332192D01*
X95663201Y-57474838D01*
X95847635Y-57474999D01*
X95815162Y-57553201D01*
X95814857Y-57903645D01*
X92270000Y-54358788D01*
X92270000Y-53412463D01*
X92302192Y-53380327D01*
X92444838Y-53036799D01*
X92445162Y-52664833D01*
X92303117Y-52321057D01*
X92040327Y-52057808D01*
X91696799Y-51915162D01*
X91324833Y-51914838D01*
X90981057Y-52056883D01*
X90717808Y-52319673D01*
X90575162Y-52663201D01*
X90574838Y-53035167D01*
X90716883Y-53378943D01*
X90750000Y-53412118D01*
X90750000Y-53475198D01*
X72144802Y-34870000D01*
X90645907Y-34870000D01*
X90758946Y-35438285D01*
X91080853Y-35920054D01*
X91410026Y-36140000D01*
X91080853Y-36359946D01*
X90758946Y-36841715D01*
X90645907Y-37410000D01*
X90758946Y-37978285D01*
X91080853Y-38460054D01*
X91410026Y-38680000D01*
X91080853Y-38899946D01*
X90758946Y-39381715D01*
X90645907Y-39950000D01*
X90758946Y-40518285D01*
X91080853Y-41000054D01*
X91410026Y-41220000D01*
X91080853Y-41439946D01*
X90758946Y-41921715D01*
X90645907Y-42490000D01*
X90758946Y-43058285D01*
X91080853Y-43540054D01*
X91410026Y-43760000D01*
X91080853Y-43979946D01*
X90758946Y-44461715D01*
X90645907Y-45030000D01*
X90758946Y-45598285D01*
X91080853Y-46080054D01*
X91410026Y-46300000D01*
X91080853Y-46519946D01*
X90758946Y-47001715D01*
X90645907Y-47570000D01*
X90758946Y-48138285D01*
X91080853Y-48620054D01*
X91410026Y-48840000D01*
X91080853Y-49059946D01*
X90758946Y-49541715D01*
X90645907Y-50110000D01*
X90758946Y-50678285D01*
X91080853Y-51160054D01*
X91562622Y-51481961D01*
X92130907Y-51595000D01*
X92189093Y-51595000D01*
X92757378Y-51481961D01*
X93239147Y-51160054D01*
X93561054Y-50678285D01*
X93674093Y-50110000D01*
X93561054Y-49541715D01*
X93239147Y-49059946D01*
X92909974Y-48840000D01*
X93239147Y-48620054D01*
X93561054Y-48138285D01*
X93674093Y-47570000D01*
X93561054Y-47001715D01*
X93239147Y-46519946D01*
X92909974Y-46300000D01*
X93239147Y-46080054D01*
X93561054Y-45598285D01*
X93674093Y-45030000D01*
X93561054Y-44461715D01*
X93239147Y-43979946D01*
X92909974Y-43760000D01*
X93239147Y-43540054D01*
X93561054Y-43058285D01*
X93674093Y-42490000D01*
X93561054Y-41921715D01*
X93239147Y-41439946D01*
X92909974Y-41220000D01*
X93239147Y-41000054D01*
X93561054Y-40518285D01*
X93674093Y-39950000D01*
X93561054Y-39381715D01*
X93239147Y-38899946D01*
X92909974Y-38680000D01*
X93239147Y-38460054D01*
X93561054Y-37978285D01*
X93674093Y-37410000D01*
X93561054Y-36841715D01*
X93239147Y-36359946D01*
X92909974Y-36140000D01*
X93239147Y-35920054D01*
X93561054Y-35438285D01*
X93674093Y-34870000D01*
X93561054Y-34301715D01*
X93239147Y-33819946D01*
X93197548Y-33792150D01*
X93245317Y-33783162D01*
X93461441Y-33644090D01*
X93606431Y-33431890D01*
X93657440Y-33180000D01*
X93657440Y-31480000D01*
X93613162Y-31244683D01*
X93474090Y-31028559D01*
X93261890Y-30883569D01*
X93010000Y-30832560D01*
X91310000Y-30832560D01*
X91074683Y-30876838D01*
X90858559Y-31015910D01*
X90713569Y-31228110D01*
X90662560Y-31480000D01*
X90662560Y-33180000D01*
X90706838Y-33415317D01*
X90845910Y-33631441D01*
X91058110Y-33776431D01*
X91125541Y-33790086D01*
X91080853Y-33819946D01*
X90758946Y-34301715D01*
X90645907Y-34870000D01*
X72144802Y-34870000D01*
X66635122Y-29360320D01*
X66635162Y-29314833D01*
X66493117Y-28971057D01*
X66322358Y-28800000D01*
X203720000Y-28800000D01*
X203720000Y-127380000D01*
X203720000Y-127380000D01*
G37*
X203720000Y-127380000D02*
X170813804Y-127380000D01*
X172698054Y-125495750D01*
X178985000Y-125495750D01*
X178985000Y-126186309D01*
X179081673Y-126419698D01*
X179260301Y-126598327D01*
X179493690Y-126695000D01*
X180184250Y-126695000D01*
X180343000Y-126536250D01*
X180343000Y-125337000D01*
X179143750Y-125337000D01*
X178985000Y-125495750D01*
X172698054Y-125495750D01*
X173960113Y-124233691D01*
X178985000Y-124233691D01*
X178985000Y-124924250D01*
X179143750Y-125083000D01*
X180343000Y-125083000D01*
X180343000Y-123883750D01*
X180597000Y-123883750D01*
X180597000Y-125083000D01*
X180617000Y-125083000D01*
X180617000Y-125337000D01*
X180597000Y-125337000D01*
X180597000Y-126536250D01*
X180755750Y-126695000D01*
X181446310Y-126695000D01*
X181679699Y-126598327D01*
X181858327Y-126419698D01*
X181930597Y-126245223D01*
X181959946Y-126289147D01*
X182441715Y-126611054D01*
X183010000Y-126724093D01*
X183578285Y-126611054D01*
X184060054Y-126289147D01*
X184280000Y-125959974D01*
X184499946Y-126289147D01*
X184981715Y-126611054D01*
X185550000Y-126724093D01*
X186118285Y-126611054D01*
X186600054Y-126289147D01*
X186820000Y-125959974D01*
X187039946Y-126289147D01*
X187521715Y-126611054D01*
X188090000Y-126724093D01*
X188658285Y-126611054D01*
X189140054Y-126289147D01*
X189461961Y-125807378D01*
X189575000Y-125239093D01*
X189575000Y-125180907D01*
X189461961Y-124612622D01*
X189420119Y-124550000D01*
X193692560Y-124550000D01*
X193692560Y-126250000D01*
X193736838Y-126485317D01*
X193875910Y-126701441D01*
X194088110Y-126846431D01*
X194340000Y-126897440D01*
X196040000Y-126897440D01*
X196275317Y-126853162D01*
X196491441Y-126714090D01*
X196636431Y-126501890D01*
X196650086Y-126434459D01*
X196679946Y-126479147D01*
X197161715Y-126801054D01*
X197730000Y-126914093D01*
X198298285Y-126801054D01*
X198780054Y-126479147D01*
X199101961Y-125997378D01*
X199215000Y-125429093D01*
X199215000Y-125370907D01*
X199101961Y-124802622D01*
X198780054Y-124320853D01*
X198298285Y-123998946D01*
X197730000Y-123885907D01*
X197161715Y-123998946D01*
X196679946Y-124320853D01*
X196652150Y-124362452D01*
X196643162Y-124314683D01*
X196504090Y-124098559D01*
X196291890Y-123953569D01*
X196040000Y-123902560D01*
X194340000Y-123902560D01*
X194104683Y-123946838D01*
X193888559Y-124085910D01*
X193743569Y-124298110D01*
X193692560Y-124550000D01*
X189420119Y-124550000D01*
X189140054Y-124130853D01*
X188658285Y-123808946D01*
X188090000Y-123695907D01*
X187521715Y-123808946D01*
X187039946Y-124130853D01*
X186820000Y-124460026D01*
X186600054Y-124130853D01*
X186118285Y-123808946D01*
X185550000Y-123695907D01*
X184981715Y-123808946D01*
X184499946Y-124130853D01*
X184280000Y-124460026D01*
X184060054Y-124130853D01*
X183578285Y-123808946D01*
X183010000Y-123695907D01*
X182441715Y-123808946D01*
X181959946Y-124130853D01*
X181930597Y-124174777D01*
X181858327Y-124000302D01*
X181679699Y-123821673D01*
X181446310Y-123725000D01*
X180755750Y-123725000D01*
X180597000Y-123883750D01*
X180343000Y-123883750D01*
X180184250Y-123725000D01*
X179493690Y-123725000D01*
X179260301Y-123821673D01*
X179081673Y-124000302D01*
X178985000Y-124233691D01*
X173960113Y-124233691D01*
X177147401Y-121046403D01*
X177312148Y-120799842D01*
X177370000Y-120509002D01*
X177370000Y-106500000D01*
X177312148Y-106209161D01*
X177147401Y-105962599D01*
X171787401Y-100602599D01*
X171540839Y-100437852D01*
X171250000Y-100380000D01*
X166352463Y-100380000D01*
X166320327Y-100347808D01*
X165976799Y-100205162D01*
X165604833Y-100204838D01*
X165261057Y-100346883D01*
X164997808Y-100609673D01*
X164855162Y-100953201D01*
X164854838Y-101325167D01*
X164996883Y-101668943D01*
X165237520Y-101910000D01*
X151800000Y-101910000D01*
X151509161Y-101967852D01*
X151262599Y-102132599D01*
X150745198Y-102650000D01*
X116214802Y-102650000D01*
X115929152Y-102364350D01*
X116028943Y-102323117D01*
X116292192Y-102060327D01*
X116434838Y-101716799D01*
X116435162Y-101344833D01*
X116293117Y-101001057D01*
X116060000Y-100767533D01*
X116060000Y-96200000D01*
X116002148Y-95909161D01*
X115837401Y-95662599D01*
X112762247Y-92587445D01*
X113038943Y-92473117D01*
X113302192Y-92210327D01*
X113444838Y-91866799D01*
X113445162Y-91494833D01*
X113303117Y-91151057D01*
X113270000Y-91117882D01*
X113270000Y-90465167D01*
X113544838Y-90465167D01*
X113686883Y-90808943D01*
X113949673Y-91072192D01*
X114293201Y-91214838D01*
X114665167Y-91215162D01*
X115008943Y-91073117D01*
X115272192Y-90810327D01*
X115414838Y-90466799D01*
X115414879Y-90419923D01*
X116367401Y-89467401D01*
X116450000Y-89343783D01*
X116450000Y-89801008D01*
X116507852Y-90091847D01*
X116672599Y-90338409D01*
X119508291Y-93174101D01*
X119245808Y-93349487D01*
X118941025Y-93805626D01*
X118834000Y-94343679D01*
X118834000Y-95416321D01*
X118941025Y-95954374D01*
X119245808Y-96410513D01*
X119701947Y-96715296D01*
X120240000Y-96822321D01*
X120547378Y-96761180D01*
X122393599Y-98607401D01*
X122640161Y-98772148D01*
X122931000Y-98830000D01*
X128039462Y-98830000D01*
X130533769Y-101324307D01*
X130505162Y-101393201D01*
X130504838Y-101765167D01*
X130646883Y-102108943D01*
X130909673Y-102372192D01*
X131253201Y-102514838D01*
X131625167Y-102515162D01*
X131968943Y-102373117D01*
X132232192Y-102110327D01*
X132374838Y-101766799D01*
X132375162Y-101394833D01*
X132233117Y-101051057D01*
X132165755Y-100983578D01*
X132142148Y-100864897D01*
X131977401Y-100618335D01*
X128891665Y-97532599D01*
X128645103Y-97367852D01*
X128354264Y-97310000D01*
X123245802Y-97310000D01*
X123170812Y-97235010D01*
X124232990Y-97235010D01*
X124523829Y-97177158D01*
X124770391Y-97012411D01*
X125020129Y-96762673D01*
X125320000Y-96822321D01*
X125854609Y-96715981D01*
X126307828Y-96413149D01*
X126610660Y-95959930D01*
X126717000Y-95425321D01*
X126717000Y-94334679D01*
X126610660Y-93800070D01*
X126307828Y-93346851D01*
X125854609Y-93044019D01*
X125320000Y-92937679D01*
X124785391Y-93044019D01*
X124332172Y-93346851D01*
X124050000Y-93769150D01*
X123960000Y-93634456D01*
X123960000Y-89362463D01*
X123992192Y-89330327D01*
X124134838Y-88986799D01*
X124135162Y-88614833D01*
X123993117Y-88271057D01*
X123730327Y-88007808D01*
X123386799Y-87865162D01*
X123014833Y-87864838D01*
X122671057Y-88006883D01*
X122407808Y-88269673D01*
X122265162Y-88613201D01*
X122264838Y-88985167D01*
X122406883Y-89328943D01*
X122440000Y-89362118D01*
X122440000Y-91205198D01*
X120577400Y-89342598D01*
X120330838Y-89177851D01*
X120039999Y-89119999D01*
X118741603Y-89119999D01*
X118713117Y-89051057D01*
X118587878Y-88925599D01*
X118923201Y-89064838D01*
X119295167Y-89065162D01*
X119638943Y-88923117D01*
X119672118Y-88890000D01*
X120560000Y-88890000D01*
X120850839Y-88832148D01*
X121097401Y-88667401D01*
X124169680Y-85595122D01*
X124215167Y-85595162D01*
X124558943Y-85453117D01*
X124822192Y-85190327D01*
X124964838Y-84846799D01*
X124964940Y-84730000D01*
X125075198Y-84730000D01*
X125514878Y-85169680D01*
X125514838Y-85215167D01*
X125656883Y-85558943D01*
X125919673Y-85822192D01*
X126263201Y-85964838D01*
X126635167Y-85965162D01*
X126978943Y-85823117D01*
X127242192Y-85560327D01*
X127384838Y-85216799D01*
X127385162Y-84844833D01*
X127243117Y-84501057D01*
X126980327Y-84237808D01*
X126636799Y-84095162D01*
X126589923Y-84095121D01*
X125927401Y-83432599D01*
X125680839Y-83267852D01*
X125390000Y-83210000D01*
X119294998Y-83210000D01*
X119004159Y-83267852D01*
X118757597Y-83432599D01*
X115292599Y-86897597D01*
X115127852Y-87144159D01*
X115070000Y-87434998D01*
X115070000Y-88615198D01*
X114340320Y-89344878D01*
X114294833Y-89344838D01*
X113951057Y-89486883D01*
X113687808Y-89749673D01*
X113545162Y-90093201D01*
X113544838Y-90465167D01*
X113270000Y-90465167D01*
X113270000Y-83410000D01*
X113212148Y-83119161D01*
X113212148Y-83119160D01*
X113047401Y-82872599D01*
X112009969Y-81835167D01*
X115314838Y-81835167D01*
X115456883Y-82178943D01*
X115719673Y-82442192D01*
X116063201Y-82584838D01*
X116435167Y-82585162D01*
X116778943Y-82443117D01*
X117042192Y-82180327D01*
X117184838Y-81836799D01*
X117184879Y-81789923D01*
X120802726Y-78172076D01*
X120846883Y-78278943D01*
X121109673Y-78542192D01*
X121453201Y-78684838D01*
X121825167Y-78685162D01*
X122168943Y-78543117D01*
X122202118Y-78510000D01*
X125975198Y-78510000D01*
X126944878Y-79479680D01*
X126944838Y-79525167D01*
X127086883Y-79868943D01*
X127349673Y-80132192D01*
X127693201Y-80274838D01*
X128065167Y-80275162D01*
X128408943Y-80133117D01*
X128672192Y-79870327D01*
X128814838Y-79526799D01*
X128815162Y-79154833D01*
X128673117Y-78811057D01*
X128410327Y-78547808D01*
X128066799Y-78405162D01*
X128019923Y-78405121D01*
X126827401Y-77212599D01*
X126580839Y-77047852D01*
X126290000Y-76990000D01*
X122202463Y-76990000D01*
X122170327Y-76957808D01*
X122061983Y-76912819D01*
X123324802Y-75650000D01*
X126447537Y-75650000D01*
X126479673Y-75682192D01*
X126823201Y-75824838D01*
X127195167Y-75825162D01*
X127538943Y-75683117D01*
X127752560Y-75469872D01*
X127752560Y-75500000D01*
X127796838Y-75735317D01*
X127935910Y-75951441D01*
X128148110Y-76096431D01*
X128400000Y-76147440D01*
X130100000Y-76147440D01*
X130335317Y-76103162D01*
X130551441Y-75964090D01*
X130696431Y-75751890D01*
X130710086Y-75684459D01*
X130739946Y-75729147D01*
X131221715Y-76051054D01*
X131790000Y-76164093D01*
X132358285Y-76051054D01*
X132840054Y-75729147D01*
X133161961Y-75247378D01*
X133275000Y-74679093D01*
X133275000Y-74620907D01*
X133161961Y-74052622D01*
X132840054Y-73570853D01*
X132358285Y-73248946D01*
X131790000Y-73135907D01*
X131221715Y-73248946D01*
X130739946Y-73570853D01*
X130712150Y-73612452D01*
X130703162Y-73564683D01*
X130564090Y-73348559D01*
X130351890Y-73203569D01*
X130100000Y-73152560D01*
X128400000Y-73152560D01*
X128164683Y-73196838D01*
X127948559Y-73335910D01*
X127803569Y-73548110D01*
X127752560Y-73800000D01*
X127752560Y-74310412D01*
X127540327Y-74097808D01*
X127196799Y-73955162D01*
X126824833Y-73954838D01*
X126481057Y-74096883D01*
X126447882Y-74130000D01*
X123010000Y-74130000D01*
X122719161Y-74187852D01*
X122472599Y-74352599D01*
X116110320Y-80714878D01*
X116064833Y-80714838D01*
X115721057Y-80856883D01*
X115457808Y-81119673D01*
X115315162Y-81463201D01*
X115314838Y-81835167D01*
X112009969Y-81835167D01*
X104715122Y-74540320D01*
X104715162Y-74494833D01*
X104573117Y-74151057D01*
X104310327Y-73887808D01*
X103966799Y-73745162D01*
X103594833Y-73744838D01*
X103251057Y-73886883D01*
X102987808Y-74149673D01*
X102845162Y-74493201D01*
X102844838Y-74865167D01*
X102986883Y-75208943D01*
X103102779Y-75325042D01*
X102907808Y-75519673D01*
X102875000Y-75598683D01*
X102875000Y-75150000D01*
X102777185Y-74658252D01*
X102498632Y-74241368D01*
X102081748Y-73962815D01*
X101590000Y-73865000D01*
X101098252Y-73962815D01*
X100681368Y-74241368D01*
X100402815Y-74658252D01*
X100305000Y-75150000D01*
X100305000Y-84357736D01*
X87041368Y-97621368D01*
X86762815Y-98038252D01*
X86665000Y-98530000D01*
X86665000Y-108797736D01*
X86211368Y-109251368D01*
X85932815Y-109668252D01*
X85835000Y-110160000D01*
X85932815Y-110651748D01*
X86211368Y-111068632D01*
X86628252Y-111347185D01*
X87120000Y-111445000D01*
X87611748Y-111347185D01*
X88028632Y-111068632D01*
X88858632Y-110238632D01*
X89137185Y-109821748D01*
X89235000Y-109330000D01*
X89235000Y-104126661D01*
X90742758Y-104126661D01*
X90954990Y-104640303D01*
X91347630Y-105033629D01*
X91860900Y-105246757D01*
X92416661Y-105247242D01*
X92930303Y-105035010D01*
X93323629Y-104642370D01*
X93536757Y-104129100D01*
X93536759Y-104126661D01*
X102742758Y-104126661D01*
X102954990Y-104640303D01*
X103347630Y-105033629D01*
X103860900Y-105246757D01*
X104416661Y-105247242D01*
X104930303Y-105035010D01*
X105323629Y-104642370D01*
X105536757Y-104129100D01*
X105537242Y-103573339D01*
X105325010Y-103059697D01*
X104932370Y-102666371D01*
X104419100Y-102453243D01*
X103863339Y-102452758D01*
X103349697Y-102664990D01*
X102956371Y-103057630D01*
X102743243Y-103570900D01*
X102742758Y-104126661D01*
X93536759Y-104126661D01*
X93537242Y-103573339D01*
X93325010Y-103059697D01*
X92932370Y-102666371D01*
X92419100Y-102453243D01*
X91863339Y-102452758D01*
X91349697Y-102664990D01*
X90956371Y-103057630D01*
X90743243Y-103570900D01*
X90742758Y-104126661D01*
X89235000Y-104126661D01*
X89235000Y-102126661D01*
X96742758Y-102126661D01*
X96954990Y-102640303D01*
X97347630Y-103033629D01*
X97860900Y-103246757D01*
X98416661Y-103247242D01*
X98930303Y-103035010D01*
X99323629Y-102642370D01*
X99536757Y-102129100D01*
X99537242Y-101573339D01*
X99325010Y-101059697D01*
X98932370Y-100666371D01*
X98419100Y-100453243D01*
X97863339Y-100452758D01*
X97349697Y-100664990D01*
X96956371Y-101057630D01*
X96743243Y-101570900D01*
X96742758Y-102126661D01*
X89235000Y-102126661D01*
X89235000Y-99062264D01*
X98585903Y-89711361D01*
X98646883Y-89858943D01*
X98909673Y-90122192D01*
X99253201Y-90264838D01*
X99300077Y-90264879D01*
X104300311Y-95265113D01*
X103984833Y-95264838D01*
X103641057Y-95406883D01*
X103607882Y-95440000D01*
X99520000Y-95440000D01*
X99229161Y-95497852D01*
X98982599Y-95662599D01*
X97860320Y-96784878D01*
X97814833Y-96784838D01*
X97471057Y-96926883D01*
X97207808Y-97189673D01*
X97065162Y-97533201D01*
X97064838Y-97905167D01*
X97206883Y-98248943D01*
X97469673Y-98512192D01*
X97813201Y-98654838D01*
X98185167Y-98655162D01*
X98528943Y-98513117D01*
X98792192Y-98250327D01*
X98934838Y-97906799D01*
X98934879Y-97859923D01*
X99834802Y-96960000D01*
X103607537Y-96960000D01*
X103639673Y-96992192D01*
X103983201Y-97134838D01*
X104355167Y-97135162D01*
X104698943Y-96993117D01*
X104962192Y-96730327D01*
X105104838Y-96386799D01*
X105105114Y-96069916D01*
X119172599Y-110137401D01*
X119419161Y-110302148D01*
X119710000Y-110360000D01*
X123990462Y-110360000D01*
X124587025Y-110956563D01*
X124332172Y-111126851D01*
X124050000Y-111549150D01*
X123767828Y-111126851D01*
X123314609Y-110824019D01*
X122780000Y-110717679D01*
X122245391Y-110824019D01*
X121792172Y-111126851D01*
X121510000Y-111549150D01*
X121227828Y-111126851D01*
X120774609Y-110824019D01*
X120240000Y-110717679D01*
X119705391Y-110824019D01*
X119252172Y-111126851D01*
X118949340Y-111580070D01*
X118843000Y-112114679D01*
X118843000Y-113205321D01*
X118949340Y-113739930D01*
X119252172Y-114193149D01*
X119705391Y-114495981D01*
X120240000Y-114602321D01*
X120774609Y-114495981D01*
X121227828Y-114193149D01*
X121510000Y-113770850D01*
X121792172Y-114193149D01*
X122245391Y-114495981D01*
X122780000Y-114602321D01*
X123314609Y-114495981D01*
X123767828Y-114193149D01*
X124050000Y-113770850D01*
X124332172Y-114193149D01*
X124785391Y-114495981D01*
X125320000Y-114602321D01*
X125854609Y-114495981D01*
X126307828Y-114193149D01*
X126610660Y-113739930D01*
X126717000Y-113205321D01*
X126717000Y-113086538D01*
X127742864Y-114112402D01*
X127989425Y-114277149D01*
X128280265Y-114335001D01*
X144280199Y-114335001D01*
X147355198Y-117410000D01*
X104506794Y-117410000D01*
X104930303Y-117235010D01*
X105323629Y-116842370D01*
X105536757Y-116329100D01*
X105537242Y-115773339D01*
X105325010Y-115259697D01*
X104932370Y-114866371D01*
X104419100Y-114653243D01*
X103863339Y-114652758D01*
X103349697Y-114864990D01*
X102956371Y-115257630D01*
X102743243Y-115770900D01*
X102742758Y-116326661D01*
X102954990Y-116840303D01*
X103347630Y-117233629D01*
X103772379Y-117410000D01*
X92506794Y-117410000D01*
X92930303Y-117235010D01*
X93323629Y-116842370D01*
X93536757Y-116329100D01*
X93537242Y-115773339D01*
X93325010Y-115259697D01*
X92932370Y-114866371D01*
X92419100Y-114653243D01*
X91863339Y-114652758D01*
X91349697Y-114864990D01*
X90956371Y-115257630D01*
X90743243Y-115770900D01*
X90742758Y-116326661D01*
X90954990Y-116840303D01*
X91347630Y-117233629D01*
X91772379Y-117410000D01*
X77554802Y-117410000D01*
X69193737Y-109048935D01*
X69193737Y-102135167D01*
X82974838Y-102135167D01*
X83116883Y-102478943D01*
X83379673Y-102742192D01*
X83590000Y-102829528D01*
X83590000Y-108837537D01*
X83557808Y-108869673D01*
X83415162Y-109213201D01*
X83414838Y-109585167D01*
X83556883Y-109928943D01*
X83819673Y-110192192D01*
X84163201Y-110334838D01*
X84535167Y-110335162D01*
X84878943Y-110193117D01*
X85142192Y-109930327D01*
X85284838Y-109586799D01*
X85285162Y-109214833D01*
X85143117Y-108871057D01*
X85110000Y-108837882D01*
X85110000Y-102390000D01*
X85052148Y-102099161D01*
X84887401Y-101852599D01*
X84845122Y-101810320D01*
X84845162Y-101764833D01*
X84703117Y-101421057D01*
X84440327Y-101157808D01*
X84096799Y-101015162D01*
X83724833Y-101014838D01*
X83381057Y-101156883D01*
X83117808Y-101419673D01*
X82975162Y-101763201D01*
X82974838Y-102135167D01*
X69193737Y-102135167D01*
X69193737Y-72919802D01*
X71642249Y-75368314D01*
X71716883Y-75548943D01*
X71979673Y-75812192D01*
X72323201Y-75954838D01*
X72695167Y-75955162D01*
X72808978Y-75908136D01*
X72808978Y-82020390D01*
X72866830Y-82311229D01*
X73031577Y-82557791D01*
X76496197Y-86022411D01*
X76742759Y-86187158D01*
X77033598Y-86245010D01*
X81954990Y-86245010D01*
X82245829Y-86187158D01*
X82492391Y-86022411D01*
X87299680Y-81215122D01*
X87345167Y-81215162D01*
X87688943Y-81073117D01*
X87952192Y-80810327D01*
X88094838Y-80466799D01*
X88095162Y-80094833D01*
X88008133Y-79884205D01*
X88112192Y-79780327D01*
X88254838Y-79436799D01*
X88255162Y-79064833D01*
X88113117Y-78721057D01*
X87850327Y-78457808D01*
X87506799Y-78315162D01*
X87134833Y-78314838D01*
X86791057Y-78456883D01*
X86723578Y-78524245D01*
X86604896Y-78547852D01*
X86358335Y-78712599D01*
X82862599Y-82208335D01*
X82697852Y-82454897D01*
X82640000Y-82745736D01*
X82640000Y-83088788D01*
X81453788Y-84275000D01*
X77534801Y-84275001D01*
X75180000Y-81920200D01*
X75180000Y-77835097D01*
X75255167Y-77835162D01*
X75598943Y-77693117D01*
X75862192Y-77430327D01*
X76004838Y-77086799D01*
X76004879Y-77039923D01*
X76267401Y-76777401D01*
X76432148Y-76530839D01*
X76490000Y-76240000D01*
X76490000Y-75399800D01*
X77770000Y-76679800D01*
X77770000Y-77367537D01*
X77737808Y-77399673D01*
X77595162Y-77743201D01*
X77594838Y-78115167D01*
X77736883Y-78458943D01*
X77999673Y-78722192D01*
X78343201Y-78864838D01*
X78395001Y-78864883D01*
X78395001Y-81777537D01*
X78362809Y-81809673D01*
X78220163Y-82153201D01*
X78219839Y-82525167D01*
X78361884Y-82868943D01*
X78624674Y-83132192D01*
X78968202Y-83274838D01*
X79340168Y-83275162D01*
X79683944Y-83133117D01*
X79947193Y-82870327D01*
X80089839Y-82526799D01*
X80090163Y-82154833D01*
X79948118Y-81811057D01*
X79915001Y-81777882D01*
X79915001Y-75805001D01*
X79857149Y-75514162D01*
X79692402Y-75267600D01*
X79485122Y-75060320D01*
X79485162Y-75014833D01*
X79343117Y-74671057D01*
X79080327Y-74407808D01*
X78736799Y-74265162D01*
X78364833Y-74264838D01*
X78021057Y-74406883D01*
X77833709Y-74593905D01*
X76577272Y-73337468D01*
X76590000Y-73340000D01*
X108515198Y-73340000D01*
X113024878Y-77849680D01*
X113024838Y-77895167D01*
X113166883Y-78238943D01*
X113429673Y-78502192D01*
X113773201Y-78644838D01*
X114145167Y-78645162D01*
X114488943Y-78503117D01*
X114752192Y-78240327D01*
X114894838Y-77896799D01*
X114895162Y-77524833D01*
X114753117Y-77181057D01*
X114490327Y-76917808D01*
X114146799Y-76775162D01*
X114099923Y-76775121D01*
X109689812Y-72365010D01*
X114790208Y-72365010D01*
X115384878Y-72959680D01*
X115384838Y-73005167D01*
X115526883Y-73348943D01*
X115789673Y-73612192D01*
X116133201Y-73754838D01*
X116505167Y-73755162D01*
X116848943Y-73613117D01*
X117112192Y-73350327D01*
X117254838Y-73006799D01*
X117255162Y-72634833D01*
X117113117Y-72291057D01*
X116850327Y-72027808D01*
X116506799Y-71885162D01*
X116459923Y-71885121D01*
X115642411Y-71067609D01*
X115395849Y-70902862D01*
X115105010Y-70845010D01*
X114714883Y-70845010D01*
X114715162Y-70524833D01*
X114573117Y-70181057D01*
X114540000Y-70147882D01*
X114540000Y-68279800D01*
X119863689Y-62956111D01*
X119919673Y-63012192D01*
X120263201Y-63154838D01*
X120635167Y-63155162D01*
X120978943Y-63013117D01*
X121242192Y-62750327D01*
X121384838Y-62406799D01*
X121384879Y-62359923D01*
X122544802Y-61200000D01*
X128047537Y-61200000D01*
X128079673Y-61232192D01*
X128423201Y-61374838D01*
X128795167Y-61375162D01*
X129138943Y-61233117D01*
X129345001Y-61027418D01*
X129345001Y-61030197D01*
X127938501Y-62436697D01*
X127886745Y-62415206D01*
X127415323Y-62414794D01*
X126979628Y-62594820D01*
X126645991Y-62927875D01*
X126465206Y-63363255D01*
X126464794Y-63834677D01*
X126486935Y-63888263D01*
X124805198Y-65570000D01*
X120702463Y-65570000D01*
X120670327Y-65537808D01*
X120326799Y-65395162D01*
X119954833Y-65394838D01*
X119611057Y-65536883D01*
X119347808Y-65799673D01*
X119205162Y-66143201D01*
X119204838Y-66515167D01*
X119346883Y-66858943D01*
X119609673Y-67122192D01*
X119953201Y-67264838D01*
X120325167Y-67265162D01*
X120668943Y-67123117D01*
X120702118Y-67090000D01*
X125120000Y-67090000D01*
X125410839Y-67032148D01*
X125657401Y-66867401D01*
X127739723Y-64785079D01*
X127884677Y-64785206D01*
X128320372Y-64605180D01*
X128654009Y-64272125D01*
X128834794Y-63836745D01*
X128834922Y-63689880D01*
X130642402Y-61882400D01*
X130807149Y-61635838D01*
X130865001Y-61344999D01*
X130865001Y-45929265D01*
X130807149Y-45638426D01*
X130642402Y-45391864D01*
X130516231Y-45265693D01*
X130544838Y-45196799D01*
X130545162Y-44824833D01*
X130403117Y-44481057D01*
X130140327Y-44217808D01*
X129796799Y-44075162D01*
X129424833Y-44074838D01*
X129081057Y-44216883D01*
X128817808Y-44479673D01*
X128675162Y-44823201D01*
X128674838Y-45195167D01*
X128816883Y-45538943D01*
X128884245Y-45606422D01*
X128907852Y-45725103D01*
X129072599Y-45971665D01*
X129345001Y-46244067D01*
X129345001Y-58673434D01*
X129253117Y-58451057D01*
X128990327Y-58187808D01*
X128646799Y-58045162D01*
X128274833Y-58044838D01*
X127931057Y-58186883D01*
X127897882Y-58220000D01*
X110160000Y-58220000D01*
X109869160Y-58277852D01*
X109622599Y-58442599D01*
X107720320Y-60344878D01*
X107674833Y-60344838D01*
X107331057Y-60486883D01*
X107067808Y-60749673D01*
X106925162Y-61093201D01*
X106924838Y-61465167D01*
X107066883Y-61808943D01*
X107329673Y-62072192D01*
X107673201Y-62214838D01*
X108045167Y-62215162D01*
X108114421Y-62186547D01*
X108339673Y-62412192D01*
X108683201Y-62554838D01*
X109055167Y-62555162D01*
X109398943Y-62413117D01*
X109662192Y-62150327D01*
X109804838Y-61806799D01*
X109804879Y-61759923D01*
X111074802Y-60490000D01*
X118924882Y-60490000D01*
X118924838Y-60540167D01*
X118930742Y-60554456D01*
X116290320Y-63194878D01*
X116244833Y-63194838D01*
X115901057Y-63336883D01*
X115637808Y-63599673D01*
X115495162Y-63943201D01*
X115494838Y-64315167D01*
X115636883Y-64658943D01*
X115823905Y-64846291D01*
X113242599Y-67427597D01*
X113077852Y-67674159D01*
X113020000Y-67964998D01*
X113020000Y-70147537D01*
X112987808Y-70179673D01*
X112845162Y-70523201D01*
X112844882Y-70845010D01*
X96764990Y-70845010D01*
X96834838Y-70676799D01*
X96835162Y-70304833D01*
X96693117Y-69961057D01*
X96430327Y-69697808D01*
X96355445Y-69666714D01*
X96562192Y-69460327D01*
X96704838Y-69116799D01*
X96705162Y-68744833D01*
X96563117Y-68401057D01*
X96530000Y-68367882D01*
X96530000Y-67198004D01*
X96763201Y-67294838D01*
X97135167Y-67295162D01*
X97478943Y-67153117D01*
X97742192Y-66890327D01*
X97884838Y-66546799D01*
X97885022Y-66335167D01*
X104294838Y-66335167D01*
X104436883Y-66678943D01*
X104699673Y-66942192D01*
X105043201Y-67084838D01*
X105415167Y-67085162D01*
X105758943Y-66943117D01*
X105792118Y-66910000D01*
X111640000Y-66910000D01*
X111930839Y-66852148D01*
X112031213Y-66785080D01*
X112125167Y-66785162D01*
X112468943Y-66643117D01*
X112732192Y-66380327D01*
X112874838Y-66036799D01*
X112875162Y-65664833D01*
X112733117Y-65321057D01*
X112470327Y-65057808D01*
X112126799Y-64915162D01*
X111754833Y-64914838D01*
X111411057Y-65056883D01*
X111147808Y-65319673D01*
X111118606Y-65390000D01*
X105792463Y-65390000D01*
X105760327Y-65357808D01*
X105416799Y-65215162D01*
X105044833Y-65214838D01*
X104701057Y-65356883D01*
X104437808Y-65619673D01*
X104295162Y-65963201D01*
X104294838Y-66335167D01*
X97885022Y-66335167D01*
X97885162Y-66174833D01*
X97743117Y-65831057D01*
X97710000Y-65797882D01*
X97710000Y-60113590D01*
X97664535Y-59885022D01*
X97825167Y-59885162D01*
X98168943Y-59743117D01*
X98417964Y-59494530D01*
X98563201Y-59554838D01*
X98935167Y-59555162D01*
X99278943Y-59413117D01*
X99542192Y-59150327D01*
X99684838Y-58806799D01*
X99685162Y-58434833D01*
X99543117Y-58091057D01*
X99280327Y-57827808D01*
X98936799Y-57685162D01*
X98889923Y-57685121D01*
X98850010Y-57645208D01*
X98850010Y-53976735D01*
X98891368Y-54038632D01*
X99308252Y-54317185D01*
X99800000Y-54415000D01*
X100291748Y-54317185D01*
X100708632Y-54038632D01*
X109602264Y-45145000D01*
X115550000Y-45145000D01*
X116041748Y-45047185D01*
X116458632Y-44768632D01*
X116737185Y-44351748D01*
X116835000Y-43860000D01*
X116737185Y-43368252D01*
X116458632Y-42951368D01*
X116041748Y-42672815D01*
X115550000Y-42575000D01*
X109070000Y-42575000D01*
X108578252Y-42672815D01*
X108161368Y-42951368D01*
X98891368Y-52221368D01*
X98850010Y-52283265D01*
X98850010Y-48764792D01*
X108730615Y-38884187D01*
X126214752Y-38884187D01*
X126432757Y-39411800D01*
X126836077Y-39815824D01*
X127363309Y-40034750D01*
X127934187Y-40035248D01*
X128461800Y-39817243D01*
X128865824Y-39413923D01*
X129084750Y-38886691D01*
X129085248Y-38315813D01*
X128867243Y-37788200D01*
X128463923Y-37384176D01*
X127936691Y-37165250D01*
X127365813Y-37164752D01*
X126838200Y-37382757D01*
X126434176Y-37786077D01*
X126215250Y-38313309D01*
X126214752Y-38884187D01*
X108730615Y-38884187D01*
X114944802Y-32670000D01*
X152200200Y-32670000D01*
X179080000Y-59549800D01*
X179080000Y-89240000D01*
X179137852Y-89530839D01*
X179302599Y-89777401D01*
X190754998Y-101229800D01*
X190745241Y-101253298D01*
X190744760Y-101804285D01*
X190955169Y-102313515D01*
X191344436Y-102703461D01*
X191853298Y-102914759D01*
X192404285Y-102915240D01*
X192913515Y-102704831D01*
X193303461Y-102315564D01*
X193514759Y-101806702D01*
X193515240Y-101255715D01*
X193304831Y-100746485D01*
X192915564Y-100356539D01*
X192406702Y-100145241D01*
X191855715Y-100144760D01*
X191830132Y-100155330D01*
X185881463Y-94206661D01*
X190732758Y-94206661D01*
X190944990Y-94720303D01*
X191337630Y-95113629D01*
X191850900Y-95326757D01*
X192406661Y-95327242D01*
X192920303Y-95115010D01*
X193313629Y-94722370D01*
X193526757Y-94209100D01*
X193527242Y-93653339D01*
X193315010Y-93139697D01*
X192922370Y-92746371D01*
X192890000Y-92732930D01*
X192890000Y-82162271D01*
X193032192Y-82020327D01*
X193174838Y-81676799D01*
X193175162Y-81304833D01*
X193033117Y-80961057D01*
X192770327Y-80697808D01*
X192426799Y-80555162D01*
X192054833Y-80554838D01*
X191711057Y-80696883D01*
X191447808Y-80959673D01*
X191305162Y-81303201D01*
X191304838Y-81675167D01*
X191370000Y-81832871D01*
X191370000Y-92732469D01*
X191339697Y-92744990D01*
X190946371Y-93137630D01*
X190733243Y-93650900D01*
X190732758Y-94206661D01*
X185881463Y-94206661D01*
X180600000Y-88925198D01*
X180600000Y-60433390D01*
X200490000Y-80323390D01*
X200490000Y-121377707D01*
X200360327Y-121247808D01*
X200016799Y-121105162D01*
X199644833Y-121104838D01*
X199301057Y-121246883D01*
X199037808Y-121509673D01*
X198895162Y-121853201D01*
X198894838Y-122225167D01*
X199036883Y-122568943D01*
X199299673Y-122832192D01*
X199643201Y-122974838D01*
X199690077Y-122974879D01*
X200142599Y-123427401D01*
X200389161Y-123592148D01*
X200680000Y-123650000D01*
X201250000Y-123650000D01*
X201540839Y-123592148D01*
X201787401Y-123427401D01*
X201952148Y-123180839D01*
X202010000Y-122890000D01*
X202010000Y-80008588D01*
X201952148Y-79717749D01*
X201787401Y-79471187D01*
X187921237Y-65605023D01*
X188695294Y-65926439D01*
X189979074Y-65927559D01*
X191165561Y-65437313D01*
X192074123Y-64530336D01*
X192566439Y-63344706D01*
X192567559Y-62060926D01*
X192077313Y-60874439D01*
X191170336Y-59965877D01*
X189984706Y-59473561D01*
X188700926Y-59472441D01*
X187514439Y-59962687D01*
X186605877Y-60869664D01*
X186113561Y-62055294D01*
X186112441Y-63339074D01*
X186434337Y-64118123D01*
X153238803Y-30922589D01*
X152992241Y-30757842D01*
X152701402Y-30699990D01*
X107340010Y-30699990D01*
X107049170Y-30757842D01*
X106802609Y-30922589D01*
X97510000Y-40215198D01*
X97510000Y-39402376D01*
X97592192Y-39320327D01*
X97734838Y-38976799D01*
X97735162Y-38604833D01*
X97593117Y-38261057D01*
X97330327Y-37997808D01*
X96986799Y-37855162D01*
X96909999Y-37855095D01*
X96909999Y-37197507D01*
X96917192Y-37190327D01*
X97059838Y-36846799D01*
X97060162Y-36474833D01*
X96918117Y-36131057D01*
X96655327Y-35867808D01*
X96311799Y-35725162D01*
X96260000Y-35725117D01*
X96260000Y-32062463D01*
X96292192Y-32030327D01*
X96434838Y-31686799D01*
X96435162Y-31314833D01*
X96293117Y-30971057D01*
X96030327Y-30707808D01*
X95686799Y-30565162D01*
X95314833Y-30564838D01*
X94971057Y-30706883D01*
X94707808Y-30969673D01*
X94565162Y-31313201D01*
X94564838Y-31685167D01*
X94706883Y-32028943D01*
X94740000Y-32062118D01*
X94740000Y-54719231D01*
X94431057Y-54846883D01*
X94167808Y-55109673D01*
X94025162Y-55453201D01*
X94024838Y-55825167D01*
X94166883Y-56168943D01*
X94429673Y-56432192D01*
X94773201Y-56574838D01*
X94914969Y-56574961D01*
X94914838Y-56725167D01*
X95056883Y-57068943D01*
X95319673Y-57332192D01*
X95663201Y-57474838D01*
X95847635Y-57474999D01*
X95815162Y-57553201D01*
X95814857Y-57903645D01*
X92270000Y-54358788D01*
X92270000Y-53412463D01*
X92302192Y-53380327D01*
X92444838Y-53036799D01*
X92445162Y-52664833D01*
X92303117Y-52321057D01*
X92040327Y-52057808D01*
X91696799Y-51915162D01*
X91324833Y-51914838D01*
X90981057Y-52056883D01*
X90717808Y-52319673D01*
X90575162Y-52663201D01*
X90574838Y-53035167D01*
X90716883Y-53378943D01*
X90750000Y-53412118D01*
X90750000Y-53475198D01*
X72144802Y-34870000D01*
X90645907Y-34870000D01*
X90758946Y-35438285D01*
X91080853Y-35920054D01*
X91410026Y-36140000D01*
X91080853Y-36359946D01*
X90758946Y-36841715D01*
X90645907Y-37410000D01*
X90758946Y-37978285D01*
X91080853Y-38460054D01*
X91410026Y-38680000D01*
X91080853Y-38899946D01*
X90758946Y-39381715D01*
X90645907Y-39950000D01*
X90758946Y-40518285D01*
X91080853Y-41000054D01*
X91410026Y-41220000D01*
X91080853Y-41439946D01*
X90758946Y-41921715D01*
X90645907Y-42490000D01*
X90758946Y-43058285D01*
X91080853Y-43540054D01*
X91410026Y-43760000D01*
X91080853Y-43979946D01*
X90758946Y-44461715D01*
X90645907Y-45030000D01*
X90758946Y-45598285D01*
X91080853Y-46080054D01*
X91410026Y-46300000D01*
X91080853Y-46519946D01*
X90758946Y-47001715D01*
X90645907Y-47570000D01*
X90758946Y-48138285D01*
X91080853Y-48620054D01*
X91410026Y-48840000D01*
X91080853Y-49059946D01*
X90758946Y-49541715D01*
X90645907Y-50110000D01*
X90758946Y-50678285D01*
X91080853Y-51160054D01*
X91562622Y-51481961D01*
X92130907Y-51595000D01*
X92189093Y-51595000D01*
X92757378Y-51481961D01*
X93239147Y-51160054D01*
X93561054Y-50678285D01*
X93674093Y-50110000D01*
X93561054Y-49541715D01*
X93239147Y-49059946D01*
X92909974Y-48840000D01*
X93239147Y-48620054D01*
X93561054Y-48138285D01*
X93674093Y-47570000D01*
X93561054Y-47001715D01*
X93239147Y-46519946D01*
X92909974Y-46300000D01*
X93239147Y-46080054D01*
X93561054Y-45598285D01*
X93674093Y-45030000D01*
X93561054Y-44461715D01*
X93239147Y-43979946D01*
X92909974Y-43760000D01*
X93239147Y-43540054D01*
X93561054Y-43058285D01*
X93674093Y-42490000D01*
X93561054Y-41921715D01*
X93239147Y-41439946D01*
X92909974Y-41220000D01*
X93239147Y-41000054D01*
X93561054Y-40518285D01*
X93674093Y-39950000D01*
X93561054Y-39381715D01*
X93239147Y-38899946D01*
X92909974Y-38680000D01*
X93239147Y-38460054D01*
X93561054Y-37978285D01*
X93674093Y-37410000D01*
X93561054Y-36841715D01*
X93239147Y-36359946D01*
X92909974Y-36140000D01*
X93239147Y-35920054D01*
X93561054Y-35438285D01*
X93674093Y-34870000D01*
X93561054Y-34301715D01*
X93239147Y-33819946D01*
X93197548Y-33792150D01*
X93245317Y-33783162D01*
X93461441Y-33644090D01*
X93606431Y-33431890D01*
X93657440Y-33180000D01*
X93657440Y-31480000D01*
X93613162Y-31244683D01*
X93474090Y-31028559D01*
X93261890Y-30883569D01*
X93010000Y-30832560D01*
X91310000Y-30832560D01*
X91074683Y-30876838D01*
X90858559Y-31015910D01*
X90713569Y-31228110D01*
X90662560Y-31480000D01*
X90662560Y-33180000D01*
X90706838Y-33415317D01*
X90845910Y-33631441D01*
X91058110Y-33776431D01*
X91125541Y-33790086D01*
X91080853Y-33819946D01*
X90758946Y-34301715D01*
X90645907Y-34870000D01*
X72144802Y-34870000D01*
X66635122Y-29360320D01*
X66635162Y-29314833D01*
X66493117Y-28971057D01*
X66322358Y-28800000D01*
X203720000Y-28800000D01*
X203720000Y-127380000D01*
G36*
X64907808Y-28969673D02*
X64765162Y-29313201D01*
X64764838Y-29685167D01*
X64837292Y-29860519D01*
X64647808Y-30049673D01*
X64505162Y-30393201D01*
X64504838Y-30765167D01*
X64646883Y-31108943D01*
X64680000Y-31142118D01*
X64680000Y-33297865D01*
X64460327Y-33077808D01*
X64116799Y-32935162D01*
X63744833Y-32934838D01*
X63401057Y-33076883D01*
X63137808Y-33339673D01*
X62995162Y-33683201D01*
X62994838Y-34055167D01*
X63136883Y-34398943D01*
X63170000Y-34432118D01*
X63170000Y-35239181D01*
X63142148Y-35099161D01*
X62977401Y-34852599D01*
X62225122Y-34100320D01*
X62225162Y-34054833D01*
X62083117Y-33711057D01*
X61820327Y-33447808D01*
X61476799Y-33305162D01*
X61104833Y-33304838D01*
X60761057Y-33446883D01*
X60497808Y-33709673D01*
X60355162Y-34053201D01*
X60354838Y-34425167D01*
X60496883Y-34768943D01*
X60759673Y-35032192D01*
X61103201Y-35174838D01*
X61150077Y-35174879D01*
X61680000Y-35704802D01*
X61680000Y-39280000D01*
X61737852Y-39570839D01*
X61902599Y-39817401D01*
X92930208Y-70845010D01*
X79324988Y-70845010D01*
X79034148Y-70902862D01*
X78798976Y-71059999D01*
X77564803Y-71059999D01*
X76140000Y-69635196D01*
X76140000Y-66075000D01*
X76085234Y-65799673D01*
X76082148Y-65784160D01*
X75917401Y-65537599D01*
X75770122Y-65390320D01*
X75770162Y-65344833D01*
X75628117Y-65001057D01*
X75365327Y-64737808D01*
X75021799Y-64595162D01*
X74649833Y-64594838D01*
X74306057Y-64736883D01*
X74104816Y-64937774D01*
X74073117Y-64861057D01*
X73810327Y-64597808D01*
X73466799Y-64455162D01*
X73094833Y-64454838D01*
X72751057Y-64596883D01*
X72487808Y-64859673D01*
X72345162Y-65203201D01*
X72344838Y-65575167D01*
X72486883Y-65918943D01*
X72554245Y-65986422D01*
X72577852Y-66105103D01*
X72742599Y-66351665D01*
X73450000Y-67059066D01*
X73450000Y-68199454D01*
X73430000Y-68300000D01*
X73450000Y-68400546D01*
X73450000Y-69692492D01*
X73135500Y-69822440D01*
X73098840Y-69859036D01*
X71857401Y-68617597D01*
X71610839Y-68452850D01*
X71320000Y-68394998D01*
X71029161Y-68452850D01*
X70928662Y-68520001D01*
X70909999Y-68520001D01*
X70619160Y-68577853D01*
X70518787Y-68644920D01*
X70424833Y-68644838D01*
X70081057Y-68786883D01*
X70031328Y-68836526D01*
X69734999Y-68540197D01*
X69734999Y-66129803D01*
X73239680Y-62625122D01*
X73285167Y-62625162D01*
X73628943Y-62483117D01*
X73892192Y-62220327D01*
X74034838Y-61876799D01*
X74035002Y-61688170D01*
X74146883Y-61958943D01*
X74409673Y-62222192D01*
X74753201Y-62364838D01*
X75125167Y-62365162D01*
X75468943Y-62223117D01*
X75732192Y-61960327D01*
X75874838Y-61616799D01*
X75875162Y-61244833D01*
X75733117Y-60901057D01*
X75692299Y-60860168D01*
X75722192Y-60830327D01*
X75864838Y-60486799D01*
X75865162Y-60114833D01*
X75723117Y-59771057D01*
X75460327Y-59507808D01*
X75385531Y-59476750D01*
X75522192Y-59340327D01*
X75664838Y-58996799D01*
X75665162Y-58624833D01*
X75523117Y-58281057D01*
X75260327Y-58017808D01*
X74916799Y-57875162D01*
X74544833Y-57874838D01*
X74201057Y-58016883D01*
X74167882Y-58050000D01*
X65740000Y-58050000D01*
X65449161Y-58107852D01*
X65202599Y-58272599D01*
X59322599Y-64152599D01*
X59157852Y-64399161D01*
X59100000Y-64690000D01*
X59100000Y-70255198D01*
X58955198Y-70400000D01*
X58502954Y-70400000D01*
X58309147Y-70109946D01*
X58267548Y-70082150D01*
X58315317Y-70073162D01*
X58531441Y-69934090D01*
X58676431Y-69721890D01*
X58727440Y-69470000D01*
X58727440Y-67770000D01*
X58683162Y-67534683D01*
X58544090Y-67318559D01*
X58331890Y-67173569D01*
X58080000Y-67122560D01*
X56380000Y-67122560D01*
X56144683Y-67166838D01*
X55928559Y-67305910D01*
X55783569Y-67518110D01*
X55732560Y-67770000D01*
X55732560Y-69470000D01*
X55776838Y-69705317D01*
X55915910Y-69921441D01*
X56128110Y-70066431D01*
X56195541Y-70080086D01*
X56150853Y-70109946D01*
X55828946Y-70591715D01*
X55715907Y-71160000D01*
X55828946Y-71728285D01*
X56150853Y-72210054D01*
X56480026Y-72430000D01*
X56150853Y-72649946D01*
X55828946Y-73131715D01*
X55715907Y-73700000D01*
X55828946Y-74268285D01*
X56150853Y-74750054D01*
X56480026Y-74970000D01*
X56150853Y-75189946D01*
X55828946Y-75671715D01*
X55715907Y-76240000D01*
X55828946Y-76808285D01*
X56150853Y-77290054D01*
X56491553Y-77517702D01*
X56348642Y-77584817D01*
X55958355Y-78013076D01*
X55788524Y-78423110D01*
X55909845Y-78653000D01*
X57103000Y-78653000D01*
X57103000Y-78633000D01*
X57357000Y-78633000D01*
X57357000Y-78653000D01*
X58550155Y-78653000D01*
X58671476Y-78423110D01*
X58501645Y-78013076D01*
X58111358Y-77584817D01*
X57968447Y-77517702D01*
X58309147Y-77290054D01*
X58631054Y-76808285D01*
X58744093Y-76240000D01*
X58631054Y-75671715D01*
X58309147Y-75189946D01*
X57979974Y-74970000D01*
X58309147Y-74750054D01*
X58631054Y-74268285D01*
X58744093Y-73700000D01*
X58717772Y-73567678D01*
X58795840Y-73552149D01*
X59042402Y-73387402D01*
X60230010Y-72199794D01*
X60230010Y-77524882D01*
X60179843Y-77524838D01*
X59836067Y-77666883D01*
X59572818Y-77929673D01*
X59430172Y-78273201D01*
X59429848Y-78645167D01*
X59571893Y-78988943D01*
X59605010Y-79022118D01*
X59605010Y-113611420D01*
X59662862Y-113902259D01*
X59827609Y-114148821D01*
X64757408Y-119078620D01*
X64730000Y-119216410D01*
X64730000Y-124787046D01*
X64439946Y-124980853D01*
X64118039Y-125462622D01*
X64005000Y-126030907D01*
X64005000Y-126089093D01*
X64118039Y-126657378D01*
X64439946Y-127139147D01*
X64800409Y-127380000D01*
X55140000Y-127380000D01*
X55140000Y-122186890D01*
X55818524Y-122186890D01*
X55988355Y-122596924D01*
X56378642Y-123025183D01*
X56903108Y-123271486D01*
X57133000Y-123150819D01*
X57133000Y-121957000D01*
X57387000Y-121957000D01*
X57387000Y-123150819D01*
X57616892Y-123271486D01*
X58141358Y-123025183D01*
X58531645Y-122596924D01*
X58701476Y-122186890D01*
X58580155Y-121957000D01*
X57387000Y-121957000D01*
X57133000Y-121957000D01*
X55939845Y-121957000D01*
X55818524Y-122186890D01*
X55140000Y-122186890D01*
X55140000Y-118440000D01*
X55762560Y-118440000D01*
X55762560Y-120140000D01*
X55806838Y-120375317D01*
X55945910Y-120591441D01*
X56158110Y-120736431D01*
X56266107Y-120758301D01*
X55988355Y-121063076D01*
X55818524Y-121473110D01*
X55939845Y-121703000D01*
X57133000Y-121703000D01*
X57133000Y-121683000D01*
X57387000Y-121683000D01*
X57387000Y-121703000D01*
X58580155Y-121703000D01*
X58701476Y-121473110D01*
X58531645Y-121063076D01*
X58255499Y-120760063D01*
X58345317Y-120743162D01*
X58561441Y-120604090D01*
X58706431Y-120391890D01*
X58757440Y-120140000D01*
X58757440Y-118440000D01*
X58713162Y-118204683D01*
X58574090Y-117988559D01*
X58361890Y-117843569D01*
X58110000Y-117792560D01*
X56410000Y-117792560D01*
X56174683Y-117836838D01*
X55958559Y-117975910D01*
X55813569Y-118188110D01*
X55762560Y-118440000D01*
X55140000Y-118440000D01*
X55140000Y-79136890D01*
X55788524Y-79136890D01*
X55958355Y-79546924D01*
X56348642Y-79975183D01*
X56873108Y-80221486D01*
X57103000Y-80100819D01*
X57103000Y-78907000D01*
X57357000Y-78907000D01*
X57357000Y-80100819D01*
X57586892Y-80221486D01*
X58111358Y-79975183D01*
X58501645Y-79546924D01*
X58671476Y-79136890D01*
X58550155Y-78907000D01*
X57357000Y-78907000D01*
X57103000Y-78907000D01*
X55909845Y-78907000D01*
X55788524Y-79136890D01*
X55140000Y-79136890D01*
X55140000Y-28800000D01*
X65077777Y-28800000D01*
X64907808Y-28969673D01*
X64907808Y-28969673D01*
G37*
X64907808Y-28969673D02*
X64765162Y-29313201D01*
X64764838Y-29685167D01*
X64837292Y-29860519D01*
X64647808Y-30049673D01*
X64505162Y-30393201D01*
X64504838Y-30765167D01*
X64646883Y-31108943D01*
X64680000Y-31142118D01*
X64680000Y-33297865D01*
X64460327Y-33077808D01*
X64116799Y-32935162D01*
X63744833Y-32934838D01*
X63401057Y-33076883D01*
X63137808Y-33339673D01*
X62995162Y-33683201D01*
X62994838Y-34055167D01*
X63136883Y-34398943D01*
X63170000Y-34432118D01*
X63170000Y-35239181D01*
X63142148Y-35099161D01*
X62977401Y-34852599D01*
X62225122Y-34100320D01*
X62225162Y-34054833D01*
X62083117Y-33711057D01*
X61820327Y-33447808D01*
X61476799Y-33305162D01*
X61104833Y-33304838D01*
X60761057Y-33446883D01*
X60497808Y-33709673D01*
X60355162Y-34053201D01*
X60354838Y-34425167D01*
X60496883Y-34768943D01*
X60759673Y-35032192D01*
X61103201Y-35174838D01*
X61150077Y-35174879D01*
X61680000Y-35704802D01*
X61680000Y-39280000D01*
X61737852Y-39570839D01*
X61902599Y-39817401D01*
X92930208Y-70845010D01*
X79324988Y-70845010D01*
X79034148Y-70902862D01*
X78798976Y-71059999D01*
X77564803Y-71059999D01*
X76140000Y-69635196D01*
X76140000Y-66075000D01*
X76085234Y-65799673D01*
X76082148Y-65784160D01*
X75917401Y-65537599D01*
X75770122Y-65390320D01*
X75770162Y-65344833D01*
X75628117Y-65001057D01*
X75365327Y-64737808D01*
X75021799Y-64595162D01*
X74649833Y-64594838D01*
X74306057Y-64736883D01*
X74104816Y-64937774D01*
X74073117Y-64861057D01*
X73810327Y-64597808D01*
X73466799Y-64455162D01*
X73094833Y-64454838D01*
X72751057Y-64596883D01*
X72487808Y-64859673D01*
X72345162Y-65203201D01*
X72344838Y-65575167D01*
X72486883Y-65918943D01*
X72554245Y-65986422D01*
X72577852Y-66105103D01*
X72742599Y-66351665D01*
X73450000Y-67059066D01*
X73450000Y-68199454D01*
X73430000Y-68300000D01*
X73450000Y-68400546D01*
X73450000Y-69692492D01*
X73135500Y-69822440D01*
X73098840Y-69859036D01*
X71857401Y-68617597D01*
X71610839Y-68452850D01*
X71320000Y-68394998D01*
X71029161Y-68452850D01*
X70928662Y-68520001D01*
X70909999Y-68520001D01*
X70619160Y-68577853D01*
X70518787Y-68644920D01*
X70424833Y-68644838D01*
X70081057Y-68786883D01*
X70031328Y-68836526D01*
X69734999Y-68540197D01*
X69734999Y-66129803D01*
X73239680Y-62625122D01*
X73285167Y-62625162D01*
X73628943Y-62483117D01*
X73892192Y-62220327D01*
X74034838Y-61876799D01*
X74035002Y-61688170D01*
X74146883Y-61958943D01*
X74409673Y-62222192D01*
X74753201Y-62364838D01*
X75125167Y-62365162D01*
X75468943Y-62223117D01*
X75732192Y-61960327D01*
X75874838Y-61616799D01*
X75875162Y-61244833D01*
X75733117Y-60901057D01*
X75692299Y-60860168D01*
X75722192Y-60830327D01*
X75864838Y-60486799D01*
X75865162Y-60114833D01*
X75723117Y-59771057D01*
X75460327Y-59507808D01*
X75385531Y-59476750D01*
X75522192Y-59340327D01*
X75664838Y-58996799D01*
X75665162Y-58624833D01*
X75523117Y-58281057D01*
X75260327Y-58017808D01*
X74916799Y-57875162D01*
X74544833Y-57874838D01*
X74201057Y-58016883D01*
X74167882Y-58050000D01*
X65740000Y-58050000D01*
X65449161Y-58107852D01*
X65202599Y-58272599D01*
X59322599Y-64152599D01*
X59157852Y-64399161D01*
X59100000Y-64690000D01*
X59100000Y-70255198D01*
X58955198Y-70400000D01*
X58502954Y-70400000D01*
X58309147Y-70109946D01*
X58267548Y-70082150D01*
X58315317Y-70073162D01*
X58531441Y-69934090D01*
X58676431Y-69721890D01*
X58727440Y-69470000D01*
X58727440Y-67770000D01*
X58683162Y-67534683D01*
X58544090Y-67318559D01*
X58331890Y-67173569D01*
X58080000Y-67122560D01*
X56380000Y-67122560D01*
X56144683Y-67166838D01*
X55928559Y-67305910D01*
X55783569Y-67518110D01*
X55732560Y-67770000D01*
X55732560Y-69470000D01*
X55776838Y-69705317D01*
X55915910Y-69921441D01*
X56128110Y-70066431D01*
X56195541Y-70080086D01*
X56150853Y-70109946D01*
X55828946Y-70591715D01*
X55715907Y-71160000D01*
X55828946Y-71728285D01*
X56150853Y-72210054D01*
X56480026Y-72430000D01*
X56150853Y-72649946D01*
X55828946Y-73131715D01*
X55715907Y-73700000D01*
X55828946Y-74268285D01*
X56150853Y-74750054D01*
X56480026Y-74970000D01*
X56150853Y-75189946D01*
X55828946Y-75671715D01*
X55715907Y-76240000D01*
X55828946Y-76808285D01*
X56150853Y-77290054D01*
X56491553Y-77517702D01*
X56348642Y-77584817D01*
X55958355Y-78013076D01*
X55788524Y-78423110D01*
X55909845Y-78653000D01*
X57103000Y-78653000D01*
X57103000Y-78633000D01*
X57357000Y-78633000D01*
X57357000Y-78653000D01*
X58550155Y-78653000D01*
X58671476Y-78423110D01*
X58501645Y-78013076D01*
X58111358Y-77584817D01*
X57968447Y-77517702D01*
X58309147Y-77290054D01*
X58631054Y-76808285D01*
X58744093Y-76240000D01*
X58631054Y-75671715D01*
X58309147Y-75189946D01*
X57979974Y-74970000D01*
X58309147Y-74750054D01*
X58631054Y-74268285D01*
X58744093Y-73700000D01*
X58717772Y-73567678D01*
X58795840Y-73552149D01*
X59042402Y-73387402D01*
X60230010Y-72199794D01*
X60230010Y-77524882D01*
X60179843Y-77524838D01*
X59836067Y-77666883D01*
X59572818Y-77929673D01*
X59430172Y-78273201D01*
X59429848Y-78645167D01*
X59571893Y-78988943D01*
X59605010Y-79022118D01*
X59605010Y-113611420D01*
X59662862Y-113902259D01*
X59827609Y-114148821D01*
X64757408Y-119078620D01*
X64730000Y-119216410D01*
X64730000Y-124787046D01*
X64439946Y-124980853D01*
X64118039Y-125462622D01*
X64005000Y-126030907D01*
X64005000Y-126089093D01*
X64118039Y-126657378D01*
X64439946Y-127139147D01*
X64800409Y-127380000D01*
X55140000Y-127380000D01*
X55140000Y-122186890D01*
X55818524Y-122186890D01*
X55988355Y-122596924D01*
X56378642Y-123025183D01*
X56903108Y-123271486D01*
X57133000Y-123150819D01*
X57133000Y-121957000D01*
X57387000Y-121957000D01*
X57387000Y-123150819D01*
X57616892Y-123271486D01*
X58141358Y-123025183D01*
X58531645Y-122596924D01*
X58701476Y-122186890D01*
X58580155Y-121957000D01*
X57387000Y-121957000D01*
X57133000Y-121957000D01*
X55939845Y-121957000D01*
X55818524Y-122186890D01*
X55140000Y-122186890D01*
X55140000Y-118440000D01*
X55762560Y-118440000D01*
X55762560Y-120140000D01*
X55806838Y-120375317D01*
X55945910Y-120591441D01*
X56158110Y-120736431D01*
X56266107Y-120758301D01*
X55988355Y-121063076D01*
X55818524Y-121473110D01*
X55939845Y-121703000D01*
X57133000Y-121703000D01*
X57133000Y-121683000D01*
X57387000Y-121683000D01*
X57387000Y-121703000D01*
X58580155Y-121703000D01*
X58701476Y-121473110D01*
X58531645Y-121063076D01*
X58255499Y-120760063D01*
X58345317Y-120743162D01*
X58561441Y-120604090D01*
X58706431Y-120391890D01*
X58757440Y-120140000D01*
X58757440Y-118440000D01*
X58713162Y-118204683D01*
X58574090Y-117988559D01*
X58361890Y-117843569D01*
X58110000Y-117792560D01*
X56410000Y-117792560D01*
X56174683Y-117836838D01*
X55958559Y-117975910D01*
X55813569Y-118188110D01*
X55762560Y-118440000D01*
X55140000Y-118440000D01*
X55140000Y-79136890D01*
X55788524Y-79136890D01*
X55958355Y-79546924D01*
X56348642Y-79975183D01*
X56873108Y-80221486D01*
X57103000Y-80100819D01*
X57103000Y-78907000D01*
X57357000Y-78907000D01*
X57357000Y-80100819D01*
X57586892Y-80221486D01*
X58111358Y-79975183D01*
X58501645Y-79546924D01*
X58671476Y-79136890D01*
X58550155Y-78907000D01*
X57357000Y-78907000D01*
X57103000Y-78907000D01*
X55909845Y-78907000D01*
X55788524Y-79136890D01*
X55140000Y-79136890D01*
X55140000Y-28800000D01*
X65077777Y-28800000D01*
X64907808Y-28969673D01*
G36*
X143723569Y-124068110D02*
X143672560Y-124320000D01*
X143672560Y-126020000D01*
X143716838Y-126255317D01*
X143855910Y-126471441D01*
X144068110Y-126616431D01*
X144320000Y-126667440D01*
X146020000Y-126667440D01*
X146255317Y-126623162D01*
X146471441Y-126484090D01*
X146616431Y-126271890D01*
X146630086Y-126204459D01*
X146659946Y-126249147D01*
X147141715Y-126571054D01*
X147710000Y-126684093D01*
X148278285Y-126571054D01*
X148760054Y-126249147D01*
X148987702Y-125908447D01*
X149054817Y-126051358D01*
X149483076Y-126441645D01*
X149893110Y-126611476D01*
X150123000Y-126490155D01*
X150123000Y-125297000D01*
X150377000Y-125297000D01*
X150377000Y-126490155D01*
X150606890Y-126611476D01*
X151016924Y-126441645D01*
X151445183Y-126051358D01*
X151691486Y-125526892D01*
X151570819Y-125297000D01*
X150377000Y-125297000D01*
X150123000Y-125297000D01*
X150103000Y-125297000D01*
X150103000Y-125043000D01*
X150123000Y-125043000D01*
X150123000Y-125023000D01*
X150377000Y-125023000D01*
X150377000Y-125043000D01*
X151570819Y-125043000D01*
X151691486Y-124813108D01*
X151445183Y-124288642D01*
X151090064Y-123965010D01*
X161188676Y-123965010D01*
X161063569Y-124148110D01*
X161012560Y-124400000D01*
X161012560Y-126100000D01*
X161056838Y-126335317D01*
X161195910Y-126551441D01*
X161408110Y-126696431D01*
X161660000Y-126747440D01*
X163360000Y-126747440D01*
X163595317Y-126703162D01*
X163811441Y-126564090D01*
X163956431Y-126351890D01*
X163970086Y-126284459D01*
X163999946Y-126329147D01*
X164481715Y-126651054D01*
X165050000Y-126764093D01*
X165618285Y-126651054D01*
X166100054Y-126329147D01*
X166320000Y-125999974D01*
X166539946Y-126329147D01*
X167021715Y-126651054D01*
X167590000Y-126764093D01*
X168158285Y-126651054D01*
X168640054Y-126329147D01*
X168867702Y-125988447D01*
X168934817Y-126131358D01*
X169363076Y-126521645D01*
X169475847Y-126568353D01*
X169199189Y-126845011D01*
X133610793Y-126845011D01*
X136490794Y-123965010D01*
X143794014Y-123965010D01*
X143723569Y-124068110D01*
X143723569Y-124068110D01*
G37*
X143723569Y-124068110D02*
X143672560Y-124320000D01*
X143672560Y-126020000D01*
X143716838Y-126255317D01*
X143855910Y-126471441D01*
X144068110Y-126616431D01*
X144320000Y-126667440D01*
X146020000Y-126667440D01*
X146255317Y-126623162D01*
X146471441Y-126484090D01*
X146616431Y-126271890D01*
X146630086Y-126204459D01*
X146659946Y-126249147D01*
X147141715Y-126571054D01*
X147710000Y-126684093D01*
X148278285Y-126571054D01*
X148760054Y-126249147D01*
X148987702Y-125908447D01*
X149054817Y-126051358D01*
X149483076Y-126441645D01*
X149893110Y-126611476D01*
X150123000Y-126490155D01*
X150123000Y-125297000D01*
X150377000Y-125297000D01*
X150377000Y-126490155D01*
X150606890Y-126611476D01*
X151016924Y-126441645D01*
X151445183Y-126051358D01*
X151691486Y-125526892D01*
X151570819Y-125297000D01*
X150377000Y-125297000D01*
X150123000Y-125297000D01*
X150103000Y-125297000D01*
X150103000Y-125043000D01*
X150123000Y-125043000D01*
X150123000Y-125023000D01*
X150377000Y-125023000D01*
X150377000Y-125043000D01*
X151570819Y-125043000D01*
X151691486Y-124813108D01*
X151445183Y-124288642D01*
X151090064Y-123965010D01*
X161188676Y-123965010D01*
X161063569Y-124148110D01*
X161012560Y-124400000D01*
X161012560Y-126100000D01*
X161056838Y-126335317D01*
X161195910Y-126551441D01*
X161408110Y-126696431D01*
X161660000Y-126747440D01*
X163360000Y-126747440D01*
X163595317Y-126703162D01*
X163811441Y-126564090D01*
X163956431Y-126351890D01*
X163970086Y-126284459D01*
X163999946Y-126329147D01*
X164481715Y-126651054D01*
X165050000Y-126764093D01*
X165618285Y-126651054D01*
X166100054Y-126329147D01*
X166320000Y-125999974D01*
X166539946Y-126329147D01*
X167021715Y-126651054D01*
X167590000Y-126764093D01*
X168158285Y-126651054D01*
X168640054Y-126329147D01*
X168867702Y-125988447D01*
X168934817Y-126131358D01*
X169363076Y-126521645D01*
X169475847Y-126568353D01*
X169199189Y-126845011D01*
X133610793Y-126845011D01*
X136490794Y-123965010D01*
X143794014Y-123965010D01*
X143723569Y-124068110D01*
G36*
X175850000Y-106814802D02*
X175850000Y-120194200D01*
X171437147Y-124607053D01*
X171325183Y-124368642D01*
X170896924Y-123978355D01*
X170486890Y-123808524D01*
X170257000Y-123929845D01*
X170257000Y-125123000D01*
X170277000Y-125123000D01*
X170277000Y-125377000D01*
X170257000Y-125377000D01*
X170257000Y-125397000D01*
X170003000Y-125397000D01*
X170003000Y-125377000D01*
X169983000Y-125377000D01*
X169983000Y-125123000D01*
X170003000Y-125123000D01*
X170003000Y-123929845D01*
X169773110Y-123808524D01*
X169363076Y-123978355D01*
X168934817Y-124368642D01*
X168867702Y-124511553D01*
X168640054Y-124170853D01*
X168158285Y-123848946D01*
X167590000Y-123735907D01*
X167021715Y-123848946D01*
X166539946Y-124170853D01*
X166320000Y-124500026D01*
X166100054Y-124170853D01*
X165618285Y-123848946D01*
X165050000Y-123735907D01*
X164775955Y-123790418D01*
X164847803Y-123742411D01*
X171605134Y-116985080D01*
X171604838Y-117325167D01*
X171746883Y-117668943D01*
X172009673Y-117932192D01*
X172353201Y-118074838D01*
X172725167Y-118075162D01*
X173068943Y-117933117D01*
X173319998Y-117682500D01*
X173329673Y-117692192D01*
X173673201Y-117834838D01*
X174045167Y-117835162D01*
X174388943Y-117693117D01*
X174652192Y-117430327D01*
X174794838Y-117086799D01*
X174795162Y-116714833D01*
X174653117Y-116371057D01*
X174620000Y-116337882D01*
X174620000Y-106370000D01*
X174562148Y-106079161D01*
X174562148Y-106079160D01*
X174397401Y-105832599D01*
X170697401Y-102132599D01*
X170450839Y-101967852D01*
X170160000Y-101910000D01*
X166342100Y-101910000D01*
X166352118Y-101900000D01*
X170935198Y-101900000D01*
X175850000Y-106814802D01*
X175850000Y-106814802D01*
G37*
X175850000Y-106814802D02*
X175850000Y-120194200D01*
X171437147Y-124607053D01*
X171325183Y-124368642D01*
X170896924Y-123978355D01*
X170486890Y-123808524D01*
X170257000Y-123929845D01*
X170257000Y-125123000D01*
X170277000Y-125123000D01*
X170277000Y-125377000D01*
X170257000Y-125377000D01*
X170257000Y-125397000D01*
X170003000Y-125397000D01*
X170003000Y-125377000D01*
X169983000Y-125377000D01*
X169983000Y-125123000D01*
X170003000Y-125123000D01*
X170003000Y-123929845D01*
X169773110Y-123808524D01*
X169363076Y-123978355D01*
X168934817Y-124368642D01*
X168867702Y-124511553D01*
X168640054Y-124170853D01*
X168158285Y-123848946D01*
X167590000Y-123735907D01*
X167021715Y-123848946D01*
X166539946Y-124170853D01*
X166320000Y-124500026D01*
X166100054Y-124170853D01*
X165618285Y-123848946D01*
X165050000Y-123735907D01*
X164775955Y-123790418D01*
X164847803Y-123742411D01*
X171605134Y-116985080D01*
X171604838Y-117325167D01*
X171746883Y-117668943D01*
X172009673Y-117932192D01*
X172353201Y-118074838D01*
X172725167Y-118075162D01*
X173068943Y-117933117D01*
X173319998Y-117682500D01*
X173329673Y-117692192D01*
X173673201Y-117834838D01*
X174045167Y-117835162D01*
X174388943Y-117693117D01*
X174652192Y-117430327D01*
X174794838Y-117086799D01*
X174795162Y-116714833D01*
X174653117Y-116371057D01*
X174620000Y-116337882D01*
X174620000Y-106370000D01*
X174562148Y-106079161D01*
X174562148Y-106079160D01*
X174397401Y-105832599D01*
X170697401Y-102132599D01*
X170450839Y-101967852D01*
X170160000Y-101910000D01*
X166342100Y-101910000D01*
X166352118Y-101900000D01*
X170935198Y-101900000D01*
X175850000Y-106814802D01*
G36*
X169573617Y-104148419D02*
X169462599Y-104222599D01*
X164952599Y-108732599D01*
X164787852Y-108979161D01*
X164730000Y-109270000D01*
X164730000Y-113305198D01*
X164098691Y-113936507D01*
X164040839Y-113897852D01*
X163750000Y-113840000D01*
X160552954Y-113840000D01*
X160359147Y-113549946D01*
X160029974Y-113330000D01*
X160359147Y-113110054D01*
X160681054Y-112628285D01*
X160794093Y-112060000D01*
X160721210Y-111693592D01*
X163677401Y-108737401D01*
X163842148Y-108490840D01*
X163900000Y-108200000D01*
X163900000Y-107912463D01*
X163932192Y-107880327D01*
X164074838Y-107536799D01*
X164075162Y-107164833D01*
X163933117Y-106821057D01*
X163670327Y-106557808D01*
X163326799Y-106415162D01*
X162954833Y-106414838D01*
X162611057Y-106556883D01*
X162347808Y-106819673D01*
X162205162Y-107163201D01*
X162204838Y-107535167D01*
X162346883Y-107878943D01*
X162366552Y-107898646D01*
X160777440Y-109487758D01*
X160777440Y-108670000D01*
X160733162Y-108434683D01*
X160594090Y-108218559D01*
X160381890Y-108073569D01*
X160130000Y-108022560D01*
X158430000Y-108022560D01*
X158194683Y-108066838D01*
X157978559Y-108205910D01*
X157833569Y-108418110D01*
X157782560Y-108670000D01*
X157782560Y-110370000D01*
X157826838Y-110605317D01*
X157965910Y-110821441D01*
X158178110Y-110966431D01*
X158245541Y-110980086D01*
X158200853Y-111009946D01*
X157878946Y-111491715D01*
X157765907Y-112060000D01*
X157878946Y-112628285D01*
X158200853Y-113110054D01*
X158530026Y-113330000D01*
X158200853Y-113549946D01*
X157878946Y-114031715D01*
X157765907Y-114600000D01*
X157878946Y-115168285D01*
X158200853Y-115650054D01*
X158541553Y-115877702D01*
X158398642Y-115944817D01*
X158008355Y-116373076D01*
X157838524Y-116783110D01*
X157959845Y-117013000D01*
X159153000Y-117013000D01*
X159153000Y-116993000D01*
X159407000Y-116993000D01*
X159407000Y-117013000D01*
X160600155Y-117013000D01*
X160721476Y-116783110D01*
X160551645Y-116373076D01*
X160161358Y-115944817D01*
X160018447Y-115877702D01*
X160359147Y-115650054D01*
X160552954Y-115360000D01*
X163435198Y-115360000D01*
X163592599Y-115517401D01*
X163839161Y-115682148D01*
X164130000Y-115740000D01*
X164420839Y-115682148D01*
X164667401Y-115517401D01*
X166027401Y-114157401D01*
X166192148Y-113910840D01*
X166206239Y-113840000D01*
X166250000Y-113620000D01*
X166250000Y-109584802D01*
X166482560Y-109352242D01*
X166482560Y-110390000D01*
X166526838Y-110625317D01*
X166665910Y-110841441D01*
X166878110Y-110986431D01*
X166945541Y-111000086D01*
X166900853Y-111029946D01*
X166578946Y-111511715D01*
X166465907Y-112080000D01*
X166578946Y-112648285D01*
X166900853Y-113130054D01*
X167230026Y-113350000D01*
X166900853Y-113569946D01*
X166578946Y-114051715D01*
X166465907Y-114620000D01*
X166538790Y-114986408D01*
X162660197Y-118865001D01*
X150955118Y-118865001D01*
X150955162Y-118814833D01*
X150813117Y-118471057D01*
X150550327Y-118207808D01*
X150206799Y-118065162D01*
X150159923Y-118065121D01*
X149459969Y-117365167D01*
X154464838Y-117365167D01*
X154606883Y-117708943D01*
X154869673Y-117972192D01*
X155213201Y-118114838D01*
X155585167Y-118115162D01*
X155928943Y-117973117D01*
X156192192Y-117710327D01*
X156280819Y-117496890D01*
X157838524Y-117496890D01*
X158008355Y-117906924D01*
X158398642Y-118335183D01*
X158923108Y-118581486D01*
X159153000Y-118460819D01*
X159153000Y-117267000D01*
X159407000Y-117267000D01*
X159407000Y-118460819D01*
X159636892Y-118581486D01*
X160161358Y-118335183D01*
X160551645Y-117906924D01*
X160721476Y-117496890D01*
X160600155Y-117267000D01*
X159407000Y-117267000D01*
X159153000Y-117267000D01*
X157959845Y-117267000D01*
X157838524Y-117496890D01*
X156280819Y-117496890D01*
X156334838Y-117366799D01*
X156335162Y-116994833D01*
X156193117Y-116651057D01*
X156160000Y-116617882D01*
X156160000Y-108814802D01*
X158849680Y-106125122D01*
X158895167Y-106125162D01*
X159238943Y-105983117D01*
X159502192Y-105720327D01*
X159644838Y-105376799D01*
X159645162Y-105004833D01*
X159503117Y-104661057D01*
X159240327Y-104397808D01*
X158896799Y-104255162D01*
X158524833Y-104254838D01*
X158181057Y-104396883D01*
X157917808Y-104659673D01*
X157775162Y-105003201D01*
X157775121Y-105050077D01*
X154862599Y-107962599D01*
X154697852Y-108209161D01*
X154640000Y-108500000D01*
X154640000Y-116617537D01*
X154607808Y-116649673D01*
X154465162Y-116993201D01*
X154464838Y-117365167D01*
X149459969Y-117365167D01*
X145132402Y-113037600D01*
X144885840Y-112872853D01*
X144595001Y-112815001D01*
X128595067Y-112815001D01*
X124842665Y-109062599D01*
X124596103Y-108897852D01*
X124305264Y-108840000D01*
X120024802Y-108840000D01*
X116174802Y-104990000D01*
X150876410Y-104990000D01*
X151167249Y-104932148D01*
X151413811Y-104767401D01*
X152301202Y-103880010D01*
X169305208Y-103880010D01*
X169573617Y-104148419D01*
X169573617Y-104148419D01*
G37*
X169573617Y-104148419D02*
X169462599Y-104222599D01*
X164952599Y-108732599D01*
X164787852Y-108979161D01*
X164730000Y-109270000D01*
X164730000Y-113305198D01*
X164098691Y-113936507D01*
X164040839Y-113897852D01*
X163750000Y-113840000D01*
X160552954Y-113840000D01*
X160359147Y-113549946D01*
X160029974Y-113330000D01*
X160359147Y-113110054D01*
X160681054Y-112628285D01*
X160794093Y-112060000D01*
X160721210Y-111693592D01*
X163677401Y-108737401D01*
X163842148Y-108490840D01*
X163900000Y-108200000D01*
X163900000Y-107912463D01*
X163932192Y-107880327D01*
X164074838Y-107536799D01*
X164075162Y-107164833D01*
X163933117Y-106821057D01*
X163670327Y-106557808D01*
X163326799Y-106415162D01*
X162954833Y-106414838D01*
X162611057Y-106556883D01*
X162347808Y-106819673D01*
X162205162Y-107163201D01*
X162204838Y-107535167D01*
X162346883Y-107878943D01*
X162366552Y-107898646D01*
X160777440Y-109487758D01*
X160777440Y-108670000D01*
X160733162Y-108434683D01*
X160594090Y-108218559D01*
X160381890Y-108073569D01*
X160130000Y-108022560D01*
X158430000Y-108022560D01*
X158194683Y-108066838D01*
X157978559Y-108205910D01*
X157833569Y-108418110D01*
X157782560Y-108670000D01*
X157782560Y-110370000D01*
X157826838Y-110605317D01*
X157965910Y-110821441D01*
X158178110Y-110966431D01*
X158245541Y-110980086D01*
X158200853Y-111009946D01*
X157878946Y-111491715D01*
X157765907Y-112060000D01*
X157878946Y-112628285D01*
X158200853Y-113110054D01*
X158530026Y-113330000D01*
X158200853Y-113549946D01*
X157878946Y-114031715D01*
X157765907Y-114600000D01*
X157878946Y-115168285D01*
X158200853Y-115650054D01*
X158541553Y-115877702D01*
X158398642Y-115944817D01*
X158008355Y-116373076D01*
X157838524Y-116783110D01*
X157959845Y-117013000D01*
X159153000Y-117013000D01*
X159153000Y-116993000D01*
X159407000Y-116993000D01*
X159407000Y-117013000D01*
X160600155Y-117013000D01*
X160721476Y-116783110D01*
X160551645Y-116373076D01*
X160161358Y-115944817D01*
X160018447Y-115877702D01*
X160359147Y-115650054D01*
X160552954Y-115360000D01*
X163435198Y-115360000D01*
X163592599Y-115517401D01*
X163839161Y-115682148D01*
X164130000Y-115740000D01*
X164420839Y-115682148D01*
X164667401Y-115517401D01*
X166027401Y-114157401D01*
X166192148Y-113910840D01*
X166206239Y-113840000D01*
X166250000Y-113620000D01*
X166250000Y-109584802D01*
X166482560Y-109352242D01*
X166482560Y-110390000D01*
X166526838Y-110625317D01*
X166665910Y-110841441D01*
X166878110Y-110986431D01*
X166945541Y-111000086D01*
X166900853Y-111029946D01*
X166578946Y-111511715D01*
X166465907Y-112080000D01*
X166578946Y-112648285D01*
X166900853Y-113130054D01*
X167230026Y-113350000D01*
X166900853Y-113569946D01*
X166578946Y-114051715D01*
X166465907Y-114620000D01*
X166538790Y-114986408D01*
X162660197Y-118865001D01*
X150955118Y-118865001D01*
X150955162Y-118814833D01*
X150813117Y-118471057D01*
X150550327Y-118207808D01*
X150206799Y-118065162D01*
X150159923Y-118065121D01*
X149459969Y-117365167D01*
X154464838Y-117365167D01*
X154606883Y-117708943D01*
X154869673Y-117972192D01*
X155213201Y-118114838D01*
X155585167Y-118115162D01*
X155928943Y-117973117D01*
X156192192Y-117710327D01*
X156280819Y-117496890D01*
X157838524Y-117496890D01*
X158008355Y-117906924D01*
X158398642Y-118335183D01*
X158923108Y-118581486D01*
X159153000Y-118460819D01*
X159153000Y-117267000D01*
X159407000Y-117267000D01*
X159407000Y-118460819D01*
X159636892Y-118581486D01*
X160161358Y-118335183D01*
X160551645Y-117906924D01*
X160721476Y-117496890D01*
X160600155Y-117267000D01*
X159407000Y-117267000D01*
X159153000Y-117267000D01*
X157959845Y-117267000D01*
X157838524Y-117496890D01*
X156280819Y-117496890D01*
X156334838Y-117366799D01*
X156335162Y-116994833D01*
X156193117Y-116651057D01*
X156160000Y-116617882D01*
X156160000Y-108814802D01*
X158849680Y-106125122D01*
X158895167Y-106125162D01*
X159238943Y-105983117D01*
X159502192Y-105720327D01*
X159644838Y-105376799D01*
X159645162Y-105004833D01*
X159503117Y-104661057D01*
X159240327Y-104397808D01*
X158896799Y-104255162D01*
X158524833Y-104254838D01*
X158181057Y-104396883D01*
X157917808Y-104659673D01*
X157775162Y-105003201D01*
X157775121Y-105050077D01*
X154862599Y-107962599D01*
X154697852Y-108209161D01*
X154640000Y-108500000D01*
X154640000Y-116617537D01*
X154607808Y-116649673D01*
X154465162Y-116993201D01*
X154464838Y-117365167D01*
X149459969Y-117365167D01*
X145132402Y-113037600D01*
X144885840Y-112872853D01*
X144595001Y-112815001D01*
X128595067Y-112815001D01*
X124842665Y-109062599D01*
X124596103Y-108897852D01*
X124305264Y-108840000D01*
X120024802Y-108840000D01*
X116174802Y-104990000D01*
X150876410Y-104990000D01*
X151167249Y-104932148D01*
X151413811Y-104767401D01*
X152301202Y-103880010D01*
X169305208Y-103880010D01*
X169573617Y-104148419D01*
G36*
X168107000Y-117033000D02*
X168127000Y-117033000D01*
X168127000Y-117287000D01*
X168107000Y-117287000D01*
X168107000Y-117307000D01*
X167853000Y-117307000D01*
X167853000Y-117287000D01*
X167833000Y-117287000D01*
X167833000Y-117033000D01*
X167853000Y-117033000D01*
X167853000Y-117013000D01*
X168107000Y-117013000D01*
X168107000Y-117033000D01*
X168107000Y-117033000D01*
G37*
X168107000Y-117033000D02*
X168127000Y-117033000D01*
X168127000Y-117287000D01*
X168107000Y-117287000D01*
X168107000Y-117307000D01*
X167853000Y-117307000D01*
X167853000Y-117287000D01*
X167833000Y-117287000D01*
X167833000Y-117033000D01*
X167853000Y-117033000D01*
X167853000Y-117013000D01*
X168107000Y-117013000D01*
X168107000Y-117033000D01*
G36*
X72571057Y-60896883D02*
X72307808Y-61159673D01*
X72165162Y-61503201D01*
X72165121Y-61550077D01*
X69193737Y-64521461D01*
X69193737Y-63068726D01*
X69225929Y-63036590D01*
X69368575Y-62693062D01*
X69368899Y-62321096D01*
X69226854Y-61977320D01*
X68964064Y-61714071D01*
X68620536Y-61571425D01*
X68248570Y-61571101D01*
X68000667Y-61673532D01*
X67983117Y-61631057D01*
X67720327Y-61367808D01*
X67376799Y-61225162D01*
X67004833Y-61224838D01*
X66661057Y-61366883D01*
X66397808Y-61629673D01*
X66255162Y-61973201D01*
X66255133Y-62006363D01*
X66036057Y-62096883D01*
X65772808Y-62359673D01*
X65630162Y-62703201D01*
X65629838Y-63075167D01*
X65771883Y-63418943D01*
X65805000Y-63452118D01*
X65805000Y-63614882D01*
X65754833Y-63614838D01*
X65411057Y-63756883D01*
X65147808Y-64019673D01*
X65005162Y-64363201D01*
X65005084Y-64452998D01*
X64681057Y-64586883D01*
X64417808Y-64849673D01*
X64311826Y-65104905D01*
X64234833Y-65104838D01*
X63891057Y-65246883D01*
X63627808Y-65509673D01*
X63485162Y-65853201D01*
X63485121Y-65900077D01*
X63212599Y-66172599D01*
X63047852Y-66419161D01*
X62990000Y-66710000D01*
X62990000Y-68944882D01*
X62939833Y-68944838D01*
X62596057Y-69086883D01*
X62332808Y-69349673D01*
X62190162Y-69693201D01*
X62189838Y-70065167D01*
X62331883Y-70408943D01*
X62365000Y-70442118D01*
X62365000Y-72312769D01*
X62200327Y-72147808D01*
X61856799Y-72005162D01*
X61750010Y-72005069D01*
X61750010Y-65724792D01*
X65086445Y-62388357D01*
X65297401Y-62247401D01*
X66724802Y-60820000D01*
X72757129Y-60820000D01*
X72571057Y-60896883D01*
X72571057Y-60896883D01*
G37*
X72571057Y-60896883D02*
X72307808Y-61159673D01*
X72165162Y-61503201D01*
X72165121Y-61550077D01*
X69193737Y-64521461D01*
X69193737Y-63068726D01*
X69225929Y-63036590D01*
X69368575Y-62693062D01*
X69368899Y-62321096D01*
X69226854Y-61977320D01*
X68964064Y-61714071D01*
X68620536Y-61571425D01*
X68248570Y-61571101D01*
X68000667Y-61673532D01*
X67983117Y-61631057D01*
X67720327Y-61367808D01*
X67376799Y-61225162D01*
X67004833Y-61224838D01*
X66661057Y-61366883D01*
X66397808Y-61629673D01*
X66255162Y-61973201D01*
X66255133Y-62006363D01*
X66036057Y-62096883D01*
X65772808Y-62359673D01*
X65630162Y-62703201D01*
X65629838Y-63075167D01*
X65771883Y-63418943D01*
X65805000Y-63452118D01*
X65805000Y-63614882D01*
X65754833Y-63614838D01*
X65411057Y-63756883D01*
X65147808Y-64019673D01*
X65005162Y-64363201D01*
X65005084Y-64452998D01*
X64681057Y-64586883D01*
X64417808Y-64849673D01*
X64311826Y-65104905D01*
X64234833Y-65104838D01*
X63891057Y-65246883D01*
X63627808Y-65509673D01*
X63485162Y-65853201D01*
X63485121Y-65900077D01*
X63212599Y-66172599D01*
X63047852Y-66419161D01*
X62990000Y-66710000D01*
X62990000Y-68944882D01*
X62939833Y-68944838D01*
X62596057Y-69086883D01*
X62332808Y-69349673D01*
X62190162Y-69693201D01*
X62189838Y-70065167D01*
X62331883Y-70408943D01*
X62365000Y-70442118D01*
X62365000Y-72312769D01*
X62200327Y-72147808D01*
X61856799Y-72005162D01*
X61750010Y-72005069D01*
X61750010Y-65724792D01*
X65086445Y-62388357D01*
X65297401Y-62247401D01*
X66724802Y-60820000D01*
X72757129Y-60820000D01*
X72571057Y-60896883D01*
G36*
X83645198Y-48520000D02*
X83582463Y-48520000D01*
X83550327Y-48487808D01*
X83206799Y-48345162D01*
X82834833Y-48344838D01*
X82491057Y-48486883D01*
X82227808Y-48749673D01*
X82085162Y-49093201D01*
X82084838Y-49465167D01*
X82226883Y-49808943D01*
X82489673Y-50072192D01*
X82833201Y-50214838D01*
X83205167Y-50215162D01*
X83548943Y-50073117D01*
X83582118Y-50040000D01*
X83705198Y-50040000D01*
X86724878Y-53059680D01*
X86724838Y-53105167D01*
X86866883Y-53448943D01*
X87129673Y-53712192D01*
X87473201Y-53854838D01*
X87845167Y-53855162D01*
X88188943Y-53713117D01*
X88452192Y-53450327D01*
X88488379Y-53363181D01*
X95010000Y-59884802D01*
X95010000Y-67427550D01*
X94970327Y-67387808D01*
X94626799Y-67245162D01*
X94579923Y-67245121D01*
X66200000Y-38865198D01*
X66200000Y-31142463D01*
X66232192Y-31110327D01*
X66233170Y-31107972D01*
X83645198Y-48520000D01*
X83645198Y-48520000D01*
G37*
X83645198Y-48520000D02*
X83582463Y-48520000D01*
X83550327Y-48487808D01*
X83206799Y-48345162D01*
X82834833Y-48344838D01*
X82491057Y-48486883D01*
X82227808Y-48749673D01*
X82085162Y-49093201D01*
X82084838Y-49465167D01*
X82226883Y-49808943D01*
X82489673Y-50072192D01*
X82833201Y-50214838D01*
X83205167Y-50215162D01*
X83548943Y-50073117D01*
X83582118Y-50040000D01*
X83705198Y-50040000D01*
X86724878Y-53059680D01*
X86724838Y-53105167D01*
X86866883Y-53448943D01*
X87129673Y-53712192D01*
X87473201Y-53854838D01*
X87845167Y-53855162D01*
X88188943Y-53713117D01*
X88452192Y-53450327D01*
X88488379Y-53363181D01*
X95010000Y-59884802D01*
X95010000Y-67427550D01*
X94970327Y-67387808D01*
X94626799Y-67245162D01*
X94579923Y-67245121D01*
X66200000Y-38865198D01*
X66200000Y-31142463D01*
X66232192Y-31110327D01*
X66233170Y-31107972D01*
X83645198Y-48520000D01*
M02*
