G04 #@! TF.FileFunction,Legend,Top*
%FSLAX46Y46*%
G04 Gerber Fmt 4.6, Leading zero omitted, Abs format (unit mm)*
G04 Created by KiCad (PCBNEW 4.0.7) date 06/14/18 07:18:42*
%MOMM*%
%LPD*%
G01*
G04 APERTURE LIST*
%ADD10C,0.100000*%
%ADD11C,0.200000*%
%ADD12C,0.300000*%
%ADD13C,0.120000*%
%ADD14C,0.800000*%
%ADD15C,0.127000*%
%ADD16C,0.150000*%
%ADD17C,0.500000*%
%ADD18C,0.152400*%
%ADD19C,0.254000*%
%ADD20C,0.050000*%
G04 APERTURE END LIST*
D10*
D11*
X64982381Y-123662857D02*
X64982381Y-124139048D01*
X65458571Y-124186667D01*
X65410952Y-124139048D01*
X65363333Y-124043810D01*
X65363333Y-123805714D01*
X65410952Y-123710476D01*
X65458571Y-123662857D01*
X65553810Y-123615238D01*
X65791905Y-123615238D01*
X65887143Y-123662857D01*
X65934762Y-123710476D01*
X65982381Y-123805714D01*
X65982381Y-124043810D01*
X65934762Y-124139048D01*
X65887143Y-124186667D01*
X65315714Y-123281905D02*
X65982381Y-123043810D01*
X65315714Y-122805714D01*
X68552381Y-124107619D02*
X68076190Y-124440953D01*
X68552381Y-124679048D02*
X67552381Y-124679048D01*
X67552381Y-124298095D01*
X67600000Y-124202857D01*
X67647619Y-124155238D01*
X67742857Y-124107619D01*
X67885714Y-124107619D01*
X67980952Y-124155238D01*
X68028571Y-124202857D01*
X68076190Y-124298095D01*
X68076190Y-124679048D01*
X68504762Y-123726667D02*
X68552381Y-123583810D01*
X68552381Y-123345714D01*
X68504762Y-123250476D01*
X68457143Y-123202857D01*
X68361905Y-123155238D01*
X68266667Y-123155238D01*
X68171429Y-123202857D01*
X68123810Y-123250476D01*
X68076190Y-123345714D01*
X68028571Y-123536191D01*
X67980952Y-123631429D01*
X67933333Y-123679048D01*
X67838095Y-123726667D01*
X67742857Y-123726667D01*
X67647619Y-123679048D01*
X67600000Y-123631429D01*
X67552381Y-123536191D01*
X67552381Y-123298095D01*
X67600000Y-123155238D01*
X67552381Y-122869524D02*
X67552381Y-122298095D01*
X68552381Y-122583810D02*
X67552381Y-122583810D01*
X71092381Y-125071428D02*
X70092381Y-125071428D01*
X70806667Y-124738094D01*
X70092381Y-124404761D01*
X71092381Y-124404761D01*
X71092381Y-123928571D02*
X70092381Y-123928571D01*
X71044762Y-123500000D02*
X71092381Y-123357143D01*
X71092381Y-123119047D01*
X71044762Y-123023809D01*
X70997143Y-122976190D01*
X70901905Y-122928571D01*
X70806667Y-122928571D01*
X70711429Y-122976190D01*
X70663810Y-123023809D01*
X70616190Y-123119047D01*
X70568571Y-123309524D01*
X70520952Y-123404762D01*
X70473333Y-123452381D01*
X70378095Y-123500000D01*
X70282857Y-123500000D01*
X70187619Y-123452381D01*
X70140000Y-123404762D01*
X70092381Y-123309524D01*
X70092381Y-123071428D01*
X70140000Y-122928571D01*
X70092381Y-122309524D02*
X70092381Y-122119047D01*
X70140000Y-122023809D01*
X70235238Y-121928571D01*
X70425714Y-121880952D01*
X70759048Y-121880952D01*
X70949524Y-121928571D01*
X71044762Y-122023809D01*
X71092381Y-122119047D01*
X71092381Y-122309524D01*
X71044762Y-122404762D01*
X70949524Y-122500000D01*
X70759048Y-122547619D01*
X70425714Y-122547619D01*
X70235238Y-122500000D01*
X70140000Y-122404762D01*
X70092381Y-122309524D01*
X73542381Y-125011428D02*
X72542381Y-125011428D01*
X73256667Y-124678094D01*
X72542381Y-124344761D01*
X73542381Y-124344761D01*
X72542381Y-123678095D02*
X72542381Y-123487618D01*
X72590000Y-123392380D01*
X72685238Y-123297142D01*
X72875714Y-123249523D01*
X73209048Y-123249523D01*
X73399524Y-123297142D01*
X73494762Y-123392380D01*
X73542381Y-123487618D01*
X73542381Y-123678095D01*
X73494762Y-123773333D01*
X73399524Y-123868571D01*
X73209048Y-123916190D01*
X72875714Y-123916190D01*
X72685238Y-123868571D01*
X72590000Y-123773333D01*
X72542381Y-123678095D01*
X73494762Y-122868571D02*
X73542381Y-122725714D01*
X73542381Y-122487618D01*
X73494762Y-122392380D01*
X73447143Y-122344761D01*
X73351905Y-122297142D01*
X73256667Y-122297142D01*
X73161429Y-122344761D01*
X73113810Y-122392380D01*
X73066190Y-122487618D01*
X73018571Y-122678095D01*
X72970952Y-122773333D01*
X72923333Y-122820952D01*
X72828095Y-122868571D01*
X72732857Y-122868571D01*
X72637619Y-122820952D01*
X72590000Y-122773333D01*
X72542381Y-122678095D01*
X72542381Y-122439999D01*
X72590000Y-122297142D01*
X73542381Y-121868571D02*
X72542381Y-121868571D01*
X76024762Y-124705714D02*
X76072381Y-124562857D01*
X76072381Y-124324761D01*
X76024762Y-124229523D01*
X75977143Y-124181904D01*
X75881905Y-124134285D01*
X75786667Y-124134285D01*
X75691429Y-124181904D01*
X75643810Y-124229523D01*
X75596190Y-124324761D01*
X75548571Y-124515238D01*
X75500952Y-124610476D01*
X75453333Y-124658095D01*
X75358095Y-124705714D01*
X75262857Y-124705714D01*
X75167619Y-124658095D01*
X75120000Y-124610476D01*
X75072381Y-124515238D01*
X75072381Y-124277142D01*
X75120000Y-124134285D01*
X75977143Y-123134285D02*
X76024762Y-123181904D01*
X76072381Y-123324761D01*
X76072381Y-123419999D01*
X76024762Y-123562857D01*
X75929524Y-123658095D01*
X75834286Y-123705714D01*
X75643810Y-123753333D01*
X75500952Y-123753333D01*
X75310476Y-123705714D01*
X75215238Y-123658095D01*
X75120000Y-123562857D01*
X75072381Y-123419999D01*
X75072381Y-123324761D01*
X75120000Y-123181904D01*
X75167619Y-123134285D01*
X76072381Y-122705714D02*
X75072381Y-122705714D01*
X76072381Y-122134285D02*
X75500952Y-122562857D01*
X75072381Y-122134285D02*
X75643810Y-122705714D01*
D12*
X65475715Y-120472857D02*
X65690001Y-120544286D01*
X65761429Y-120615714D01*
X65832858Y-120758571D01*
X65832858Y-120972857D01*
X65761429Y-121115714D01*
X65690001Y-121187143D01*
X65547143Y-121258571D01*
X64975715Y-121258571D01*
X64975715Y-119758571D01*
X65475715Y-119758571D01*
X65618572Y-119830000D01*
X65690001Y-119901429D01*
X65761429Y-120044286D01*
X65761429Y-120187143D01*
X65690001Y-120330000D01*
X65618572Y-120401429D01*
X65475715Y-120472857D01*
X64975715Y-120472857D01*
X66690001Y-121258571D02*
X66547143Y-121187143D01*
X66475715Y-121115714D01*
X66404286Y-120972857D01*
X66404286Y-120544286D01*
X66475715Y-120401429D01*
X66547143Y-120330000D01*
X66690001Y-120258571D01*
X66904286Y-120258571D01*
X67047143Y-120330000D01*
X67118572Y-120401429D01*
X67190001Y-120544286D01*
X67190001Y-120972857D01*
X67118572Y-121115714D01*
X67047143Y-121187143D01*
X66904286Y-121258571D01*
X66690001Y-121258571D01*
X68047144Y-121258571D02*
X67904286Y-121187143D01*
X67832858Y-121115714D01*
X67761429Y-120972857D01*
X67761429Y-120544286D01*
X67832858Y-120401429D01*
X67904286Y-120330000D01*
X68047144Y-120258571D01*
X68261429Y-120258571D01*
X68404286Y-120330000D01*
X68475715Y-120401429D01*
X68547144Y-120544286D01*
X68547144Y-120972857D01*
X68475715Y-121115714D01*
X68404286Y-121187143D01*
X68261429Y-121258571D01*
X68047144Y-121258571D01*
X68975715Y-120258571D02*
X69547144Y-120258571D01*
X69190001Y-119758571D02*
X69190001Y-121044286D01*
X69261429Y-121187143D01*
X69404287Y-121258571D01*
X69547144Y-121258571D01*
X70261430Y-121258571D02*
X70118572Y-121187143D01*
X70047144Y-121044286D01*
X70047144Y-119758571D01*
X71047144Y-121258571D02*
X70904286Y-121187143D01*
X70832858Y-121115714D01*
X70761429Y-120972857D01*
X70761429Y-120544286D01*
X70832858Y-120401429D01*
X70904286Y-120330000D01*
X71047144Y-120258571D01*
X71261429Y-120258571D01*
X71404286Y-120330000D01*
X71475715Y-120401429D01*
X71547144Y-120544286D01*
X71547144Y-120972857D01*
X71475715Y-121115714D01*
X71404286Y-121187143D01*
X71261429Y-121258571D01*
X71047144Y-121258571D01*
X72832858Y-121258571D02*
X72832858Y-120472857D01*
X72761429Y-120330000D01*
X72618572Y-120258571D01*
X72332858Y-120258571D01*
X72190001Y-120330000D01*
X72832858Y-121187143D02*
X72690001Y-121258571D01*
X72332858Y-121258571D01*
X72190001Y-121187143D01*
X72118572Y-121044286D01*
X72118572Y-120901429D01*
X72190001Y-120758571D01*
X72332858Y-120687143D01*
X72690001Y-120687143D01*
X72832858Y-120615714D01*
X74190001Y-121258571D02*
X74190001Y-119758571D01*
X74190001Y-121187143D02*
X74047144Y-121258571D01*
X73761430Y-121258571D01*
X73618572Y-121187143D01*
X73547144Y-121115714D01*
X73475715Y-120972857D01*
X73475715Y-120544286D01*
X73547144Y-120401429D01*
X73618572Y-120330000D01*
X73761430Y-120258571D01*
X74047144Y-120258571D01*
X74190001Y-120330000D01*
X75475715Y-121187143D02*
X75332858Y-121258571D01*
X75047144Y-121258571D01*
X74904287Y-121187143D01*
X74832858Y-121044286D01*
X74832858Y-120472857D01*
X74904287Y-120330000D01*
X75047144Y-120258571D01*
X75332858Y-120258571D01*
X75475715Y-120330000D01*
X75547144Y-120472857D01*
X75547144Y-120615714D01*
X74832858Y-120758571D01*
X76190001Y-121258571D02*
X76190001Y-120258571D01*
X76190001Y-120544286D02*
X76261429Y-120401429D01*
X76332858Y-120330000D01*
X76475715Y-120258571D01*
X76618572Y-120258571D01*
X197335000Y-62757143D02*
X197335000Y-63471429D01*
X196906429Y-62614286D02*
X198406429Y-63114286D01*
X196906429Y-63614286D01*
X196906429Y-64114286D02*
X197906429Y-64114286D01*
X198406429Y-64114286D02*
X198335000Y-64042857D01*
X198263571Y-64114286D01*
X198335000Y-64185714D01*
X198406429Y-64114286D01*
X198263571Y-64114286D01*
X196906429Y-64828572D02*
X197906429Y-64828572D01*
X197620714Y-64828572D02*
X197763571Y-64900000D01*
X197835000Y-64971429D01*
X197906429Y-65114286D01*
X197906429Y-65257143D01*
X196977857Y-66400000D02*
X196906429Y-66257143D01*
X196906429Y-65971429D01*
X196977857Y-65828571D01*
X197049286Y-65757143D01*
X197192143Y-65685714D01*
X197620714Y-65685714D01*
X197763571Y-65757143D01*
X197835000Y-65828571D01*
X197906429Y-65971429D01*
X197906429Y-66257143D01*
X197835000Y-66400000D01*
X196906429Y-67042857D02*
X198406429Y-67042857D01*
X196906429Y-67685714D02*
X197692143Y-67685714D01*
X197835000Y-67614285D01*
X197906429Y-67471428D01*
X197906429Y-67257143D01*
X197835000Y-67114285D01*
X197763571Y-67042857D01*
X196906429Y-68400000D02*
X197906429Y-68400000D01*
X198406429Y-68400000D02*
X198335000Y-68328571D01*
X198263571Y-68400000D01*
X198335000Y-68471428D01*
X198406429Y-68400000D01*
X198263571Y-68400000D01*
X197906429Y-69114286D02*
X196406429Y-69114286D01*
X197835000Y-69114286D02*
X197906429Y-69257143D01*
X197906429Y-69542857D01*
X197835000Y-69685714D01*
X197763571Y-69757143D01*
X197620714Y-69828572D01*
X197192143Y-69828572D01*
X197049286Y-69757143D01*
X196977857Y-69685714D01*
X196906429Y-69542857D01*
X196906429Y-69257143D01*
X196977857Y-69114286D01*
X198406429Y-71400000D02*
X198406429Y-72257143D01*
X196906429Y-71828572D02*
X198406429Y-71828572D01*
X196977857Y-73328571D02*
X196906429Y-73185714D01*
X196906429Y-72900000D01*
X196977857Y-72757143D01*
X197120714Y-72685714D01*
X197692143Y-72685714D01*
X197835000Y-72757143D01*
X197906429Y-72900000D01*
X197906429Y-73185714D01*
X197835000Y-73328571D01*
X197692143Y-73400000D01*
X197549286Y-73400000D01*
X197406429Y-72685714D01*
X196977857Y-74685714D02*
X196906429Y-74542857D01*
X196906429Y-74257143D01*
X196977857Y-74114285D01*
X197049286Y-74042857D01*
X197192143Y-73971428D01*
X197620714Y-73971428D01*
X197763571Y-74042857D01*
X197835000Y-74114285D01*
X197906429Y-74257143D01*
X197906429Y-74542857D01*
X197835000Y-74685714D01*
X196906429Y-75328571D02*
X198406429Y-75328571D01*
X196906429Y-75971428D02*
X197692143Y-75971428D01*
X197835000Y-75899999D01*
X197906429Y-75757142D01*
X197906429Y-75542857D01*
X197835000Y-75399999D01*
X197763571Y-75328571D01*
X194785000Y-56042858D02*
X194785000Y-56757144D01*
X194356429Y-55900001D02*
X195856429Y-56400001D01*
X194356429Y-56900001D01*
X195856429Y-57185715D02*
X195856429Y-58042858D01*
X194356429Y-57614287D02*
X195856429Y-57614287D01*
X194356429Y-58542858D02*
X195856429Y-58542858D01*
X194785000Y-59042858D01*
X195856429Y-59542858D01*
X194356429Y-59542858D01*
X194427857Y-60828572D02*
X194356429Y-60685715D01*
X194356429Y-60400001D01*
X194427857Y-60257144D01*
X194570714Y-60185715D01*
X195142143Y-60185715D01*
X195285000Y-60257144D01*
X195356429Y-60400001D01*
X195356429Y-60685715D01*
X195285000Y-60828572D01*
X195142143Y-60900001D01*
X194999286Y-60900001D01*
X194856429Y-60185715D01*
X195356429Y-62185715D02*
X194142143Y-62185715D01*
X193999286Y-62114286D01*
X193927857Y-62042858D01*
X193856429Y-61900001D01*
X193856429Y-61685715D01*
X193927857Y-61542858D01*
X194427857Y-62185715D02*
X194356429Y-62042858D01*
X194356429Y-61757144D01*
X194427857Y-61614286D01*
X194499286Y-61542858D01*
X194642143Y-61471429D01*
X195070714Y-61471429D01*
X195213571Y-61542858D01*
X195285000Y-61614286D01*
X195356429Y-61757144D01*
X195356429Y-62042858D01*
X195285000Y-62185715D01*
X194356429Y-63542858D02*
X195142143Y-63542858D01*
X195285000Y-63471429D01*
X195356429Y-63328572D01*
X195356429Y-63042858D01*
X195285000Y-62900001D01*
X194427857Y-63542858D02*
X194356429Y-63400001D01*
X194356429Y-63042858D01*
X194427857Y-62900001D01*
X194570714Y-62828572D01*
X194713571Y-62828572D01*
X194856429Y-62900001D01*
X194927857Y-63042858D01*
X194927857Y-63400001D01*
X194999286Y-63542858D01*
X195713571Y-64185715D02*
X195785000Y-64257144D01*
X195856429Y-64400001D01*
X195856429Y-64757144D01*
X195785000Y-64900001D01*
X195713571Y-64971430D01*
X195570714Y-65042858D01*
X195427857Y-65042858D01*
X195213571Y-64971430D01*
X194356429Y-64114287D01*
X194356429Y-65042858D01*
X195856429Y-66400001D02*
X195856429Y-65685715D01*
X195142143Y-65614286D01*
X195213571Y-65685715D01*
X195285000Y-65828572D01*
X195285000Y-66185715D01*
X195213571Y-66328572D01*
X195142143Y-66400001D01*
X194999286Y-66471429D01*
X194642143Y-66471429D01*
X194499286Y-66400001D01*
X194427857Y-66328572D01*
X194356429Y-66185715D01*
X194356429Y-65828572D01*
X194427857Y-65685715D01*
X194499286Y-65614286D01*
X195856429Y-67757143D02*
X195856429Y-67471429D01*
X195785000Y-67328572D01*
X195713571Y-67257143D01*
X195499286Y-67114286D01*
X195213571Y-67042857D01*
X194642143Y-67042857D01*
X194499286Y-67114286D01*
X194427857Y-67185714D01*
X194356429Y-67328572D01*
X194356429Y-67614286D01*
X194427857Y-67757143D01*
X194499286Y-67828572D01*
X194642143Y-67900000D01*
X194999286Y-67900000D01*
X195142143Y-67828572D01*
X195213571Y-67757143D01*
X195285000Y-67614286D01*
X195285000Y-67328572D01*
X195213571Y-67185714D01*
X195142143Y-67114286D01*
X194999286Y-67042857D01*
X195856429Y-68828571D02*
X195856429Y-68971428D01*
X195785000Y-69114285D01*
X195713571Y-69185714D01*
X195570714Y-69257143D01*
X195285000Y-69328571D01*
X194927857Y-69328571D01*
X194642143Y-69257143D01*
X194499286Y-69185714D01*
X194427857Y-69114285D01*
X194356429Y-68971428D01*
X194356429Y-68828571D01*
X194427857Y-68685714D01*
X194499286Y-68614285D01*
X194642143Y-68542857D01*
X194927857Y-68471428D01*
X195285000Y-68471428D01*
X195570714Y-68542857D01*
X195713571Y-68614285D01*
X195785000Y-68685714D01*
X195856429Y-68828571D01*
X194356429Y-71114285D02*
X195856429Y-71114285D01*
X195856429Y-71471428D01*
X195785000Y-71685713D01*
X195642143Y-71828571D01*
X195499286Y-71899999D01*
X195213571Y-71971428D01*
X194999286Y-71971428D01*
X194713571Y-71899999D01*
X194570714Y-71828571D01*
X194427857Y-71685713D01*
X194356429Y-71471428D01*
X194356429Y-71114285D01*
X194427857Y-73185713D02*
X194356429Y-73042856D01*
X194356429Y-72757142D01*
X194427857Y-72614285D01*
X194570714Y-72542856D01*
X195142143Y-72542856D01*
X195285000Y-72614285D01*
X195356429Y-72757142D01*
X195356429Y-73042856D01*
X195285000Y-73185713D01*
X195142143Y-73257142D01*
X194999286Y-73257142D01*
X194856429Y-72542856D01*
X195356429Y-73757142D02*
X194356429Y-74114285D01*
X195356429Y-74471427D01*
X194499286Y-75042856D02*
X194427857Y-75114284D01*
X194356429Y-75042856D01*
X194427857Y-74971427D01*
X194499286Y-75042856D01*
X194356429Y-75042856D01*
X195142143Y-77399999D02*
X195070714Y-77614285D01*
X194999286Y-77685713D01*
X194856429Y-77757142D01*
X194642143Y-77757142D01*
X194499286Y-77685713D01*
X194427857Y-77614285D01*
X194356429Y-77471427D01*
X194356429Y-76899999D01*
X195856429Y-76899999D01*
X195856429Y-77399999D01*
X195785000Y-77542856D01*
X195713571Y-77614285D01*
X195570714Y-77685713D01*
X195427857Y-77685713D01*
X195285000Y-77614285D01*
X195213571Y-77542856D01*
X195142143Y-77399999D01*
X195142143Y-76899999D01*
X194356429Y-78614285D02*
X194427857Y-78471427D01*
X194499286Y-78399999D01*
X194642143Y-78328570D01*
X195070714Y-78328570D01*
X195213571Y-78399999D01*
X195285000Y-78471427D01*
X195356429Y-78614285D01*
X195356429Y-78828570D01*
X195285000Y-78971427D01*
X195213571Y-79042856D01*
X195070714Y-79114285D01*
X194642143Y-79114285D01*
X194499286Y-79042856D01*
X194427857Y-78971427D01*
X194356429Y-78828570D01*
X194356429Y-78614285D01*
X194356429Y-80399999D02*
X195142143Y-80399999D01*
X195285000Y-80328570D01*
X195356429Y-80185713D01*
X195356429Y-79899999D01*
X195285000Y-79757142D01*
X194427857Y-80399999D02*
X194356429Y-80257142D01*
X194356429Y-79899999D01*
X194427857Y-79757142D01*
X194570714Y-79685713D01*
X194713571Y-79685713D01*
X194856429Y-79757142D01*
X194927857Y-79899999D01*
X194927857Y-80257142D01*
X194999286Y-80399999D01*
X194356429Y-81114285D02*
X195356429Y-81114285D01*
X195070714Y-81114285D02*
X195213571Y-81185713D01*
X195285000Y-81257142D01*
X195356429Y-81399999D01*
X195356429Y-81542856D01*
X194356429Y-82685713D02*
X195856429Y-82685713D01*
X194427857Y-82685713D02*
X194356429Y-82542856D01*
X194356429Y-82257142D01*
X194427857Y-82114284D01*
X194499286Y-82042856D01*
X194642143Y-81971427D01*
X195070714Y-81971427D01*
X195213571Y-82042856D01*
X195285000Y-82114284D01*
X195356429Y-82257142D01*
X195356429Y-82542856D01*
X195285000Y-82685713D01*
X80808572Y-32167143D02*
X81951429Y-32167143D01*
X81380000Y-32738571D02*
X81380000Y-31595714D01*
D11*
X59349048Y-69012381D02*
X59015714Y-68536190D01*
X58777619Y-69012381D02*
X58777619Y-68012381D01*
X59158572Y-68012381D01*
X59253810Y-68060000D01*
X59301429Y-68107619D01*
X59349048Y-68202857D01*
X59349048Y-68345714D01*
X59301429Y-68440952D01*
X59253810Y-68488571D01*
X59158572Y-68536190D01*
X58777619Y-68536190D01*
X59730000Y-68964762D02*
X59825238Y-69012381D01*
X60015714Y-69012381D01*
X60110953Y-68964762D01*
X60158572Y-68869524D01*
X60158572Y-68821905D01*
X60110953Y-68726667D01*
X60015714Y-68679048D01*
X59872857Y-68679048D01*
X59777619Y-68631429D01*
X59730000Y-68536190D01*
X59730000Y-68488571D01*
X59777619Y-68393333D01*
X59872857Y-68345714D01*
X60015714Y-68345714D01*
X60110953Y-68393333D01*
X60444286Y-68345714D02*
X60825238Y-68345714D01*
X60587143Y-68012381D02*
X60587143Y-68869524D01*
X60634762Y-68964762D01*
X60730000Y-69012381D01*
X60825238Y-69012381D01*
X59760000Y-78217143D02*
X59807619Y-78121905D01*
X59807619Y-77979048D01*
X59760000Y-77836190D01*
X59664762Y-77740952D01*
X59569524Y-77693333D01*
X59379048Y-77645714D01*
X59236190Y-77645714D01*
X59045714Y-77693333D01*
X58950476Y-77740952D01*
X58855238Y-77836190D01*
X58807619Y-77979048D01*
X58807619Y-78074286D01*
X58855238Y-78217143D01*
X58902857Y-78264762D01*
X59236190Y-78264762D01*
X59236190Y-78074286D01*
X59474286Y-78693333D02*
X58807619Y-78693333D01*
X59379048Y-78693333D02*
X59426667Y-78740952D01*
X59474286Y-78836190D01*
X59474286Y-78979048D01*
X59426667Y-79074286D01*
X59331429Y-79121905D01*
X58807619Y-79121905D01*
X58807619Y-80026667D02*
X59807619Y-80026667D01*
X58855238Y-80026667D02*
X58807619Y-79931429D01*
X58807619Y-79740952D01*
X58855238Y-79645714D01*
X58902857Y-79598095D01*
X58998095Y-79550476D01*
X59283810Y-79550476D01*
X59379048Y-79598095D01*
X59426667Y-79645714D01*
X59474286Y-79740952D01*
X59474286Y-79931429D01*
X59426667Y-80026667D01*
X59329524Y-75862381D02*
X58853333Y-75862381D01*
X58805714Y-76338571D01*
X58853333Y-76290952D01*
X58948571Y-76243333D01*
X59186667Y-76243333D01*
X59281905Y-76290952D01*
X59329524Y-76338571D01*
X59377143Y-76433810D01*
X59377143Y-76671905D01*
X59329524Y-76767143D01*
X59281905Y-76814762D01*
X59186667Y-76862381D01*
X58948571Y-76862381D01*
X58853333Y-76814762D01*
X58805714Y-76767143D01*
X59662857Y-75862381D02*
X59996190Y-76862381D01*
X60329524Y-75862381D01*
X58758095Y-73182381D02*
X59329524Y-73182381D01*
X59043809Y-74182381D02*
X59043809Y-73182381D01*
X59567619Y-73182381D02*
X60234286Y-74182381D01*
X60234286Y-73182381D02*
X59567619Y-74182381D01*
X59383334Y-71762381D02*
X59050000Y-71286190D01*
X58811905Y-71762381D02*
X58811905Y-70762381D01*
X59192858Y-70762381D01*
X59288096Y-70810000D01*
X59335715Y-70857619D01*
X59383334Y-70952857D01*
X59383334Y-71095714D01*
X59335715Y-71190952D01*
X59288096Y-71238571D01*
X59192858Y-71286190D01*
X58811905Y-71286190D01*
X59716667Y-70762381D02*
X60383334Y-71762381D01*
X60383334Y-70762381D02*
X59716667Y-71762381D01*
D12*
X193550000Y-122582857D02*
X193764286Y-122654286D01*
X193835714Y-122725714D01*
X193907143Y-122868571D01*
X193907143Y-123082857D01*
X193835714Y-123225714D01*
X193764286Y-123297143D01*
X193621428Y-123368571D01*
X193050000Y-123368571D01*
X193050000Y-121868571D01*
X193550000Y-121868571D01*
X193692857Y-121940000D01*
X193764286Y-122011429D01*
X193835714Y-122154286D01*
X193835714Y-122297143D01*
X193764286Y-122440000D01*
X193692857Y-122511429D01*
X193550000Y-122582857D01*
X193050000Y-122582857D01*
X194335714Y-121868571D02*
X195192857Y-121868571D01*
X194764286Y-123368571D02*
X194764286Y-121868571D01*
X195692857Y-123368571D02*
X195692857Y-121868571D01*
X196550000Y-123368571D01*
X196550000Y-121868571D01*
X55761429Y-112160000D02*
X57261429Y-112160000D01*
X57261429Y-112731428D01*
X57190000Y-112874286D01*
X57118571Y-112945714D01*
X56975714Y-113017143D01*
X56761429Y-113017143D01*
X56618571Y-112945714D01*
X56547143Y-112874286D01*
X56475714Y-112731428D01*
X56475714Y-112160000D01*
X57261429Y-113517143D02*
X55761429Y-113874286D01*
X56832857Y-114160000D01*
X55761429Y-114445714D01*
X57261429Y-114802857D01*
X55761429Y-116231429D02*
X56475714Y-115731429D01*
X55761429Y-115374286D02*
X57261429Y-115374286D01*
X57261429Y-115945714D01*
X57190000Y-116088572D01*
X57118571Y-116160000D01*
X56975714Y-116231429D01*
X56761429Y-116231429D01*
X56618571Y-116160000D01*
X56547143Y-116088572D01*
X56475714Y-115945714D01*
X56475714Y-115374286D01*
X87858572Y-50510000D02*
X88572858Y-50510000D01*
X87715715Y-50938571D02*
X88215715Y-49438571D01*
X88715715Y-50938571D01*
X89072858Y-49438571D02*
X90001429Y-49438571D01*
X89501429Y-50010000D01*
X89715715Y-50010000D01*
X89858572Y-50081429D01*
X89930001Y-50152857D01*
X90001429Y-50295714D01*
X90001429Y-50652857D01*
X89930001Y-50795714D01*
X89858572Y-50867143D01*
X89715715Y-50938571D01*
X89287143Y-50938571D01*
X89144286Y-50867143D01*
X89072858Y-50795714D01*
X87878572Y-42680000D02*
X88592858Y-42680000D01*
X87735715Y-43108571D02*
X88235715Y-41608571D01*
X88735715Y-43108571D01*
X89521429Y-41608571D02*
X89664286Y-41608571D01*
X89807143Y-41680000D01*
X89878572Y-41751429D01*
X89950001Y-41894286D01*
X90021429Y-42180000D01*
X90021429Y-42537143D01*
X89950001Y-42822857D01*
X89878572Y-42965714D01*
X89807143Y-43037143D01*
X89664286Y-43108571D01*
X89521429Y-43108571D01*
X89378572Y-43037143D01*
X89307143Y-42965714D01*
X89235715Y-42822857D01*
X89164286Y-42537143D01*
X89164286Y-42180000D01*
X89235715Y-41894286D01*
X89307143Y-41751429D01*
X89378572Y-41680000D01*
X89521429Y-41608571D01*
X86488572Y-40468571D02*
X86488572Y-38968571D01*
X86845715Y-38968571D01*
X87060000Y-39040000D01*
X87202858Y-39182857D01*
X87274286Y-39325714D01*
X87345715Y-39611429D01*
X87345715Y-39825714D01*
X87274286Y-40111429D01*
X87202858Y-40254286D01*
X87060000Y-40397143D01*
X86845715Y-40468571D01*
X86488572Y-40468571D01*
X87917143Y-39111429D02*
X87988572Y-39040000D01*
X88131429Y-38968571D01*
X88488572Y-38968571D01*
X88631429Y-39040000D01*
X88702858Y-39111429D01*
X88774286Y-39254286D01*
X88774286Y-39397143D01*
X88702858Y-39611429D01*
X87845715Y-40468571D01*
X88774286Y-40468571D01*
X89631429Y-39611429D02*
X89488571Y-39540000D01*
X89417143Y-39468571D01*
X89345714Y-39325714D01*
X89345714Y-39254286D01*
X89417143Y-39111429D01*
X89488571Y-39040000D01*
X89631429Y-38968571D01*
X89917143Y-38968571D01*
X90060000Y-39040000D01*
X90131429Y-39111429D01*
X90202857Y-39254286D01*
X90202857Y-39325714D01*
X90131429Y-39468571D01*
X90060000Y-39540000D01*
X89917143Y-39611429D01*
X89631429Y-39611429D01*
X89488571Y-39682857D01*
X89417143Y-39754286D01*
X89345714Y-39897143D01*
X89345714Y-40182857D01*
X89417143Y-40325714D01*
X89488571Y-40397143D01*
X89631429Y-40468571D01*
X89917143Y-40468571D01*
X90060000Y-40397143D01*
X90131429Y-40325714D01*
X90202857Y-40182857D01*
X90202857Y-39897143D01*
X90131429Y-39754286D01*
X90060000Y-39682857D01*
X89917143Y-39611429D01*
X86088572Y-33078571D02*
X86088572Y-31578571D01*
X86445715Y-31578571D01*
X86660000Y-31650000D01*
X86802858Y-31792857D01*
X86874286Y-31935714D01*
X86945715Y-32221429D01*
X86945715Y-32435714D01*
X86874286Y-32721429D01*
X86802858Y-32864286D01*
X86660000Y-33007143D01*
X86445715Y-33078571D01*
X86088572Y-33078571D01*
X87517143Y-31721429D02*
X87588572Y-31650000D01*
X87731429Y-31578571D01*
X88088572Y-31578571D01*
X88231429Y-31650000D01*
X88302858Y-31721429D01*
X88374286Y-31864286D01*
X88374286Y-32007143D01*
X88302858Y-32221429D01*
X87445715Y-33078571D01*
X88374286Y-33078571D01*
X89731429Y-31578571D02*
X89017143Y-31578571D01*
X88945714Y-32292857D01*
X89017143Y-32221429D01*
X89160000Y-32150000D01*
X89517143Y-32150000D01*
X89660000Y-32221429D01*
X89731429Y-32292857D01*
X89802857Y-32435714D01*
X89802857Y-32792857D01*
X89731429Y-32935714D01*
X89660000Y-33007143D01*
X89517143Y-33078571D01*
X89160000Y-33078571D01*
X89017143Y-33007143D01*
X88945714Y-32935714D01*
D11*
X165484762Y-123667619D02*
X165532381Y-123524762D01*
X165532381Y-123286666D01*
X165484762Y-123191428D01*
X165437143Y-123143809D01*
X165341905Y-123096190D01*
X165246667Y-123096190D01*
X165151429Y-123143809D01*
X165103810Y-123191428D01*
X165056190Y-123286666D01*
X165008571Y-123477143D01*
X164960952Y-123572381D01*
X164913333Y-123620000D01*
X164818095Y-123667619D01*
X164722857Y-123667619D01*
X164627619Y-123620000D01*
X164580000Y-123572381D01*
X164532381Y-123477143D01*
X164532381Y-123239047D01*
X164580000Y-123096190D01*
X165532381Y-122667619D02*
X164532381Y-122667619D01*
X165532381Y-122191429D02*
X164532381Y-122191429D01*
X165532381Y-121620000D01*
X164532381Y-121620000D01*
X168132381Y-123650476D02*
X167132381Y-123650476D01*
X167132381Y-123412381D01*
X167180000Y-123269523D01*
X167275238Y-123174285D01*
X167370476Y-123126666D01*
X167560952Y-123079047D01*
X167703810Y-123079047D01*
X167894286Y-123126666D01*
X167989524Y-123174285D01*
X168084762Y-123269523D01*
X168132381Y-123412381D01*
X168132381Y-123650476D01*
X167084762Y-121936190D02*
X168370476Y-122793333D01*
X168132381Y-121126666D02*
X168132381Y-121602857D01*
X167132381Y-121602857D01*
X160961429Y-122632381D02*
X161580477Y-122632381D01*
X161247143Y-123013333D01*
X161390001Y-123013333D01*
X161485239Y-123060952D01*
X161532858Y-123108571D01*
X161580477Y-123203810D01*
X161580477Y-123441905D01*
X161532858Y-123537143D01*
X161485239Y-123584762D01*
X161390001Y-123632381D01*
X161104286Y-123632381D01*
X161009048Y-123584762D01*
X160961429Y-123537143D01*
X162009048Y-123537143D02*
X162056667Y-123584762D01*
X162009048Y-123632381D01*
X161961429Y-123584762D01*
X162009048Y-123537143D01*
X162009048Y-123632381D01*
X162390000Y-122632381D02*
X163009048Y-122632381D01*
X162675714Y-123013333D01*
X162818572Y-123013333D01*
X162913810Y-123060952D01*
X162961429Y-123108571D01*
X163009048Y-123203810D01*
X163009048Y-123441905D01*
X162961429Y-123537143D01*
X162913810Y-123584762D01*
X162818572Y-123632381D01*
X162532857Y-123632381D01*
X162437619Y-123584762D01*
X162390000Y-123537143D01*
X163342381Y-122965714D02*
X163580476Y-123632381D01*
X163818572Y-122965714D01*
X169810000Y-123182857D02*
X169762381Y-123278095D01*
X169762381Y-123420952D01*
X169810000Y-123563810D01*
X169905238Y-123659048D01*
X170000476Y-123706667D01*
X170190952Y-123754286D01*
X170333810Y-123754286D01*
X170524286Y-123706667D01*
X170619524Y-123659048D01*
X170714762Y-123563810D01*
X170762381Y-123420952D01*
X170762381Y-123325714D01*
X170714762Y-123182857D01*
X170667143Y-123135238D01*
X170333810Y-123135238D01*
X170333810Y-123325714D01*
X170095714Y-122706667D02*
X170762381Y-122706667D01*
X170190952Y-122706667D02*
X170143333Y-122659048D01*
X170095714Y-122563810D01*
X170095714Y-122420952D01*
X170143333Y-122325714D01*
X170238571Y-122278095D01*
X170762381Y-122278095D01*
X170762381Y-121373333D02*
X169762381Y-121373333D01*
X170714762Y-121373333D02*
X170762381Y-121468571D01*
X170762381Y-121659048D01*
X170714762Y-121754286D01*
X170667143Y-121801905D01*
X170571905Y-121849524D01*
X170286190Y-121849524D01*
X170190952Y-121801905D01*
X170143333Y-121754286D01*
X170095714Y-121659048D01*
X170095714Y-121468571D01*
X170143333Y-121373333D01*
D12*
X157440000Y-126048571D02*
X157440000Y-124548571D01*
X158011428Y-124548571D01*
X158154286Y-124620000D01*
X158225714Y-124691429D01*
X158297143Y-124834286D01*
X158297143Y-125048571D01*
X158225714Y-125191429D01*
X158154286Y-125262857D01*
X158011428Y-125334286D01*
X157440000Y-125334286D01*
X158940000Y-126048571D02*
X158940000Y-124548571D01*
X160511429Y-126048571D02*
X160011429Y-125334286D01*
X159654286Y-126048571D02*
X159654286Y-124548571D01*
X160225714Y-124548571D01*
X160368572Y-124620000D01*
X160440000Y-124691429D01*
X160511429Y-124834286D01*
X160511429Y-125048571D01*
X160440000Y-125191429D01*
X160368572Y-125262857D01*
X160225714Y-125334286D01*
X159654286Y-125334286D01*
X166282858Y-105518571D02*
X166282858Y-106732857D01*
X166354286Y-106875714D01*
X166425715Y-106947143D01*
X166568572Y-107018571D01*
X166854286Y-107018571D01*
X166997144Y-106947143D01*
X167068572Y-106875714D01*
X167140001Y-106732857D01*
X167140001Y-105518571D01*
X167782858Y-106947143D02*
X167997144Y-107018571D01*
X168354287Y-107018571D01*
X168497144Y-106947143D01*
X168568573Y-106875714D01*
X168640001Y-106732857D01*
X168640001Y-106590000D01*
X168568573Y-106447143D01*
X168497144Y-106375714D01*
X168354287Y-106304286D01*
X168068573Y-106232857D01*
X167925715Y-106161429D01*
X167854287Y-106090000D01*
X167782858Y-105947143D01*
X167782858Y-105804286D01*
X167854287Y-105661429D01*
X167925715Y-105590000D01*
X168068573Y-105518571D01*
X168425715Y-105518571D01*
X168640001Y-105590000D01*
X169211429Y-105661429D02*
X169282858Y-105590000D01*
X169425715Y-105518571D01*
X169782858Y-105518571D01*
X169925715Y-105590000D01*
X169997144Y-105661429D01*
X170068572Y-105804286D01*
X170068572Y-105947143D01*
X169997144Y-106161429D01*
X169140001Y-107018571D01*
X170068572Y-107018571D01*
X157352858Y-105708571D02*
X157352858Y-106922857D01*
X157424286Y-107065714D01*
X157495715Y-107137143D01*
X157638572Y-107208571D01*
X157924286Y-107208571D01*
X158067144Y-107137143D01*
X158138572Y-107065714D01*
X158210001Y-106922857D01*
X158210001Y-105708571D01*
X158852858Y-107137143D02*
X159067144Y-107208571D01*
X159424287Y-107208571D01*
X159567144Y-107137143D01*
X159638573Y-107065714D01*
X159710001Y-106922857D01*
X159710001Y-106780000D01*
X159638573Y-106637143D01*
X159567144Y-106565714D01*
X159424287Y-106494286D01*
X159138573Y-106422857D01*
X158995715Y-106351429D01*
X158924287Y-106280000D01*
X158852858Y-106137143D01*
X158852858Y-105994286D01*
X158924287Y-105851429D01*
X158995715Y-105780000D01*
X159138573Y-105708571D01*
X159495715Y-105708571D01*
X159710001Y-105780000D01*
X161138572Y-107208571D02*
X160281429Y-107208571D01*
X160710001Y-107208571D02*
X160710001Y-105708571D01*
X160567144Y-105922857D01*
X160424286Y-106065714D01*
X160281429Y-106137143D01*
X162668572Y-114672857D02*
X163168572Y-114672857D01*
X163382858Y-115458571D02*
X162668572Y-115458571D01*
X162668572Y-113958571D01*
X163382858Y-113958571D01*
X164882858Y-115315714D02*
X164811429Y-115387143D01*
X164597143Y-115458571D01*
X164454286Y-115458571D01*
X164240001Y-115387143D01*
X164097143Y-115244286D01*
X164025715Y-115101429D01*
X163954286Y-114815714D01*
X163954286Y-114601429D01*
X164025715Y-114315714D01*
X164097143Y-114172857D01*
X164240001Y-114030000D01*
X164454286Y-113958571D01*
X164597143Y-113958571D01*
X164811429Y-114030000D01*
X164882858Y-114101429D01*
X162451429Y-111208571D02*
X163308572Y-111208571D01*
X162880001Y-112708571D02*
X162880001Y-111208571D01*
X164665715Y-112708571D02*
X164165715Y-111994286D01*
X163808572Y-112708571D02*
X163808572Y-111208571D01*
X164380000Y-111208571D01*
X164522858Y-111280000D01*
X164594286Y-111351429D01*
X164665715Y-111494286D01*
X164665715Y-111708571D01*
X164594286Y-111851429D01*
X164522858Y-111922857D01*
X164380000Y-111994286D01*
X163808572Y-111994286D01*
X162705714Y-116640000D02*
X162562857Y-116568571D01*
X162348571Y-116568571D01*
X162134286Y-116640000D01*
X161991428Y-116782857D01*
X161920000Y-116925714D01*
X161848571Y-117211429D01*
X161848571Y-117425714D01*
X161920000Y-117711429D01*
X161991428Y-117854286D01*
X162134286Y-117997143D01*
X162348571Y-118068571D01*
X162491428Y-118068571D01*
X162705714Y-117997143D01*
X162777143Y-117925714D01*
X162777143Y-117425714D01*
X162491428Y-117425714D01*
X163420000Y-117068571D02*
X163420000Y-118068571D01*
X163420000Y-117211429D02*
X163491428Y-117140000D01*
X163634286Y-117068571D01*
X163848571Y-117068571D01*
X163991428Y-117140000D01*
X164062857Y-117282857D01*
X164062857Y-118068571D01*
X165420000Y-118068571D02*
X165420000Y-116568571D01*
X165420000Y-117997143D02*
X165277143Y-118068571D01*
X164991429Y-118068571D01*
X164848571Y-117997143D01*
X164777143Y-117925714D01*
X164705714Y-117782857D01*
X164705714Y-117354286D01*
X164777143Y-117211429D01*
X164848571Y-117140000D01*
X164991429Y-117068571D01*
X165277143Y-117068571D01*
X165420000Y-117140000D01*
X163485715Y-108688571D02*
X162771429Y-108688571D01*
X162700000Y-109402857D01*
X162771429Y-109331429D01*
X162914286Y-109260000D01*
X163271429Y-109260000D01*
X163414286Y-109331429D01*
X163485715Y-109402857D01*
X163557143Y-109545714D01*
X163557143Y-109902857D01*
X163485715Y-110045714D01*
X163414286Y-110117143D01*
X163271429Y-110188571D01*
X162914286Y-110188571D01*
X162771429Y-110117143D01*
X162700000Y-110045714D01*
X164057143Y-109188571D02*
X164414286Y-110188571D01*
X164771428Y-109188571D01*
X129617143Y-72475714D02*
X129688571Y-72261428D01*
X129688571Y-71904285D01*
X129617143Y-71761428D01*
X129545714Y-71689999D01*
X129402857Y-71618571D01*
X129260000Y-71618571D01*
X129117143Y-71689999D01*
X129045714Y-71761428D01*
X128974286Y-71904285D01*
X128902857Y-72189999D01*
X128831429Y-72332857D01*
X128760000Y-72404285D01*
X128617143Y-72475714D01*
X128474286Y-72475714D01*
X128331429Y-72404285D01*
X128260000Y-72332857D01*
X128188571Y-72189999D01*
X128188571Y-71832857D01*
X128260000Y-71618571D01*
X129545714Y-70118571D02*
X129617143Y-70190000D01*
X129688571Y-70404286D01*
X129688571Y-70547143D01*
X129617143Y-70761428D01*
X129474286Y-70904286D01*
X129331429Y-70975714D01*
X129045714Y-71047143D01*
X128831429Y-71047143D01*
X128545714Y-70975714D01*
X128402857Y-70904286D01*
X128260000Y-70761428D01*
X128188571Y-70547143D01*
X128188571Y-70404286D01*
X128260000Y-70190000D01*
X128331429Y-70118571D01*
X129688571Y-68761428D02*
X129688571Y-69475714D01*
X128188571Y-69475714D01*
X132797143Y-72351428D02*
X132868571Y-72137142D01*
X132868571Y-71779999D01*
X132797143Y-71637142D01*
X132725714Y-71565713D01*
X132582857Y-71494285D01*
X132440000Y-71494285D01*
X132297143Y-71565713D01*
X132225714Y-71637142D01*
X132154286Y-71779999D01*
X132082857Y-72065713D01*
X132011429Y-72208571D01*
X131940000Y-72279999D01*
X131797143Y-72351428D01*
X131654286Y-72351428D01*
X131511429Y-72279999D01*
X131440000Y-72208571D01*
X131368571Y-72065713D01*
X131368571Y-71708571D01*
X131440000Y-71494285D01*
X132868571Y-70851428D02*
X131368571Y-70851428D01*
X131368571Y-70494285D01*
X131440000Y-70280000D01*
X131582857Y-70137142D01*
X131725714Y-70065714D01*
X132011429Y-69994285D01*
X132225714Y-69994285D01*
X132511429Y-70065714D01*
X132654286Y-70137142D01*
X132797143Y-70280000D01*
X132868571Y-70494285D01*
X132868571Y-70851428D01*
X132440000Y-69422857D02*
X132440000Y-68708571D01*
X132868571Y-69565714D02*
X131368571Y-69065714D01*
X132868571Y-68565714D01*
D11*
X108367143Y-121782381D02*
X108033809Y-121306190D01*
X107795714Y-121782381D02*
X107795714Y-120782381D01*
X108176667Y-120782381D01*
X108271905Y-120830000D01*
X108319524Y-120877619D01*
X108367143Y-120972857D01*
X108367143Y-121115714D01*
X108319524Y-121210952D01*
X108271905Y-121258571D01*
X108176667Y-121306190D01*
X107795714Y-121306190D01*
X108700476Y-120782381D02*
X109367143Y-121782381D01*
X109367143Y-120782381D02*
X108700476Y-121782381D01*
X110271905Y-121782381D02*
X109700476Y-121782381D01*
X109986190Y-121782381D02*
X109986190Y-120782381D01*
X109890952Y-120925238D01*
X109795714Y-121020476D01*
X109700476Y-121068095D01*
X107791905Y-123742381D02*
X108363334Y-123742381D01*
X108077619Y-124742381D02*
X108077619Y-123742381D01*
X108601429Y-123742381D02*
X109268096Y-124742381D01*
X109268096Y-123742381D02*
X108601429Y-124742381D01*
X110172858Y-124742381D02*
X109601429Y-124742381D01*
X109887143Y-124742381D02*
X109887143Y-123742381D01*
X109791905Y-123885238D01*
X109696667Y-123980476D01*
X109601429Y-124028095D01*
X97844286Y-126627143D02*
X97796667Y-126674762D01*
X97653810Y-126722381D01*
X97558572Y-126722381D01*
X97415714Y-126674762D01*
X97320476Y-126579524D01*
X97272857Y-126484286D01*
X97225238Y-126293810D01*
X97225238Y-126150952D01*
X97272857Y-125960476D01*
X97320476Y-125865238D01*
X97415714Y-125770000D01*
X97558572Y-125722381D01*
X97653810Y-125722381D01*
X97796667Y-125770000D01*
X97844286Y-125817619D01*
X98463333Y-125722381D02*
X98653810Y-125722381D01*
X98749048Y-125770000D01*
X98844286Y-125865238D01*
X98891905Y-126055714D01*
X98891905Y-126389048D01*
X98844286Y-126579524D01*
X98749048Y-126674762D01*
X98653810Y-126722381D01*
X98463333Y-126722381D01*
X98368095Y-126674762D01*
X98272857Y-126579524D01*
X98225238Y-126389048D01*
X98225238Y-126055714D01*
X98272857Y-125865238D01*
X98368095Y-125770000D01*
X98463333Y-125722381D01*
X99320476Y-126722381D02*
X99320476Y-125722381D01*
X99653810Y-126436667D01*
X99987143Y-125722381D01*
X99987143Y-126722381D01*
D12*
X96888572Y-121148571D02*
X96388572Y-120434286D01*
X96031429Y-121148571D02*
X96031429Y-119648571D01*
X96602857Y-119648571D01*
X96745715Y-119720000D01*
X96817143Y-119791429D01*
X96888572Y-119934286D01*
X96888572Y-120148571D01*
X96817143Y-120291429D01*
X96745715Y-120362857D01*
X96602857Y-120434286D01*
X96031429Y-120434286D01*
X98102857Y-121077143D02*
X97960000Y-121148571D01*
X97674286Y-121148571D01*
X97531429Y-121077143D01*
X97460000Y-120934286D01*
X97460000Y-120362857D01*
X97531429Y-120220000D01*
X97674286Y-120148571D01*
X97960000Y-120148571D01*
X98102857Y-120220000D01*
X98174286Y-120362857D01*
X98174286Y-120505714D01*
X97460000Y-120648571D01*
X99031429Y-121148571D02*
X98888571Y-121077143D01*
X98817143Y-120934286D01*
X98817143Y-119648571D01*
X100245714Y-121148571D02*
X100245714Y-120362857D01*
X100174285Y-120220000D01*
X100031428Y-120148571D01*
X99745714Y-120148571D01*
X99602857Y-120220000D01*
X100245714Y-121077143D02*
X100102857Y-121148571D01*
X99745714Y-121148571D01*
X99602857Y-121077143D01*
X99531428Y-120934286D01*
X99531428Y-120791429D01*
X99602857Y-120648571D01*
X99745714Y-120577143D01*
X100102857Y-120577143D01*
X100245714Y-120505714D01*
X100817143Y-120148571D02*
X101174286Y-121148571D01*
X101531428Y-120148571D02*
X101174286Y-121148571D01*
X101031428Y-121505714D01*
X100960000Y-121577143D01*
X100817143Y-121648571D01*
D11*
X144987143Y-122562381D02*
X144510952Y-122562381D01*
X144463333Y-123038571D01*
X144510952Y-122990952D01*
X144606190Y-122943333D01*
X144844286Y-122943333D01*
X144939524Y-122990952D01*
X144987143Y-123038571D01*
X145034762Y-123133810D01*
X145034762Y-123371905D01*
X144987143Y-123467143D01*
X144939524Y-123514762D01*
X144844286Y-123562381D01*
X144606190Y-123562381D01*
X144510952Y-123514762D01*
X144463333Y-123467143D01*
X145368095Y-122895714D02*
X145606190Y-123562381D01*
X145844286Y-122895714D01*
X149927143Y-122480000D02*
X149831905Y-122432381D01*
X149689048Y-122432381D01*
X149546190Y-122480000D01*
X149450952Y-122575238D01*
X149403333Y-122670476D01*
X149355714Y-122860952D01*
X149355714Y-123003810D01*
X149403333Y-123194286D01*
X149450952Y-123289524D01*
X149546190Y-123384762D01*
X149689048Y-123432381D01*
X149784286Y-123432381D01*
X149927143Y-123384762D01*
X149974762Y-123337143D01*
X149974762Y-123003810D01*
X149784286Y-123003810D01*
X150403333Y-122765714D02*
X150403333Y-123432381D01*
X150403333Y-122860952D02*
X150450952Y-122813333D01*
X150546190Y-122765714D01*
X150689048Y-122765714D01*
X150784286Y-122813333D01*
X150831905Y-122908571D01*
X150831905Y-123432381D01*
X151736667Y-123432381D02*
X151736667Y-122432381D01*
X151736667Y-123384762D02*
X151641429Y-123432381D01*
X151450952Y-123432381D01*
X151355714Y-123384762D01*
X151308095Y-123337143D01*
X151260476Y-123241905D01*
X151260476Y-122956190D01*
X151308095Y-122860952D01*
X151355714Y-122813333D01*
X151450952Y-122765714D01*
X151641429Y-122765714D01*
X151736667Y-122813333D01*
D12*
X143305716Y-121548571D02*
X143305716Y-120048571D01*
X143662859Y-120048571D01*
X143877144Y-120120000D01*
X144020002Y-120262857D01*
X144091430Y-120405714D01*
X144162859Y-120691429D01*
X144162859Y-120905714D01*
X144091430Y-121191429D01*
X144020002Y-121334286D01*
X143877144Y-121477143D01*
X143662859Y-121548571D01*
X143305716Y-121548571D01*
X144734287Y-121477143D02*
X144948573Y-121548571D01*
X145305716Y-121548571D01*
X145448573Y-121477143D01*
X145520002Y-121405714D01*
X145591430Y-121262857D01*
X145591430Y-121120000D01*
X145520002Y-120977143D01*
X145448573Y-120905714D01*
X145305716Y-120834286D01*
X145020002Y-120762857D01*
X144877144Y-120691429D01*
X144805716Y-120620000D01*
X144734287Y-120477143D01*
X144734287Y-120334286D01*
X144805716Y-120191429D01*
X144877144Y-120120000D01*
X145020002Y-120048571D01*
X145377144Y-120048571D01*
X145591430Y-120120000D01*
X147020001Y-121548571D02*
X146162858Y-121548571D01*
X146591430Y-121548571D02*
X146591430Y-120048571D01*
X146448573Y-120262857D01*
X146305715Y-120405714D01*
X146162858Y-120477143D01*
X147877144Y-120691429D02*
X147734286Y-120620000D01*
X147662858Y-120548571D01*
X147591429Y-120405714D01*
X147591429Y-120334286D01*
X147662858Y-120191429D01*
X147734286Y-120120000D01*
X147877144Y-120048571D01*
X148162858Y-120048571D01*
X148305715Y-120120000D01*
X148377144Y-120191429D01*
X148448572Y-120334286D01*
X148448572Y-120405714D01*
X148377144Y-120548571D01*
X148305715Y-120620000D01*
X148162858Y-120691429D01*
X147877144Y-120691429D01*
X147734286Y-120762857D01*
X147662858Y-120834286D01*
X147591429Y-120977143D01*
X147591429Y-121262857D01*
X147662858Y-121405714D01*
X147734286Y-121477143D01*
X147877144Y-121548571D01*
X148162858Y-121548571D01*
X148305715Y-121477143D01*
X148377144Y-121405714D01*
X148448572Y-121262857D01*
X148448572Y-120977143D01*
X148377144Y-120834286D01*
X148305715Y-120762857D01*
X148162858Y-120691429D01*
X149591429Y-120762857D02*
X149805715Y-120834286D01*
X149877143Y-120905714D01*
X149948572Y-121048571D01*
X149948572Y-121262857D01*
X149877143Y-121405714D01*
X149805715Y-121477143D01*
X149662857Y-121548571D01*
X149091429Y-121548571D01*
X149091429Y-120048571D01*
X149591429Y-120048571D01*
X149734286Y-120120000D01*
X149805715Y-120191429D01*
X149877143Y-120334286D01*
X149877143Y-120477143D01*
X149805715Y-120620000D01*
X149734286Y-120691429D01*
X149591429Y-120762857D01*
X149091429Y-120762857D01*
X150520000Y-120191429D02*
X150591429Y-120120000D01*
X150734286Y-120048571D01*
X151091429Y-120048571D01*
X151234286Y-120120000D01*
X151305715Y-120191429D01*
X151377143Y-120334286D01*
X151377143Y-120477143D01*
X151305715Y-120691429D01*
X150448572Y-121548571D01*
X151377143Y-121548571D01*
X152305714Y-120048571D02*
X152448571Y-120048571D01*
X152591428Y-120120000D01*
X152662857Y-120191429D01*
X152734286Y-120334286D01*
X152805714Y-120620000D01*
X152805714Y-120977143D01*
X152734286Y-121262857D01*
X152662857Y-121405714D01*
X152591428Y-121477143D01*
X152448571Y-121548571D01*
X152305714Y-121548571D01*
X152162857Y-121477143D01*
X152091428Y-121405714D01*
X152020000Y-121262857D01*
X151948571Y-120977143D01*
X151948571Y-120620000D01*
X152020000Y-120334286D01*
X152091428Y-120191429D01*
X152162857Y-120120000D01*
X152305714Y-120048571D01*
D11*
X183512381Y-122475238D02*
X183036190Y-122808572D01*
X183512381Y-123046667D02*
X182512381Y-123046667D01*
X182512381Y-122665714D01*
X182560000Y-122570476D01*
X182607619Y-122522857D01*
X182702857Y-122475238D01*
X182845714Y-122475238D01*
X182940952Y-122522857D01*
X182988571Y-122570476D01*
X183036190Y-122665714D01*
X183036190Y-123046667D01*
X183512381Y-122141905D02*
X182845714Y-121618095D01*
X182845714Y-122141905D02*
X183512381Y-121618095D01*
X184912381Y-123090476D02*
X184912381Y-122519047D01*
X185912381Y-122804762D02*
X184912381Y-122804762D01*
X185912381Y-122280952D02*
X185245714Y-121757142D01*
X185245714Y-122280952D02*
X185912381Y-121757142D01*
X179647143Y-122250000D02*
X179551905Y-122202381D01*
X179409048Y-122202381D01*
X179266190Y-122250000D01*
X179170952Y-122345238D01*
X179123333Y-122440476D01*
X179075714Y-122630952D01*
X179075714Y-122773810D01*
X179123333Y-122964286D01*
X179170952Y-123059524D01*
X179266190Y-123154762D01*
X179409048Y-123202381D01*
X179504286Y-123202381D01*
X179647143Y-123154762D01*
X179694762Y-123107143D01*
X179694762Y-122773810D01*
X179504286Y-122773810D01*
X180123333Y-122535714D02*
X180123333Y-123202381D01*
X180123333Y-122630952D02*
X180170952Y-122583333D01*
X180266190Y-122535714D01*
X180409048Y-122535714D01*
X180504286Y-122583333D01*
X180551905Y-122678571D01*
X180551905Y-123202381D01*
X181456667Y-123202381D02*
X181456667Y-122202381D01*
X181456667Y-123154762D02*
X181361429Y-123202381D01*
X181170952Y-123202381D01*
X181075714Y-123154762D01*
X181028095Y-123107143D01*
X180980476Y-123011905D01*
X180980476Y-122726190D01*
X181028095Y-122630952D01*
X181075714Y-122583333D01*
X181170952Y-122535714D01*
X181361429Y-122535714D01*
X181456667Y-122583333D01*
X187412381Y-122542857D02*
X187412381Y-123019048D01*
X187888571Y-123066667D01*
X187840952Y-123019048D01*
X187793333Y-122923810D01*
X187793333Y-122685714D01*
X187840952Y-122590476D01*
X187888571Y-122542857D01*
X187983810Y-122495238D01*
X188221905Y-122495238D01*
X188317143Y-122542857D01*
X188364762Y-122590476D01*
X188412381Y-122685714D01*
X188412381Y-122923810D01*
X188364762Y-123019048D01*
X188317143Y-123066667D01*
X187745714Y-122161905D02*
X188412381Y-121923810D01*
X187745714Y-121685714D01*
D12*
X181070001Y-119517143D02*
X181284287Y-119588571D01*
X181641430Y-119588571D01*
X181784287Y-119517143D01*
X181855716Y-119445714D01*
X181927144Y-119302857D01*
X181927144Y-119160000D01*
X181855716Y-119017143D01*
X181784287Y-118945714D01*
X181641430Y-118874286D01*
X181355716Y-118802857D01*
X181212858Y-118731429D01*
X181141430Y-118660000D01*
X181070001Y-118517143D01*
X181070001Y-118374286D01*
X181141430Y-118231429D01*
X181212858Y-118160000D01*
X181355716Y-118088571D01*
X181712858Y-118088571D01*
X181927144Y-118160000D01*
X183212858Y-119517143D02*
X183070001Y-119588571D01*
X182784287Y-119588571D01*
X182641429Y-119517143D01*
X182570001Y-119445714D01*
X182498572Y-119302857D01*
X182498572Y-118874286D01*
X182570001Y-118731429D01*
X182641429Y-118660000D01*
X182784287Y-118588571D01*
X183070001Y-118588571D01*
X183212858Y-118660000D01*
X183855715Y-119588571D02*
X183855715Y-118588571D01*
X183855715Y-118874286D02*
X183927143Y-118731429D01*
X183998572Y-118660000D01*
X184141429Y-118588571D01*
X184284286Y-118588571D01*
X185355714Y-119517143D02*
X185212857Y-119588571D01*
X184927143Y-119588571D01*
X184784286Y-119517143D01*
X184712857Y-119374286D01*
X184712857Y-118802857D01*
X184784286Y-118660000D01*
X184927143Y-118588571D01*
X185212857Y-118588571D01*
X185355714Y-118660000D01*
X185427143Y-118802857D01*
X185427143Y-118945714D01*
X184712857Y-119088571D01*
X186641428Y-119517143D02*
X186498571Y-119588571D01*
X186212857Y-119588571D01*
X186070000Y-119517143D01*
X185998571Y-119374286D01*
X185998571Y-118802857D01*
X186070000Y-118660000D01*
X186212857Y-118588571D01*
X186498571Y-118588571D01*
X186641428Y-118660000D01*
X186712857Y-118802857D01*
X186712857Y-118945714D01*
X185998571Y-119088571D01*
X187355714Y-118588571D02*
X187355714Y-119588571D01*
X187355714Y-118731429D02*
X187427142Y-118660000D01*
X187570000Y-118588571D01*
X187784285Y-118588571D01*
X187927142Y-118660000D01*
X187998571Y-118802857D01*
X187998571Y-119588571D01*
X59798572Y-121937143D02*
X60941429Y-121937143D01*
X59838572Y-119087143D02*
X60981429Y-119087143D01*
X60410000Y-119658571D02*
X60410000Y-118515714D01*
D13*
X65280000Y-107470000D02*
X66780000Y-107470000D01*
X66780000Y-107470000D02*
X66780000Y-106520000D01*
X66780000Y-106520000D02*
X71905000Y-106520000D01*
X65280000Y-97070000D02*
X66780000Y-97070000D01*
X66780000Y-97070000D02*
X66780000Y-98020000D01*
X66780000Y-98020000D02*
X67880000Y-98020000D01*
D14*
X197330000Y-97530000D02*
G75*
G03X197330000Y-97530000I-5200000J0D01*
G01*
D15*
X126300000Y-36150000D02*
X132230000Y-36150000D01*
X132230000Y-36150000D02*
X132800000Y-36150000D01*
X132800000Y-36150000D02*
X132850000Y-36100000D01*
X132850000Y-36100000D02*
X147850000Y-36100000D01*
X154450000Y-43600000D02*
X154450000Y-58550000D01*
X147300000Y-66100000D02*
X133200000Y-66100000D01*
X133200000Y-66100000D02*
X133150000Y-66050000D01*
X133150000Y-66050000D02*
X132230000Y-66050000D01*
X132230000Y-66050000D02*
X126550000Y-66050000D01*
X132230000Y-36150000D02*
X132230000Y-38900000D01*
X132230000Y-64100000D02*
X132230000Y-66050000D01*
X132230000Y-46700000D02*
X132230000Y-47950000D01*
X123140000Y-46350000D02*
X123140000Y-47600000D01*
D11*
X122350000Y-39300000D02*
G75*
G03X122350000Y-39300000I-100000J0D01*
G01*
D13*
X151580000Y-126500000D02*
X151580000Y-123840000D01*
X146440000Y-126500000D02*
X151580000Y-126500000D01*
X146440000Y-123840000D02*
X151580000Y-123840000D01*
X146440000Y-126500000D02*
X146440000Y-123840000D01*
X145170000Y-126500000D02*
X143840000Y-126500000D01*
X143840000Y-126500000D02*
X143840000Y-125170000D01*
X127810000Y-82420000D02*
X128310000Y-82420000D01*
X128310000Y-81480000D02*
X127810000Y-81480000D01*
X62070000Y-68180000D02*
X61570000Y-68180000D01*
X61570000Y-69120000D02*
X62070000Y-69120000D01*
X88530000Y-54950000D02*
X89030000Y-54950000D01*
X89030000Y-54010000D02*
X88530000Y-54010000D01*
X73310000Y-63500000D02*
X73810000Y-63500000D01*
X73810000Y-62560000D02*
X73310000Y-62560000D01*
X82120000Y-76510000D02*
X82120000Y-76010000D01*
X81180000Y-76010000D02*
X81180000Y-76510000D01*
X141210000Y-112020000D02*
X141210000Y-112520000D01*
X142150000Y-112520000D02*
X142150000Y-112020000D01*
X56270000Y-35900000D02*
X56270000Y-36400000D01*
X57210000Y-36400000D02*
X57210000Y-35900000D01*
X66590000Y-35980000D02*
X66590000Y-36480000D01*
X67530000Y-36480000D02*
X67530000Y-35980000D01*
X145030000Y-111800000D02*
X145030000Y-112300000D01*
X145970000Y-112300000D02*
X145970000Y-111800000D01*
X140060000Y-112450000D02*
X140060000Y-111950000D01*
X139120000Y-111950000D02*
X139120000Y-112450000D01*
X79320000Y-53600000D02*
X79320000Y-54100000D01*
X80260000Y-54100000D02*
X80260000Y-53600000D01*
X110070000Y-63030000D02*
X110070000Y-63530000D01*
X111010000Y-63530000D02*
X111010000Y-63030000D01*
X103730000Y-63030000D02*
X103730000Y-63530000D01*
X104670000Y-63530000D02*
X104670000Y-63030000D01*
X80560000Y-123490000D02*
X83240000Y-123490000D01*
X88940000Y-123490000D02*
X86260000Y-123490000D01*
X88180000Y-115110000D02*
X86260000Y-115110000D01*
X81320000Y-115110000D02*
X83240000Y-115110000D01*
X80560000Y-123490000D02*
X80560000Y-115870000D01*
X80560000Y-115870000D02*
X81320000Y-115110000D01*
X88180000Y-115110000D02*
X88940000Y-115870000D01*
X88940000Y-115870000D02*
X88940000Y-123490000D01*
X58230000Y-83270000D02*
X58230000Y-86160000D01*
X58230000Y-92170000D02*
X58230000Y-89280000D01*
X68650000Y-92930000D02*
X68650000Y-89280000D01*
X68650000Y-82510000D02*
X68650000Y-86160000D01*
X68650000Y-92930000D02*
X58990000Y-92930000D01*
X58990000Y-92930000D02*
X58230000Y-92170000D01*
X58230000Y-83270000D02*
X58990000Y-82510000D01*
X58990000Y-82510000D02*
X68650000Y-82510000D01*
X66870000Y-76500000D02*
X66870000Y-77400000D01*
X66870000Y-77400000D02*
X68320000Y-77400000D01*
X66870000Y-76500000D02*
X68320000Y-76500000D01*
D11*
X108305000Y-67357000D02*
G75*
G03X108305000Y-67357000I-100000J0D01*
G01*
D13*
X88790000Y-97950000D02*
X90790000Y-97950000D01*
X90790000Y-97950000D02*
X90790000Y-94050000D01*
X88790000Y-97950000D02*
X88790000Y-94050000D01*
X94740000Y-92570000D02*
X94740000Y-95870000D01*
X94740000Y-95870000D02*
X100140000Y-95870000D01*
X94740000Y-92570000D02*
X100140000Y-92570000D01*
D16*
X116430000Y-92340000D02*
X129130000Y-92340000D01*
X129130000Y-92340000D02*
X129130000Y-115200000D01*
X129130000Y-115200000D02*
X116430000Y-115200000D01*
X116430000Y-115200000D02*
X116430000Y-92340000D01*
D13*
X90830000Y-51440000D02*
X93490000Y-51440000D01*
X90830000Y-33600000D02*
X90830000Y-51440000D01*
X93490000Y-33600000D02*
X93490000Y-51440000D01*
X90830000Y-33600000D02*
X93490000Y-33600000D01*
X90830000Y-32330000D02*
X90830000Y-31000000D01*
X90830000Y-31000000D02*
X92160000Y-31000000D01*
X55900000Y-80110000D02*
X58560000Y-80110000D01*
X55900000Y-69890000D02*
X55900000Y-80110000D01*
X58560000Y-69890000D02*
X58560000Y-80110000D01*
X55900000Y-69890000D02*
X58560000Y-69890000D01*
X55900000Y-68620000D02*
X55900000Y-67290000D01*
X55900000Y-67290000D02*
X57230000Y-67290000D01*
X133120000Y-75980000D02*
X133120000Y-73320000D01*
X130520000Y-75980000D02*
X133120000Y-75980000D01*
X130520000Y-73320000D02*
X133120000Y-73320000D01*
X130520000Y-75980000D02*
X130520000Y-73320000D01*
X129250000Y-75980000D02*
X127920000Y-75980000D01*
X127920000Y-75980000D02*
X127920000Y-74650000D01*
X189420000Y-126540000D02*
X189420000Y-123880000D01*
X181740000Y-126540000D02*
X189420000Y-126540000D01*
X181740000Y-123880000D02*
X189420000Y-123880000D01*
X181740000Y-126540000D02*
X181740000Y-123880000D01*
X180470000Y-126540000D02*
X179140000Y-126540000D01*
X179140000Y-126540000D02*
X179140000Y-125210000D01*
X166650000Y-118490000D02*
X169310000Y-118490000D01*
X166650000Y-110810000D02*
X166650000Y-118490000D01*
X169310000Y-110810000D02*
X169310000Y-118490000D01*
X166650000Y-110810000D02*
X169310000Y-110810000D01*
X166650000Y-109540000D02*
X166650000Y-108210000D01*
X166650000Y-108210000D02*
X167980000Y-108210000D01*
X157950000Y-118470000D02*
X160610000Y-118470000D01*
X157950000Y-110790000D02*
X157950000Y-118470000D01*
X160610000Y-110790000D02*
X160610000Y-118470000D01*
X157950000Y-110790000D02*
X160610000Y-110790000D01*
X157950000Y-109520000D02*
X157950000Y-108190000D01*
X157950000Y-108190000D02*
X159280000Y-108190000D01*
D14*
X132150000Y-120080000D02*
X120150000Y-120080000D01*
X132150000Y-127080000D02*
X132150000Y-120080000D01*
X120150000Y-127080000D02*
X132150000Y-127080000D01*
X120150000Y-120080000D02*
X120150000Y-127080000D01*
D13*
X171460000Y-126580000D02*
X171460000Y-123920000D01*
X163780000Y-126580000D02*
X171460000Y-126580000D01*
X163780000Y-123920000D02*
X171460000Y-123920000D01*
X163780000Y-126580000D02*
X163780000Y-123920000D01*
X162510000Y-126580000D02*
X161180000Y-126580000D01*
X161180000Y-126580000D02*
X161180000Y-125250000D01*
D17*
X118160000Y-54540000D02*
X118160000Y-30410000D01*
X102920000Y-54540000D02*
X118160000Y-54540000D01*
X102920000Y-55810000D02*
X102920000Y-54540000D01*
X97840000Y-55810000D02*
X102920000Y-55810000D01*
X97840000Y-30410000D02*
X97840000Y-55810000D01*
X118160000Y-30410000D02*
X97840000Y-30410000D01*
D13*
X199060000Y-126730000D02*
X199060000Y-124070000D01*
X196460000Y-126730000D02*
X199060000Y-126730000D01*
X196460000Y-124070000D02*
X199060000Y-124070000D01*
X196460000Y-126730000D02*
X196460000Y-124070000D01*
X195190000Y-126730000D02*
X193860000Y-126730000D01*
X193860000Y-126730000D02*
X193860000Y-125400000D01*
X102580000Y-124800000D02*
X102580000Y-122140000D01*
X97440000Y-124800000D02*
X102580000Y-124800000D01*
X97440000Y-122140000D02*
X102580000Y-122140000D01*
X97440000Y-124800000D02*
X97440000Y-122140000D01*
X96170000Y-124800000D02*
X94840000Y-124800000D01*
X94840000Y-124800000D02*
X94840000Y-123470000D01*
D14*
X86450000Y-95240000D02*
X86450000Y-107740000D01*
X86450000Y-95240000D02*
X73950000Y-95240000D01*
X73950000Y-107740000D02*
X73950000Y-95240000D01*
X86450000Y-107740000D02*
X73950000Y-107740000D01*
D13*
X119920000Y-72730000D02*
X119920000Y-71800000D01*
X119920000Y-69570000D02*
X119920000Y-70500000D01*
X119920000Y-69570000D02*
X117760000Y-69570000D01*
X119920000Y-72730000D02*
X118460000Y-72730000D01*
X111370000Y-77290000D02*
X111370000Y-76360000D01*
X111370000Y-74130000D02*
X111370000Y-75060000D01*
X111370000Y-74130000D02*
X109210000Y-74130000D01*
X111370000Y-77290000D02*
X109910000Y-77290000D01*
X85200000Y-92970000D02*
X85200000Y-92040000D01*
X85200000Y-89810000D02*
X85200000Y-90740000D01*
X85200000Y-89810000D02*
X83040000Y-89810000D01*
X85200000Y-92970000D02*
X83740000Y-92970000D01*
X61260000Y-61950000D02*
X61760000Y-61950000D01*
X61760000Y-60890000D02*
X61260000Y-60890000D01*
X67610000Y-78880000D02*
X67610000Y-79380000D01*
X68670000Y-79380000D02*
X68670000Y-78880000D01*
X126000000Y-90770000D02*
X126000000Y-90270000D01*
X124940000Y-90270000D02*
X124940000Y-90770000D01*
X115420000Y-84960000D02*
X114920000Y-84960000D01*
X114920000Y-86020000D02*
X115420000Y-86020000D01*
X114820000Y-87920000D02*
X115320000Y-87920000D01*
X115320000Y-86860000D02*
X114820000Y-86860000D01*
X84680000Y-78280000D02*
X84680000Y-77780000D01*
X83620000Y-77780000D02*
X83620000Y-78280000D01*
X123520000Y-90740000D02*
X123520000Y-90240000D01*
X122460000Y-90240000D02*
X122460000Y-90740000D01*
X114990000Y-84340000D02*
X115490000Y-84340000D01*
X115490000Y-83280000D02*
X114990000Y-83280000D01*
X115300000Y-88570000D02*
X114800000Y-88570000D01*
X114800000Y-89630000D02*
X115300000Y-89630000D01*
X63330000Y-28770000D02*
X62830000Y-28770000D01*
X62830000Y-29830000D02*
X63330000Y-29830000D01*
X117590000Y-77510000D02*
X117590000Y-77010000D01*
X116530000Y-77010000D02*
X116530000Y-77510000D01*
X162420000Y-120400000D02*
X161920000Y-120400000D01*
X161920000Y-121460000D02*
X162420000Y-121460000D01*
X166410000Y-120450000D02*
X165910000Y-120450000D01*
X165910000Y-121510000D02*
X166410000Y-121510000D01*
X169250000Y-120270000D02*
X168750000Y-120270000D01*
X168750000Y-121330000D02*
X169250000Y-121330000D01*
X108550000Y-84840000D02*
X108550000Y-85340000D01*
X109610000Y-85340000D02*
X109610000Y-84840000D01*
X148840000Y-116250000D02*
X148840000Y-115750000D01*
X147780000Y-115750000D02*
X147780000Y-116250000D01*
X191770000Y-79600000D02*
X191770000Y-80100000D01*
X192830000Y-80100000D02*
X192830000Y-79600000D01*
X74910000Y-90810000D02*
X74410000Y-90810000D01*
X74410000Y-91870000D02*
X74910000Y-91870000D01*
X77900000Y-91090000D02*
X77900000Y-91590000D01*
X78960000Y-91590000D02*
X78960000Y-91090000D01*
X198320000Y-121900000D02*
X198320000Y-121400000D01*
X197260000Y-121400000D02*
X197260000Y-121900000D01*
X117570000Y-66670000D02*
X117570000Y-67170000D01*
X118630000Y-67170000D02*
X118630000Y-66670000D01*
X114800000Y-69640000D02*
X114800000Y-70140000D01*
X115860000Y-70140000D02*
X115860000Y-69640000D01*
X120890000Y-74640000D02*
X120390000Y-74640000D01*
X120390000Y-75700000D02*
X120890000Y-75700000D01*
X110410000Y-71270000D02*
X109910000Y-71270000D01*
X109910000Y-72330000D02*
X110410000Y-72330000D01*
X105980000Y-75400000D02*
X105980000Y-75900000D01*
X107040000Y-75900000D02*
X107040000Y-75400000D01*
X115020000Y-75190000D02*
X114520000Y-75190000D01*
X114520000Y-76250000D02*
X115020000Y-76250000D01*
X106200000Y-59930000D02*
X106200000Y-60430000D01*
X107260000Y-60430000D02*
X107260000Y-59930000D01*
X108730000Y-59850000D02*
X108730000Y-60350000D01*
X109790000Y-60350000D02*
X109790000Y-59850000D01*
X110020000Y-59870000D02*
X110020000Y-60370000D01*
X111080000Y-60370000D02*
X111080000Y-59870000D01*
X60050000Y-63130000D02*
X60050000Y-62830000D01*
X60050000Y-62830000D02*
X56750000Y-62830000D01*
X56750000Y-62830000D02*
X56750000Y-63130000D01*
X60050000Y-65330000D02*
X60050000Y-65630000D01*
X60050000Y-65630000D02*
X56750000Y-65630000D01*
X56750000Y-65630000D02*
X56750000Y-65330000D01*
D15*
X124745000Y-82355000D02*
X124745000Y-86355000D01*
X119745000Y-86355000D02*
X119745000Y-82355000D01*
D11*
X124185000Y-80145000D02*
G75*
G03X124185000Y-80145000I-100000J0D01*
G01*
D18*
X64484200Y-35773200D02*
X64484200Y-32979200D01*
X59505800Y-32979200D02*
X59505800Y-34071400D01*
X59505800Y-34071400D02*
X59505800Y-34681000D01*
X59505800Y-34681000D02*
X59505800Y-35773200D01*
X59505800Y-34071400D02*
G75*
G02X59505800Y-34681000I0J-304800D01*
G01*
D19*
X137470000Y-103705000D02*
X148170000Y-103705000D01*
X148170000Y-90955000D02*
X137470000Y-90955000D01*
D10*
X137074000Y-92030000D02*
G75*
G03X137074000Y-92030000I-254000J0D01*
G01*
D19*
X77800000Y-58400000D02*
X91800000Y-58400000D01*
X91800000Y-58400000D02*
X91800000Y-72400000D01*
X91800000Y-72400000D02*
X77800000Y-72400000D01*
X77800000Y-72400000D02*
X77800000Y-58400000D01*
X79049900Y-59400000D02*
G75*
G03X79049900Y-59400000I-249900J0D01*
G01*
D10*
X76754000Y-58250000D02*
G75*
G03X76754000Y-58250000I-254000J0D01*
G01*
D13*
X134200000Y-114210000D02*
X136000000Y-114210000D01*
X136000000Y-110990000D02*
X133550000Y-110990000D01*
D10*
X83297000Y-85240000D02*
G75*
G03X83297000Y-85240000I-127000J0D01*
G01*
D13*
X111280000Y-125450000D02*
X113940000Y-125450000D01*
X111280000Y-122850000D02*
X111280000Y-125450000D01*
X113940000Y-122850000D02*
X113940000Y-125450000D01*
X111280000Y-122850000D02*
X113940000Y-122850000D01*
X111280000Y-121580000D02*
X111280000Y-120250000D01*
X111280000Y-120250000D02*
X112610000Y-120250000D01*
X127060000Y-87880000D02*
X127560000Y-87880000D01*
X127560000Y-86940000D02*
X127060000Y-86940000D01*
X156290000Y-79560000D02*
X156290000Y-80060000D01*
X157230000Y-80060000D02*
X157230000Y-79560000D01*
X159450000Y-79190000D02*
X159450000Y-79690000D01*
X160390000Y-79690000D02*
X160390000Y-79190000D01*
X157120000Y-87930000D02*
X155920000Y-87930000D01*
X155920000Y-87930000D02*
X155920000Y-85230000D01*
X160720000Y-83930000D02*
X160720000Y-87930000D01*
X160720000Y-87930000D02*
X159520000Y-87930000D01*
X83620000Y-80070000D02*
X84620000Y-80070000D01*
X84620000Y-81430000D02*
X83620000Y-81430000D01*
X76980000Y-127500000D02*
X64160000Y-127500000D01*
X64160000Y-127500000D02*
X64160000Y-130160000D01*
X64160000Y-130160000D02*
X76980000Y-130160000D01*
X76980000Y-130160000D02*
X76980000Y-127500000D01*
X76030000Y-130160000D02*
X76030000Y-136160000D01*
X76030000Y-136160000D02*
X75270000Y-136160000D01*
X75270000Y-136160000D02*
X75270000Y-130160000D01*
X75970000Y-130160000D02*
X75970000Y-136160000D01*
X75850000Y-130160000D02*
X75850000Y-136160000D01*
X75730000Y-130160000D02*
X75730000Y-136160000D01*
X75610000Y-130160000D02*
X75610000Y-136160000D01*
X75490000Y-130160000D02*
X75490000Y-136160000D01*
X75370000Y-130160000D02*
X75370000Y-136160000D01*
X76030000Y-127170000D02*
X76030000Y-127500000D01*
X75270000Y-127170000D02*
X75270000Y-127500000D01*
X74380000Y-127500000D02*
X74380000Y-130160000D01*
X73490000Y-130160000D02*
X73490000Y-136160000D01*
X73490000Y-136160000D02*
X72730000Y-136160000D01*
X72730000Y-136160000D02*
X72730000Y-130160000D01*
X73490000Y-127102929D02*
X73490000Y-127500000D01*
X72730000Y-127102929D02*
X72730000Y-127500000D01*
X71840000Y-127500000D02*
X71840000Y-130160000D01*
X70950000Y-130160000D02*
X70950000Y-136160000D01*
X70950000Y-136160000D02*
X70190000Y-136160000D01*
X70190000Y-136160000D02*
X70190000Y-130160000D01*
X70950000Y-127102929D02*
X70950000Y-127500000D01*
X70190000Y-127102929D02*
X70190000Y-127500000D01*
X69300000Y-127500000D02*
X69300000Y-130160000D01*
X68410000Y-130160000D02*
X68410000Y-136160000D01*
X68410000Y-136160000D02*
X67650000Y-136160000D01*
X67650000Y-136160000D02*
X67650000Y-130160000D01*
X68410000Y-127102929D02*
X68410000Y-127500000D01*
X67650000Y-127102929D02*
X67650000Y-127500000D01*
X66760000Y-127500000D02*
X66760000Y-130160000D01*
X65870000Y-130160000D02*
X65870000Y-136160000D01*
X65870000Y-136160000D02*
X65110000Y-136160000D01*
X65110000Y-136160000D02*
X65110000Y-130160000D01*
X65870000Y-127102929D02*
X65870000Y-127500000D01*
X65110000Y-127102929D02*
X65110000Y-127500000D01*
X75650000Y-124790000D02*
X76920000Y-124790000D01*
X76920000Y-124790000D02*
X76920000Y-126060000D01*
D16*
X62591905Y-108372381D02*
X62591905Y-109181905D01*
X62639524Y-109277143D01*
X62687143Y-109324762D01*
X62782381Y-109372381D01*
X62972858Y-109372381D01*
X63068096Y-109324762D01*
X63115715Y-109277143D01*
X63163334Y-109181905D01*
X63163334Y-108372381D01*
X64163334Y-109372381D02*
X63591905Y-109372381D01*
X63877619Y-109372381D02*
X63877619Y-108372381D01*
X63782381Y-108515238D01*
X63687143Y-108610476D01*
X63591905Y-108658095D01*
X64496667Y-108372381D02*
X65115715Y-108372381D01*
X64782381Y-108753333D01*
X64925239Y-108753333D01*
X65020477Y-108800952D01*
X65068096Y-108848571D01*
X65115715Y-108943810D01*
X65115715Y-109181905D01*
X65068096Y-109277143D01*
X65020477Y-109324762D01*
X64925239Y-109372381D01*
X64639524Y-109372381D01*
X64544286Y-109324762D01*
X64496667Y-109277143D01*
X197998571Y-103040952D02*
X198046190Y-102898095D01*
X198093810Y-102850476D01*
X198189048Y-102802857D01*
X198331905Y-102802857D01*
X198427143Y-102850476D01*
X198474762Y-102898095D01*
X198522381Y-102993333D01*
X198522381Y-103374286D01*
X197522381Y-103374286D01*
X197522381Y-103040952D01*
X197570000Y-102945714D01*
X197617619Y-102898095D01*
X197712857Y-102850476D01*
X197808095Y-102850476D01*
X197903333Y-102898095D01*
X197950952Y-102945714D01*
X197998571Y-103040952D01*
X197998571Y-103374286D01*
X197522381Y-102469524D02*
X197522381Y-101802857D01*
X198522381Y-102469524D01*
X198522381Y-101802857D01*
X198522381Y-100898095D02*
X198522381Y-101469524D01*
X198522381Y-101183810D02*
X197522381Y-101183810D01*
X197665238Y-101279048D01*
X197760476Y-101374286D01*
X197808095Y-101469524D01*
X192201429Y-105110952D02*
X192201429Y-104349047D01*
X192582381Y-104729999D02*
X191820476Y-104729999D01*
D20*
X155252874Y-39395331D02*
X156062851Y-39395331D01*
X156158143Y-39347686D01*
X156205789Y-39300040D01*
X156253434Y-39204749D01*
X156253434Y-39014166D01*
X156205789Y-38918874D01*
X156158143Y-38871229D01*
X156062851Y-38823583D01*
X155252874Y-38823583D01*
X155252874Y-38442417D02*
X155252874Y-37823023D01*
X155634040Y-38156543D01*
X155634040Y-38013605D01*
X155681686Y-37918314D01*
X155729331Y-37870668D01*
X155824623Y-37823023D01*
X156062851Y-37823023D01*
X156158143Y-37870668D01*
X156205789Y-37918314D01*
X156253434Y-38013605D01*
X156253434Y-38299480D01*
X156205789Y-38394771D01*
X156158143Y-38442417D01*
D16*
X68798571Y-32685714D02*
X68846190Y-32542857D01*
X68893810Y-32495238D01*
X68989048Y-32447619D01*
X69131905Y-32447619D01*
X69227143Y-32495238D01*
X69274762Y-32542857D01*
X69322381Y-32638095D01*
X69322381Y-33019048D01*
X68322381Y-33019048D01*
X68322381Y-32685714D01*
X68370000Y-32590476D01*
X68417619Y-32542857D01*
X68512857Y-32495238D01*
X68608095Y-32495238D01*
X68703333Y-32542857D01*
X68750952Y-32590476D01*
X68798571Y-32685714D01*
X68798571Y-33019048D01*
X68322381Y-32161905D02*
X68322381Y-31590476D01*
X69322381Y-31876191D02*
X68322381Y-31876191D01*
X69322381Y-30733333D02*
X69322381Y-31304762D01*
X69322381Y-31019048D02*
X68322381Y-31019048D01*
X68465238Y-31114286D01*
X68560476Y-31209524D01*
X68608095Y-31304762D01*
X63583334Y-67917143D02*
X63535715Y-67964762D01*
X63392858Y-68012381D01*
X63297620Y-68012381D01*
X63154762Y-67964762D01*
X63059524Y-67869524D01*
X63011905Y-67774286D01*
X62964286Y-67583810D01*
X62964286Y-67440952D01*
X63011905Y-67250476D01*
X63059524Y-67155238D01*
X63154762Y-67060000D01*
X63297620Y-67012381D01*
X63392858Y-67012381D01*
X63535715Y-67060000D01*
X63583334Y-67107619D01*
X64535715Y-68012381D02*
X63964286Y-68012381D01*
X64250000Y-68012381D02*
X64250000Y-67012381D01*
X64154762Y-67155238D01*
X64059524Y-67250476D01*
X63964286Y-67298095D01*
X127893334Y-83577143D02*
X127845715Y-83624762D01*
X127702858Y-83672381D01*
X127607620Y-83672381D01*
X127464762Y-83624762D01*
X127369524Y-83529524D01*
X127321905Y-83434286D01*
X127274286Y-83243810D01*
X127274286Y-83100952D01*
X127321905Y-82910476D01*
X127369524Y-82815238D01*
X127464762Y-82720000D01*
X127607620Y-82672381D01*
X127702858Y-82672381D01*
X127845715Y-82720000D01*
X127893334Y-82767619D01*
X128274286Y-82767619D02*
X128321905Y-82720000D01*
X128417143Y-82672381D01*
X128655239Y-82672381D01*
X128750477Y-82720000D01*
X128798096Y-82767619D01*
X128845715Y-82862857D01*
X128845715Y-82958095D01*
X128798096Y-83100952D01*
X128226667Y-83672381D01*
X128845715Y-83672381D01*
X61603334Y-70207143D02*
X61555715Y-70254762D01*
X61412858Y-70302381D01*
X61317620Y-70302381D01*
X61174762Y-70254762D01*
X61079524Y-70159524D01*
X61031905Y-70064286D01*
X60984286Y-69873810D01*
X60984286Y-69730952D01*
X61031905Y-69540476D01*
X61079524Y-69445238D01*
X61174762Y-69350000D01*
X61317620Y-69302381D01*
X61412858Y-69302381D01*
X61555715Y-69350000D01*
X61603334Y-69397619D01*
X62460477Y-69635714D02*
X62460477Y-70302381D01*
X62222381Y-69254762D02*
X61984286Y-69969048D01*
X62603334Y-69969048D01*
X88733334Y-52477143D02*
X88685715Y-52524762D01*
X88542858Y-52572381D01*
X88447620Y-52572381D01*
X88304762Y-52524762D01*
X88209524Y-52429524D01*
X88161905Y-52334286D01*
X88114286Y-52143810D01*
X88114286Y-52000952D01*
X88161905Y-51810476D01*
X88209524Y-51715238D01*
X88304762Y-51620000D01*
X88447620Y-51572381D01*
X88542858Y-51572381D01*
X88685715Y-51620000D01*
X88733334Y-51667619D01*
X89638096Y-51572381D02*
X89161905Y-51572381D01*
X89114286Y-52048571D01*
X89161905Y-52000952D01*
X89257143Y-51953333D01*
X89495239Y-51953333D01*
X89590477Y-52000952D01*
X89638096Y-52048571D01*
X89685715Y-52143810D01*
X89685715Y-52381905D01*
X89638096Y-52477143D01*
X89590477Y-52524762D01*
X89495239Y-52572381D01*
X89257143Y-52572381D01*
X89161905Y-52524762D01*
X89114286Y-52477143D01*
X73393334Y-64657143D02*
X73345715Y-64704762D01*
X73202858Y-64752381D01*
X73107620Y-64752381D01*
X72964762Y-64704762D01*
X72869524Y-64609524D01*
X72821905Y-64514286D01*
X72774286Y-64323810D01*
X72774286Y-64180952D01*
X72821905Y-63990476D01*
X72869524Y-63895238D01*
X72964762Y-63800000D01*
X73107620Y-63752381D01*
X73202858Y-63752381D01*
X73345715Y-63800000D01*
X73393334Y-63847619D01*
X74250477Y-63752381D02*
X74060000Y-63752381D01*
X73964762Y-63800000D01*
X73917143Y-63847619D01*
X73821905Y-63990476D01*
X73774286Y-64180952D01*
X73774286Y-64561905D01*
X73821905Y-64657143D01*
X73869524Y-64704762D01*
X73964762Y-64752381D01*
X74155239Y-64752381D01*
X74250477Y-64704762D01*
X74298096Y-64657143D01*
X74345715Y-64561905D01*
X74345715Y-64323810D01*
X74298096Y-64228571D01*
X74250477Y-64180952D01*
X74155239Y-64133333D01*
X73964762Y-64133333D01*
X73869524Y-64180952D01*
X73821905Y-64228571D01*
X73774286Y-64323810D01*
X83277143Y-76426666D02*
X83324762Y-76474285D01*
X83372381Y-76617142D01*
X83372381Y-76712380D01*
X83324762Y-76855238D01*
X83229524Y-76950476D01*
X83134286Y-76998095D01*
X82943810Y-77045714D01*
X82800952Y-77045714D01*
X82610476Y-76998095D01*
X82515238Y-76950476D01*
X82420000Y-76855238D01*
X82372381Y-76712380D01*
X82372381Y-76617142D01*
X82420000Y-76474285D01*
X82467619Y-76426666D01*
X82372381Y-76093333D02*
X82372381Y-75426666D01*
X83372381Y-75855238D01*
X142017143Y-114746666D02*
X142064762Y-114794285D01*
X142112381Y-114937142D01*
X142112381Y-115032380D01*
X142064762Y-115175238D01*
X141969524Y-115270476D01*
X141874286Y-115318095D01*
X141683810Y-115365714D01*
X141540952Y-115365714D01*
X141350476Y-115318095D01*
X141255238Y-115270476D01*
X141160000Y-115175238D01*
X141112381Y-115032380D01*
X141112381Y-114937142D01*
X141160000Y-114794285D01*
X141207619Y-114746666D01*
X141540952Y-114175238D02*
X141493333Y-114270476D01*
X141445714Y-114318095D01*
X141350476Y-114365714D01*
X141302857Y-114365714D01*
X141207619Y-114318095D01*
X141160000Y-114270476D01*
X141112381Y-114175238D01*
X141112381Y-113984761D01*
X141160000Y-113889523D01*
X141207619Y-113841904D01*
X141302857Y-113794285D01*
X141350476Y-113794285D01*
X141445714Y-113841904D01*
X141493333Y-113889523D01*
X141540952Y-113984761D01*
X141540952Y-114175238D01*
X141588571Y-114270476D01*
X141636190Y-114318095D01*
X141731429Y-114365714D01*
X141921905Y-114365714D01*
X142017143Y-114318095D01*
X142064762Y-114270476D01*
X142112381Y-114175238D01*
X142112381Y-113984761D01*
X142064762Y-113889523D01*
X142017143Y-113841904D01*
X141921905Y-113794285D01*
X141731429Y-113794285D01*
X141636190Y-113841904D01*
X141588571Y-113889523D01*
X141540952Y-113984761D01*
X55827143Y-36792857D02*
X55874762Y-36840476D01*
X55922381Y-36983333D01*
X55922381Y-37078571D01*
X55874762Y-37221429D01*
X55779524Y-37316667D01*
X55684286Y-37364286D01*
X55493810Y-37411905D01*
X55350952Y-37411905D01*
X55160476Y-37364286D01*
X55065238Y-37316667D01*
X54970000Y-37221429D01*
X54922381Y-37078571D01*
X54922381Y-36983333D01*
X54970000Y-36840476D01*
X55017619Y-36792857D01*
X55922381Y-35840476D02*
X55922381Y-36411905D01*
X55922381Y-36126191D02*
X54922381Y-36126191D01*
X55065238Y-36221429D01*
X55160476Y-36316667D01*
X55208095Y-36411905D01*
X54922381Y-35221429D02*
X54922381Y-35126190D01*
X54970000Y-35030952D01*
X55017619Y-34983333D01*
X55112857Y-34935714D01*
X55303333Y-34888095D01*
X55541429Y-34888095D01*
X55731905Y-34935714D01*
X55827143Y-34983333D01*
X55874762Y-35030952D01*
X55922381Y-35126190D01*
X55922381Y-35221429D01*
X55874762Y-35316667D01*
X55827143Y-35364286D01*
X55731905Y-35411905D01*
X55541429Y-35459524D01*
X55303333Y-35459524D01*
X55112857Y-35411905D01*
X55017619Y-35364286D01*
X54970000Y-35316667D01*
X54922381Y-35221429D01*
X69137143Y-36752857D02*
X69184762Y-36800476D01*
X69232381Y-36943333D01*
X69232381Y-37038571D01*
X69184762Y-37181429D01*
X69089524Y-37276667D01*
X68994286Y-37324286D01*
X68803810Y-37371905D01*
X68660952Y-37371905D01*
X68470476Y-37324286D01*
X68375238Y-37276667D01*
X68280000Y-37181429D01*
X68232381Y-37038571D01*
X68232381Y-36943333D01*
X68280000Y-36800476D01*
X68327619Y-36752857D01*
X69232381Y-35800476D02*
X69232381Y-36371905D01*
X69232381Y-36086191D02*
X68232381Y-36086191D01*
X68375238Y-36181429D01*
X68470476Y-36276667D01*
X68518095Y-36371905D01*
X69232381Y-34848095D02*
X69232381Y-35419524D01*
X69232381Y-35133810D02*
X68232381Y-35133810D01*
X68375238Y-35229048D01*
X68470476Y-35324286D01*
X68518095Y-35419524D01*
X144587143Y-112692857D02*
X144634762Y-112740476D01*
X144682381Y-112883333D01*
X144682381Y-112978571D01*
X144634762Y-113121429D01*
X144539524Y-113216667D01*
X144444286Y-113264286D01*
X144253810Y-113311905D01*
X144110952Y-113311905D01*
X143920476Y-113264286D01*
X143825238Y-113216667D01*
X143730000Y-113121429D01*
X143682381Y-112978571D01*
X143682381Y-112883333D01*
X143730000Y-112740476D01*
X143777619Y-112692857D01*
X144682381Y-111740476D02*
X144682381Y-112311905D01*
X144682381Y-112026191D02*
X143682381Y-112026191D01*
X143825238Y-112121429D01*
X143920476Y-112216667D01*
X143968095Y-112311905D01*
X143777619Y-111359524D02*
X143730000Y-111311905D01*
X143682381Y-111216667D01*
X143682381Y-110978571D01*
X143730000Y-110883333D01*
X143777619Y-110835714D01*
X143872857Y-110788095D01*
X143968095Y-110788095D01*
X144110952Y-110835714D01*
X144682381Y-111407143D01*
X144682381Y-110788095D01*
X139687143Y-115852857D02*
X139734762Y-115900476D01*
X139782381Y-116043333D01*
X139782381Y-116138571D01*
X139734762Y-116281429D01*
X139639524Y-116376667D01*
X139544286Y-116424286D01*
X139353810Y-116471905D01*
X139210952Y-116471905D01*
X139020476Y-116424286D01*
X138925238Y-116376667D01*
X138830000Y-116281429D01*
X138782381Y-116138571D01*
X138782381Y-116043333D01*
X138830000Y-115900476D01*
X138877619Y-115852857D01*
X139782381Y-114900476D02*
X139782381Y-115471905D01*
X139782381Y-115186191D02*
X138782381Y-115186191D01*
X138925238Y-115281429D01*
X139020476Y-115376667D01*
X139068095Y-115471905D01*
X139115714Y-114043333D02*
X139782381Y-114043333D01*
X138734762Y-114281429D02*
X139449048Y-114519524D01*
X139449048Y-113900476D01*
X78877143Y-54492857D02*
X78924762Y-54540476D01*
X78972381Y-54683333D01*
X78972381Y-54778571D01*
X78924762Y-54921429D01*
X78829524Y-55016667D01*
X78734286Y-55064286D01*
X78543810Y-55111905D01*
X78400952Y-55111905D01*
X78210476Y-55064286D01*
X78115238Y-55016667D01*
X78020000Y-54921429D01*
X77972381Y-54778571D01*
X77972381Y-54683333D01*
X78020000Y-54540476D01*
X78067619Y-54492857D01*
X78972381Y-53540476D02*
X78972381Y-54111905D01*
X78972381Y-53826191D02*
X77972381Y-53826191D01*
X78115238Y-53921429D01*
X78210476Y-54016667D01*
X78258095Y-54111905D01*
X78400952Y-52969048D02*
X78353333Y-53064286D01*
X78305714Y-53111905D01*
X78210476Y-53159524D01*
X78162857Y-53159524D01*
X78067619Y-53111905D01*
X78020000Y-53064286D01*
X77972381Y-52969048D01*
X77972381Y-52778571D01*
X78020000Y-52683333D01*
X78067619Y-52635714D01*
X78162857Y-52588095D01*
X78210476Y-52588095D01*
X78305714Y-52635714D01*
X78353333Y-52683333D01*
X78400952Y-52778571D01*
X78400952Y-52969048D01*
X78448571Y-53064286D01*
X78496190Y-53111905D01*
X78591429Y-53159524D01*
X78781905Y-53159524D01*
X78877143Y-53111905D01*
X78924762Y-53064286D01*
X78972381Y-52969048D01*
X78972381Y-52778571D01*
X78924762Y-52683333D01*
X78877143Y-52635714D01*
X78781905Y-52588095D01*
X78591429Y-52588095D01*
X78496190Y-52635714D01*
X78448571Y-52683333D01*
X78400952Y-52778571D01*
X111117143Y-66982857D02*
X111164762Y-67030476D01*
X111212381Y-67173333D01*
X111212381Y-67268571D01*
X111164762Y-67411429D01*
X111069524Y-67506667D01*
X110974286Y-67554286D01*
X110783810Y-67601905D01*
X110640952Y-67601905D01*
X110450476Y-67554286D01*
X110355238Y-67506667D01*
X110260000Y-67411429D01*
X110212381Y-67268571D01*
X110212381Y-67173333D01*
X110260000Y-67030476D01*
X110307619Y-66982857D01*
X111212381Y-66030476D02*
X111212381Y-66601905D01*
X111212381Y-66316191D02*
X110212381Y-66316191D01*
X110355238Y-66411429D01*
X110450476Y-66506667D01*
X110498095Y-66601905D01*
X111212381Y-65554286D02*
X111212381Y-65363810D01*
X111164762Y-65268571D01*
X111117143Y-65220952D01*
X110974286Y-65125714D01*
X110783810Y-65078095D01*
X110402857Y-65078095D01*
X110307619Y-65125714D01*
X110260000Y-65173333D01*
X110212381Y-65268571D01*
X110212381Y-65459048D01*
X110260000Y-65554286D01*
X110307619Y-65601905D01*
X110402857Y-65649524D01*
X110640952Y-65649524D01*
X110736190Y-65601905D01*
X110783810Y-65554286D01*
X110831429Y-65459048D01*
X110831429Y-65268571D01*
X110783810Y-65173333D01*
X110736190Y-65125714D01*
X110640952Y-65078095D01*
X103287143Y-63922857D02*
X103334762Y-63970476D01*
X103382381Y-64113333D01*
X103382381Y-64208571D01*
X103334762Y-64351429D01*
X103239524Y-64446667D01*
X103144286Y-64494286D01*
X102953810Y-64541905D01*
X102810952Y-64541905D01*
X102620476Y-64494286D01*
X102525238Y-64446667D01*
X102430000Y-64351429D01*
X102382381Y-64208571D01*
X102382381Y-64113333D01*
X102430000Y-63970476D01*
X102477619Y-63922857D01*
X102477619Y-63541905D02*
X102430000Y-63494286D01*
X102382381Y-63399048D01*
X102382381Y-63160952D01*
X102430000Y-63065714D01*
X102477619Y-63018095D01*
X102572857Y-62970476D01*
X102668095Y-62970476D01*
X102810952Y-63018095D01*
X103382381Y-63589524D01*
X103382381Y-62970476D01*
X102477619Y-62589524D02*
X102430000Y-62541905D01*
X102382381Y-62446667D01*
X102382381Y-62208571D01*
X102430000Y-62113333D01*
X102477619Y-62065714D01*
X102572857Y-62018095D01*
X102668095Y-62018095D01*
X102810952Y-62065714D01*
X103382381Y-62637143D01*
X103382381Y-62018095D01*
X79657143Y-119942857D02*
X79704762Y-119990476D01*
X79752381Y-120133333D01*
X79752381Y-120228571D01*
X79704762Y-120371429D01*
X79609524Y-120466667D01*
X79514286Y-120514286D01*
X79323810Y-120561905D01*
X79180952Y-120561905D01*
X78990476Y-120514286D01*
X78895238Y-120466667D01*
X78800000Y-120371429D01*
X78752381Y-120228571D01*
X78752381Y-120133333D01*
X78800000Y-119990476D01*
X78847619Y-119942857D01*
X78847619Y-119561905D02*
X78800000Y-119514286D01*
X78752381Y-119419048D01*
X78752381Y-119180952D01*
X78800000Y-119085714D01*
X78847619Y-119038095D01*
X78942857Y-118990476D01*
X79038095Y-118990476D01*
X79180952Y-119038095D01*
X79752381Y-119609524D01*
X79752381Y-118990476D01*
X78752381Y-118657143D02*
X78752381Y-118038095D01*
X79133333Y-118371429D01*
X79133333Y-118228571D01*
X79180952Y-118133333D01*
X79228571Y-118085714D01*
X79323810Y-118038095D01*
X79561905Y-118038095D01*
X79657143Y-118085714D01*
X79704762Y-118133333D01*
X79752381Y-118228571D01*
X79752381Y-118514286D01*
X79704762Y-118609524D01*
X79657143Y-118657143D01*
X80921429Y-114900952D02*
X80921429Y-114139047D01*
X81302381Y-114519999D02*
X80540476Y-114519999D01*
X62797143Y-94537143D02*
X62749524Y-94584762D01*
X62606667Y-94632381D01*
X62511429Y-94632381D01*
X62368571Y-94584762D01*
X62273333Y-94489524D01*
X62225714Y-94394286D01*
X62178095Y-94203810D01*
X62178095Y-94060952D01*
X62225714Y-93870476D01*
X62273333Y-93775238D01*
X62368571Y-93680000D01*
X62511429Y-93632381D01*
X62606667Y-93632381D01*
X62749524Y-93680000D01*
X62797143Y-93727619D01*
X63178095Y-93727619D02*
X63225714Y-93680000D01*
X63320952Y-93632381D01*
X63559048Y-93632381D01*
X63654286Y-93680000D01*
X63701905Y-93727619D01*
X63749524Y-93822857D01*
X63749524Y-93918095D01*
X63701905Y-94060952D01*
X63130476Y-94632381D01*
X63749524Y-94632381D01*
X64606667Y-93965714D02*
X64606667Y-94632381D01*
X64368571Y-93584762D02*
X64130476Y-94299048D01*
X64749524Y-94299048D01*
X57279048Y-92761429D02*
X58040953Y-92761429D01*
X57660001Y-93142381D02*
X57660001Y-92380476D01*
X69311905Y-77472381D02*
X69311905Y-76472381D01*
X69550000Y-76472381D01*
X69692858Y-76520000D01*
X69788096Y-76615238D01*
X69835715Y-76710476D01*
X69883334Y-76900952D01*
X69883334Y-77043810D01*
X69835715Y-77234286D01*
X69788096Y-77329524D01*
X69692858Y-77424762D01*
X69550000Y-77472381D01*
X69311905Y-77472381D01*
X70835715Y-77472381D02*
X70264286Y-77472381D01*
X70550000Y-77472381D02*
X70550000Y-76472381D01*
X70454762Y-76615238D01*
X70359524Y-76710476D01*
X70264286Y-76758095D01*
D20*
X109243530Y-68402042D02*
X108927977Y-68402042D01*
X108927977Y-68326911D01*
X108943003Y-68281832D01*
X108973056Y-68251779D01*
X109003108Y-68236753D01*
X109063214Y-68221726D01*
X109108293Y-68221726D01*
X109168398Y-68236753D01*
X109198451Y-68251779D01*
X109228503Y-68281832D01*
X109243530Y-68326911D01*
X109243530Y-68402042D01*
X108958029Y-68101516D02*
X108943003Y-68086489D01*
X108927977Y-68056437D01*
X108927977Y-67981305D01*
X108943003Y-67951252D01*
X108958029Y-67936226D01*
X108988082Y-67921200D01*
X109018135Y-67921200D01*
X109063214Y-67936226D01*
X109243530Y-68116542D01*
X109243530Y-67921200D01*
X106033820Y-69993510D02*
X106033820Y-69888185D01*
X106199331Y-69843045D02*
X106199331Y-69993510D01*
X105883354Y-69993510D01*
X105883354Y-69843045D01*
X106184285Y-69722673D02*
X106199331Y-69677533D01*
X106199331Y-69602301D01*
X106184285Y-69572208D01*
X106169238Y-69557161D01*
X106139145Y-69542115D01*
X106109052Y-69542115D01*
X106078959Y-69557161D01*
X106063913Y-69572208D01*
X106048866Y-69602301D01*
X106033820Y-69662487D01*
X106018773Y-69692580D01*
X106003727Y-69707626D01*
X105973634Y-69722673D01*
X105943541Y-69722673D01*
X105913448Y-69707626D01*
X105898401Y-69692580D01*
X105883354Y-69662487D01*
X105883354Y-69587254D01*
X105898401Y-69542115D01*
X106199331Y-69406696D02*
X105883354Y-69406696D01*
X105883354Y-69331464D01*
X105898401Y-69286324D01*
X105928494Y-69256231D01*
X105958587Y-69241185D01*
X106018773Y-69226138D01*
X106063913Y-69226138D01*
X106124099Y-69241185D01*
X106154192Y-69256231D01*
X106184285Y-69286324D01*
X106199331Y-69331464D01*
X106199331Y-69406696D01*
X106109052Y-69105766D02*
X106109052Y-68955301D01*
X106199331Y-69135859D02*
X105883354Y-69030533D01*
X106199331Y-68925208D01*
X105883354Y-68684464D02*
X105883354Y-68744650D01*
X105898401Y-68774743D01*
X105913448Y-68789789D01*
X105958587Y-68819882D01*
X106018773Y-68834929D01*
X106139145Y-68834929D01*
X106169238Y-68819882D01*
X106184285Y-68804836D01*
X106199331Y-68774743D01*
X106199331Y-68714557D01*
X106184285Y-68684464D01*
X106169238Y-68669417D01*
X106139145Y-68654371D01*
X106063913Y-68654371D01*
X106033820Y-68669417D01*
X106018773Y-68684464D01*
X106003727Y-68714557D01*
X106003727Y-68774743D01*
X106018773Y-68804836D01*
X106033820Y-68819882D01*
X106063913Y-68834929D01*
X105883354Y-68564092D02*
X106199331Y-68458766D01*
X105883354Y-68353441D01*
X106199331Y-68082604D02*
X106199331Y-68263162D01*
X106199331Y-68172883D02*
X105883354Y-68172883D01*
X105928494Y-68202976D01*
X105958587Y-68233069D01*
X105973634Y-68263162D01*
X106078959Y-67947185D02*
X106078959Y-67706441D01*
X105883354Y-67405510D02*
X105883354Y-67555975D01*
X106033820Y-67571022D01*
X106018773Y-67555975D01*
X106003727Y-67525882D01*
X106003727Y-67450650D01*
X106018773Y-67420557D01*
X106033820Y-67405510D01*
X106063913Y-67390464D01*
X106139145Y-67390464D01*
X106169238Y-67405510D01*
X106184285Y-67420557D01*
X106199331Y-67450650D01*
X106199331Y-67525882D01*
X106184285Y-67555975D01*
X106169238Y-67571022D01*
X105883354Y-67285138D02*
X106199331Y-67209906D01*
X105973634Y-67149720D01*
X106199331Y-67089534D01*
X105883354Y-67014301D01*
X105883354Y-66758510D02*
X105883354Y-66818696D01*
X105898401Y-66848789D01*
X105913448Y-66863835D01*
X105958587Y-66893928D01*
X106018773Y-66908975D01*
X106139145Y-66908975D01*
X106169238Y-66893928D01*
X106184285Y-66878882D01*
X106199331Y-66848789D01*
X106199331Y-66788603D01*
X106184285Y-66758510D01*
X106169238Y-66743463D01*
X106139145Y-66728417D01*
X106063913Y-66728417D01*
X106033820Y-66743463D01*
X106018773Y-66758510D01*
X106003727Y-66788603D01*
X106003727Y-66848789D01*
X106018773Y-66878882D01*
X106033820Y-66893928D01*
X106063913Y-66908975D01*
D16*
X88242381Y-96438095D02*
X87242381Y-96438095D01*
X87242381Y-96200000D01*
X87290000Y-96057142D01*
X87385238Y-95961904D01*
X87480476Y-95914285D01*
X87670952Y-95866666D01*
X87813810Y-95866666D01*
X88004286Y-95914285D01*
X88099524Y-95961904D01*
X88194762Y-96057142D01*
X88242381Y-96200000D01*
X88242381Y-96438095D01*
X87242381Y-95533333D02*
X87242381Y-94914285D01*
X87623333Y-95247619D01*
X87623333Y-95104761D01*
X87670952Y-95009523D01*
X87718571Y-94961904D01*
X87813810Y-94914285D01*
X88051905Y-94914285D01*
X88147143Y-94961904D01*
X88194762Y-95009523D01*
X88242381Y-95104761D01*
X88242381Y-95390476D01*
X88194762Y-95485714D01*
X88147143Y-95533333D01*
X97401905Y-92172381D02*
X97401905Y-91172381D01*
X97640000Y-91172381D01*
X97782858Y-91220000D01*
X97878096Y-91315238D01*
X97925715Y-91410476D01*
X97973334Y-91600952D01*
X97973334Y-91743810D01*
X97925715Y-91934286D01*
X97878096Y-92029524D01*
X97782858Y-92124762D01*
X97640000Y-92172381D01*
X97401905Y-92172381D01*
X98830477Y-91505714D02*
X98830477Y-92172381D01*
X98592381Y-91124762D02*
X98354286Y-91839048D01*
X98973334Y-91839048D01*
X120300477Y-31302381D02*
X120300477Y-32016667D01*
X120252857Y-32159524D01*
X120157619Y-32254762D01*
X120014762Y-32302381D01*
X119919524Y-32302381D01*
X121300477Y-32302381D02*
X120729048Y-32302381D01*
X121014762Y-32302381D02*
X121014762Y-31302381D01*
X120919524Y-31445238D01*
X120824286Y-31540476D01*
X120729048Y-31588095D01*
X121681429Y-31397619D02*
X121729048Y-31350000D01*
X121824286Y-31302381D01*
X122062382Y-31302381D01*
X122157620Y-31350000D01*
X122205239Y-31397619D01*
X122252858Y-31492857D01*
X122252858Y-31588095D01*
X122205239Y-31730952D01*
X121633810Y-32302381D01*
X122252858Y-32302381D01*
X108592381Y-109788095D02*
X107592381Y-109788095D01*
X108592381Y-109216666D02*
X108020952Y-109645238D01*
X107592381Y-109216666D02*
X108163810Y-109788095D01*
X108592381Y-108264285D02*
X108592381Y-108835714D01*
X108592381Y-108550000D02*
X107592381Y-108550000D01*
X107735238Y-108645238D01*
X107830476Y-108740476D01*
X107878095Y-108835714D01*
X89152381Y-101156666D02*
X89152381Y-101632857D01*
X88152381Y-101632857D01*
X88247619Y-100870952D02*
X88200000Y-100823333D01*
X88152381Y-100728095D01*
X88152381Y-100489999D01*
X88200000Y-100394761D01*
X88247619Y-100347142D01*
X88342857Y-100299523D01*
X88438095Y-100299523D01*
X88580952Y-100347142D01*
X89152381Y-100918571D01*
X89152381Y-100299523D01*
X119064762Y-69197619D02*
X118969524Y-69150000D01*
X118874286Y-69054762D01*
X118731429Y-68911905D01*
X118636190Y-68864286D01*
X118540952Y-68864286D01*
X118588571Y-69102381D02*
X118493333Y-69054762D01*
X118398095Y-68959524D01*
X118350476Y-68769048D01*
X118350476Y-68435714D01*
X118398095Y-68245238D01*
X118493333Y-68150000D01*
X118588571Y-68102381D01*
X118779048Y-68102381D01*
X118874286Y-68150000D01*
X118969524Y-68245238D01*
X119017143Y-68435714D01*
X119017143Y-68769048D01*
X118969524Y-68959524D01*
X118874286Y-69054762D01*
X118779048Y-69102381D01*
X118588571Y-69102381D01*
X119969524Y-69102381D02*
X119398095Y-69102381D01*
X119683809Y-69102381D02*
X119683809Y-68102381D01*
X119588571Y-68245238D01*
X119493333Y-68340476D01*
X119398095Y-68388095D01*
X110514762Y-73757619D02*
X110419524Y-73710000D01*
X110324286Y-73614762D01*
X110181429Y-73471905D01*
X110086190Y-73424286D01*
X109990952Y-73424286D01*
X110038571Y-73662381D02*
X109943333Y-73614762D01*
X109848095Y-73519524D01*
X109800476Y-73329048D01*
X109800476Y-72995714D01*
X109848095Y-72805238D01*
X109943333Y-72710000D01*
X110038571Y-72662381D01*
X110229048Y-72662381D01*
X110324286Y-72710000D01*
X110419524Y-72805238D01*
X110467143Y-72995714D01*
X110467143Y-73329048D01*
X110419524Y-73519524D01*
X110324286Y-73614762D01*
X110229048Y-73662381D01*
X110038571Y-73662381D01*
X110848095Y-72757619D02*
X110895714Y-72710000D01*
X110990952Y-72662381D01*
X111229048Y-72662381D01*
X111324286Y-72710000D01*
X111371905Y-72757619D01*
X111419524Y-72852857D01*
X111419524Y-72948095D01*
X111371905Y-73090952D01*
X110800476Y-73662381D01*
X111419524Y-73662381D01*
X84344762Y-89437619D02*
X84249524Y-89390000D01*
X84154286Y-89294762D01*
X84011429Y-89151905D01*
X83916190Y-89104286D01*
X83820952Y-89104286D01*
X83868571Y-89342381D02*
X83773333Y-89294762D01*
X83678095Y-89199524D01*
X83630476Y-89009048D01*
X83630476Y-88675714D01*
X83678095Y-88485238D01*
X83773333Y-88390000D01*
X83868571Y-88342381D01*
X84059048Y-88342381D01*
X84154286Y-88390000D01*
X84249524Y-88485238D01*
X84297143Y-88675714D01*
X84297143Y-89009048D01*
X84249524Y-89199524D01*
X84154286Y-89294762D01*
X84059048Y-89342381D01*
X83868571Y-89342381D01*
X84630476Y-88342381D02*
X85249524Y-88342381D01*
X84916190Y-88723333D01*
X85059048Y-88723333D01*
X85154286Y-88770952D01*
X85201905Y-88818571D01*
X85249524Y-88913810D01*
X85249524Y-89151905D01*
X85201905Y-89247143D01*
X85154286Y-89294762D01*
X85059048Y-89342381D01*
X84773333Y-89342381D01*
X84678095Y-89294762D01*
X84630476Y-89247143D01*
X61343334Y-63222381D02*
X61010000Y-62746190D01*
X60771905Y-63222381D02*
X60771905Y-62222381D01*
X61152858Y-62222381D01*
X61248096Y-62270000D01*
X61295715Y-62317619D01*
X61343334Y-62412857D01*
X61343334Y-62555714D01*
X61295715Y-62650952D01*
X61248096Y-62698571D01*
X61152858Y-62746190D01*
X60771905Y-62746190D01*
X62295715Y-63222381D02*
X61724286Y-63222381D01*
X62010000Y-63222381D02*
X62010000Y-62222381D01*
X61914762Y-62365238D01*
X61819524Y-62460476D01*
X61724286Y-62508095D01*
X67242381Y-79296666D02*
X66766190Y-79630000D01*
X67242381Y-79868095D02*
X66242381Y-79868095D01*
X66242381Y-79487142D01*
X66290000Y-79391904D01*
X66337619Y-79344285D01*
X66432857Y-79296666D01*
X66575714Y-79296666D01*
X66670952Y-79344285D01*
X66718571Y-79391904D01*
X66766190Y-79487142D01*
X66766190Y-79868095D01*
X66337619Y-78915714D02*
X66290000Y-78868095D01*
X66242381Y-78772857D01*
X66242381Y-78534761D01*
X66290000Y-78439523D01*
X66337619Y-78391904D01*
X66432857Y-78344285D01*
X66528095Y-78344285D01*
X66670952Y-78391904D01*
X67242381Y-78963333D01*
X67242381Y-78344285D01*
X127272381Y-90686666D02*
X126796190Y-91020000D01*
X127272381Y-91258095D02*
X126272381Y-91258095D01*
X126272381Y-90877142D01*
X126320000Y-90781904D01*
X126367619Y-90734285D01*
X126462857Y-90686666D01*
X126605714Y-90686666D01*
X126700952Y-90734285D01*
X126748571Y-90781904D01*
X126796190Y-90877142D01*
X126796190Y-91258095D01*
X126272381Y-90353333D02*
X126272381Y-89734285D01*
X126653333Y-90067619D01*
X126653333Y-89924761D01*
X126700952Y-89829523D01*
X126748571Y-89781904D01*
X126843810Y-89734285D01*
X127081905Y-89734285D01*
X127177143Y-89781904D01*
X127224762Y-89829523D01*
X127272381Y-89924761D01*
X127272381Y-90210476D01*
X127224762Y-90305714D01*
X127177143Y-90353333D01*
X112813334Y-85942381D02*
X112480000Y-85466190D01*
X112241905Y-85942381D02*
X112241905Y-84942381D01*
X112622858Y-84942381D01*
X112718096Y-84990000D01*
X112765715Y-85037619D01*
X112813334Y-85132857D01*
X112813334Y-85275714D01*
X112765715Y-85370952D01*
X112718096Y-85418571D01*
X112622858Y-85466190D01*
X112241905Y-85466190D01*
X113670477Y-84942381D02*
X113480000Y-84942381D01*
X113384762Y-84990000D01*
X113337143Y-85037619D01*
X113241905Y-85180476D01*
X113194286Y-85370952D01*
X113194286Y-85751905D01*
X113241905Y-85847143D01*
X113289524Y-85894762D01*
X113384762Y-85942381D01*
X113575239Y-85942381D01*
X113670477Y-85894762D01*
X113718096Y-85847143D01*
X113765715Y-85751905D01*
X113765715Y-85513810D01*
X113718096Y-85418571D01*
X113670477Y-85370952D01*
X113575239Y-85323333D01*
X113384762Y-85323333D01*
X113289524Y-85370952D01*
X113241905Y-85418571D01*
X113194286Y-85513810D01*
X112813334Y-87992381D02*
X112480000Y-87516190D01*
X112241905Y-87992381D02*
X112241905Y-86992381D01*
X112622858Y-86992381D01*
X112718096Y-87040000D01*
X112765715Y-87087619D01*
X112813334Y-87182857D01*
X112813334Y-87325714D01*
X112765715Y-87420952D01*
X112718096Y-87468571D01*
X112622858Y-87516190D01*
X112241905Y-87516190D01*
X113384762Y-87420952D02*
X113289524Y-87373333D01*
X113241905Y-87325714D01*
X113194286Y-87230476D01*
X113194286Y-87182857D01*
X113241905Y-87087619D01*
X113289524Y-87040000D01*
X113384762Y-86992381D01*
X113575239Y-86992381D01*
X113670477Y-87040000D01*
X113718096Y-87087619D01*
X113765715Y-87182857D01*
X113765715Y-87230476D01*
X113718096Y-87325714D01*
X113670477Y-87373333D01*
X113575239Y-87420952D01*
X113384762Y-87420952D01*
X113289524Y-87468571D01*
X113241905Y-87516190D01*
X113194286Y-87611429D01*
X113194286Y-87801905D01*
X113241905Y-87897143D01*
X113289524Y-87944762D01*
X113384762Y-87992381D01*
X113575239Y-87992381D01*
X113670477Y-87944762D01*
X113718096Y-87897143D01*
X113765715Y-87801905D01*
X113765715Y-87611429D01*
X113718096Y-87516190D01*
X113670477Y-87468571D01*
X113575239Y-87420952D01*
X85952381Y-78672857D02*
X85476190Y-79006191D01*
X85952381Y-79244286D02*
X84952381Y-79244286D01*
X84952381Y-78863333D01*
X85000000Y-78768095D01*
X85047619Y-78720476D01*
X85142857Y-78672857D01*
X85285714Y-78672857D01*
X85380952Y-78720476D01*
X85428571Y-78768095D01*
X85476190Y-78863333D01*
X85476190Y-79244286D01*
X85952381Y-77720476D02*
X85952381Y-78291905D01*
X85952381Y-78006191D02*
X84952381Y-78006191D01*
X85095238Y-78101429D01*
X85190476Y-78196667D01*
X85238095Y-78291905D01*
X84952381Y-77101429D02*
X84952381Y-77006190D01*
X85000000Y-76910952D01*
X85047619Y-76863333D01*
X85142857Y-76815714D01*
X85333333Y-76768095D01*
X85571429Y-76768095D01*
X85761905Y-76815714D01*
X85857143Y-76863333D01*
X85904762Y-76910952D01*
X85952381Y-77006190D01*
X85952381Y-77101429D01*
X85904762Y-77196667D01*
X85857143Y-77244286D01*
X85761905Y-77291905D01*
X85571429Y-77339524D01*
X85333333Y-77339524D01*
X85142857Y-77291905D01*
X85047619Y-77244286D01*
X85000000Y-77196667D01*
X84952381Y-77101429D01*
X124792381Y-91132857D02*
X124316190Y-91466191D01*
X124792381Y-91704286D02*
X123792381Y-91704286D01*
X123792381Y-91323333D01*
X123840000Y-91228095D01*
X123887619Y-91180476D01*
X123982857Y-91132857D01*
X124125714Y-91132857D01*
X124220952Y-91180476D01*
X124268571Y-91228095D01*
X124316190Y-91323333D01*
X124316190Y-91704286D01*
X124792381Y-90180476D02*
X124792381Y-90751905D01*
X124792381Y-90466191D02*
X123792381Y-90466191D01*
X123935238Y-90561429D01*
X124030476Y-90656667D01*
X124078095Y-90751905D01*
X124792381Y-89228095D02*
X124792381Y-89799524D01*
X124792381Y-89513810D02*
X123792381Y-89513810D01*
X123935238Y-89609048D01*
X124030476Y-89704286D01*
X124078095Y-89799524D01*
X111827143Y-84282381D02*
X111493809Y-83806190D01*
X111255714Y-84282381D02*
X111255714Y-83282381D01*
X111636667Y-83282381D01*
X111731905Y-83330000D01*
X111779524Y-83377619D01*
X111827143Y-83472857D01*
X111827143Y-83615714D01*
X111779524Y-83710952D01*
X111731905Y-83758571D01*
X111636667Y-83806190D01*
X111255714Y-83806190D01*
X112779524Y-84282381D02*
X112208095Y-84282381D01*
X112493809Y-84282381D02*
X112493809Y-83282381D01*
X112398571Y-83425238D01*
X112303333Y-83520476D01*
X112208095Y-83568095D01*
X113112857Y-83282381D02*
X113731905Y-83282381D01*
X113398571Y-83663333D01*
X113541429Y-83663333D01*
X113636667Y-83710952D01*
X113684286Y-83758571D01*
X113731905Y-83853810D01*
X113731905Y-84091905D01*
X113684286Y-84187143D01*
X113636667Y-84234762D01*
X113541429Y-84282381D01*
X113255714Y-84282381D01*
X113160476Y-84234762D01*
X113112857Y-84187143D01*
X112007143Y-89762381D02*
X111673809Y-89286190D01*
X111435714Y-89762381D02*
X111435714Y-88762381D01*
X111816667Y-88762381D01*
X111911905Y-88810000D01*
X111959524Y-88857619D01*
X112007143Y-88952857D01*
X112007143Y-89095714D01*
X111959524Y-89190952D01*
X111911905Y-89238571D01*
X111816667Y-89286190D01*
X111435714Y-89286190D01*
X112959524Y-89762381D02*
X112388095Y-89762381D01*
X112673809Y-89762381D02*
X112673809Y-88762381D01*
X112578571Y-88905238D01*
X112483333Y-89000476D01*
X112388095Y-89048095D01*
X113864286Y-88762381D02*
X113388095Y-88762381D01*
X113340476Y-89238571D01*
X113388095Y-89190952D01*
X113483333Y-89143333D01*
X113721429Y-89143333D01*
X113816667Y-89190952D01*
X113864286Y-89238571D01*
X113911905Y-89333810D01*
X113911905Y-89571905D01*
X113864286Y-89667143D01*
X113816667Y-89714762D01*
X113721429Y-89762381D01*
X113483333Y-89762381D01*
X113388095Y-89714762D01*
X113340476Y-89667143D01*
X59997143Y-29762381D02*
X59663809Y-29286190D01*
X59425714Y-29762381D02*
X59425714Y-28762381D01*
X59806667Y-28762381D01*
X59901905Y-28810000D01*
X59949524Y-28857619D01*
X59997143Y-28952857D01*
X59997143Y-29095714D01*
X59949524Y-29190952D01*
X59901905Y-29238571D01*
X59806667Y-29286190D01*
X59425714Y-29286190D01*
X60949524Y-29762381D02*
X60378095Y-29762381D01*
X60663809Y-29762381D02*
X60663809Y-28762381D01*
X60568571Y-28905238D01*
X60473333Y-29000476D01*
X60378095Y-29048095D01*
X61282857Y-28762381D02*
X61949524Y-28762381D01*
X61520952Y-29762381D01*
X118862381Y-77902857D02*
X118386190Y-78236191D01*
X118862381Y-78474286D02*
X117862381Y-78474286D01*
X117862381Y-78093333D01*
X117910000Y-77998095D01*
X117957619Y-77950476D01*
X118052857Y-77902857D01*
X118195714Y-77902857D01*
X118290952Y-77950476D01*
X118338571Y-77998095D01*
X118386190Y-78093333D01*
X118386190Y-78474286D01*
X118862381Y-76950476D02*
X118862381Y-77521905D01*
X118862381Y-77236191D02*
X117862381Y-77236191D01*
X118005238Y-77331429D01*
X118100476Y-77426667D01*
X118148095Y-77521905D01*
X118290952Y-76379048D02*
X118243333Y-76474286D01*
X118195714Y-76521905D01*
X118100476Y-76569524D01*
X118052857Y-76569524D01*
X117957619Y-76521905D01*
X117910000Y-76474286D01*
X117862381Y-76379048D01*
X117862381Y-76188571D01*
X117910000Y-76093333D01*
X117957619Y-76045714D01*
X118052857Y-75998095D01*
X118100476Y-75998095D01*
X118195714Y-76045714D01*
X118243333Y-76093333D01*
X118290952Y-76188571D01*
X118290952Y-76379048D01*
X118338571Y-76474286D01*
X118386190Y-76521905D01*
X118481429Y-76569524D01*
X118671905Y-76569524D01*
X118767143Y-76521905D01*
X118814762Y-76474286D01*
X118862381Y-76379048D01*
X118862381Y-76188571D01*
X118814762Y-76093333D01*
X118767143Y-76045714D01*
X118671905Y-75998095D01*
X118481429Y-75998095D01*
X118386190Y-76045714D01*
X118338571Y-76093333D01*
X118290952Y-76188571D01*
X161527143Y-120032381D02*
X161193809Y-119556190D01*
X160955714Y-120032381D02*
X160955714Y-119032381D01*
X161336667Y-119032381D01*
X161431905Y-119080000D01*
X161479524Y-119127619D01*
X161527143Y-119222857D01*
X161527143Y-119365714D01*
X161479524Y-119460952D01*
X161431905Y-119508571D01*
X161336667Y-119556190D01*
X160955714Y-119556190D01*
X162479524Y-120032381D02*
X161908095Y-120032381D01*
X162193809Y-120032381D02*
X162193809Y-119032381D01*
X162098571Y-119175238D01*
X162003333Y-119270476D01*
X161908095Y-119318095D01*
X162955714Y-120032381D02*
X163146190Y-120032381D01*
X163241429Y-119984762D01*
X163289048Y-119937143D01*
X163384286Y-119794286D01*
X163431905Y-119603810D01*
X163431905Y-119222857D01*
X163384286Y-119127619D01*
X163336667Y-119080000D01*
X163241429Y-119032381D01*
X163050952Y-119032381D01*
X162955714Y-119080000D01*
X162908095Y-119127619D01*
X162860476Y-119222857D01*
X162860476Y-119460952D01*
X162908095Y-119556190D01*
X162955714Y-119603810D01*
X163050952Y-119651429D01*
X163241429Y-119651429D01*
X163336667Y-119603810D01*
X163384286Y-119556190D01*
X163431905Y-119460952D01*
X165517143Y-120082381D02*
X165183809Y-119606190D01*
X164945714Y-120082381D02*
X164945714Y-119082381D01*
X165326667Y-119082381D01*
X165421905Y-119130000D01*
X165469524Y-119177619D01*
X165517143Y-119272857D01*
X165517143Y-119415714D01*
X165469524Y-119510952D01*
X165421905Y-119558571D01*
X165326667Y-119606190D01*
X164945714Y-119606190D01*
X165898095Y-119177619D02*
X165945714Y-119130000D01*
X166040952Y-119082381D01*
X166279048Y-119082381D01*
X166374286Y-119130000D01*
X166421905Y-119177619D01*
X166469524Y-119272857D01*
X166469524Y-119368095D01*
X166421905Y-119510952D01*
X165850476Y-120082381D01*
X166469524Y-120082381D01*
X167088571Y-119082381D02*
X167183810Y-119082381D01*
X167279048Y-119130000D01*
X167326667Y-119177619D01*
X167374286Y-119272857D01*
X167421905Y-119463333D01*
X167421905Y-119701429D01*
X167374286Y-119891905D01*
X167326667Y-119987143D01*
X167279048Y-120034762D01*
X167183810Y-120082381D01*
X167088571Y-120082381D01*
X166993333Y-120034762D01*
X166945714Y-119987143D01*
X166898095Y-119891905D01*
X166850476Y-119701429D01*
X166850476Y-119463333D01*
X166898095Y-119272857D01*
X166945714Y-119177619D01*
X166993333Y-119130000D01*
X167088571Y-119082381D01*
X168357143Y-119902381D02*
X168023809Y-119426190D01*
X167785714Y-119902381D02*
X167785714Y-118902381D01*
X168166667Y-118902381D01*
X168261905Y-118950000D01*
X168309524Y-118997619D01*
X168357143Y-119092857D01*
X168357143Y-119235714D01*
X168309524Y-119330952D01*
X168261905Y-119378571D01*
X168166667Y-119426190D01*
X167785714Y-119426190D01*
X168738095Y-118997619D02*
X168785714Y-118950000D01*
X168880952Y-118902381D01*
X169119048Y-118902381D01*
X169214286Y-118950000D01*
X169261905Y-118997619D01*
X169309524Y-119092857D01*
X169309524Y-119188095D01*
X169261905Y-119330952D01*
X168690476Y-119902381D01*
X169309524Y-119902381D01*
X170261905Y-119902381D02*
X169690476Y-119902381D01*
X169976190Y-119902381D02*
X169976190Y-118902381D01*
X169880952Y-119045238D01*
X169785714Y-119140476D01*
X169690476Y-119188095D01*
X108182381Y-85732857D02*
X107706190Y-86066191D01*
X108182381Y-86304286D02*
X107182381Y-86304286D01*
X107182381Y-85923333D01*
X107230000Y-85828095D01*
X107277619Y-85780476D01*
X107372857Y-85732857D01*
X107515714Y-85732857D01*
X107610952Y-85780476D01*
X107658571Y-85828095D01*
X107706190Y-85923333D01*
X107706190Y-86304286D01*
X107277619Y-85351905D02*
X107230000Y-85304286D01*
X107182381Y-85209048D01*
X107182381Y-84970952D01*
X107230000Y-84875714D01*
X107277619Y-84828095D01*
X107372857Y-84780476D01*
X107468095Y-84780476D01*
X107610952Y-84828095D01*
X108182381Y-85399524D01*
X108182381Y-84780476D01*
X107277619Y-84399524D02*
X107230000Y-84351905D01*
X107182381Y-84256667D01*
X107182381Y-84018571D01*
X107230000Y-83923333D01*
X107277619Y-83875714D01*
X107372857Y-83828095D01*
X107468095Y-83828095D01*
X107610952Y-83875714D01*
X108182381Y-84447143D01*
X108182381Y-83828095D01*
X150112381Y-116642857D02*
X149636190Y-116976191D01*
X150112381Y-117214286D02*
X149112381Y-117214286D01*
X149112381Y-116833333D01*
X149160000Y-116738095D01*
X149207619Y-116690476D01*
X149302857Y-116642857D01*
X149445714Y-116642857D01*
X149540952Y-116690476D01*
X149588571Y-116738095D01*
X149636190Y-116833333D01*
X149636190Y-117214286D01*
X149207619Y-116261905D02*
X149160000Y-116214286D01*
X149112381Y-116119048D01*
X149112381Y-115880952D01*
X149160000Y-115785714D01*
X149207619Y-115738095D01*
X149302857Y-115690476D01*
X149398095Y-115690476D01*
X149540952Y-115738095D01*
X150112381Y-116309524D01*
X150112381Y-115690476D01*
X149112381Y-115357143D02*
X149112381Y-114738095D01*
X149493333Y-115071429D01*
X149493333Y-114928571D01*
X149540952Y-114833333D01*
X149588571Y-114785714D01*
X149683810Y-114738095D01*
X149921905Y-114738095D01*
X150017143Y-114785714D01*
X150064762Y-114833333D01*
X150112381Y-114928571D01*
X150112381Y-115214286D01*
X150064762Y-115309524D01*
X150017143Y-115357143D01*
X191402381Y-80492857D02*
X190926190Y-80826191D01*
X191402381Y-81064286D02*
X190402381Y-81064286D01*
X190402381Y-80683333D01*
X190450000Y-80588095D01*
X190497619Y-80540476D01*
X190592857Y-80492857D01*
X190735714Y-80492857D01*
X190830952Y-80540476D01*
X190878571Y-80588095D01*
X190926190Y-80683333D01*
X190926190Y-81064286D01*
X190497619Y-80111905D02*
X190450000Y-80064286D01*
X190402381Y-79969048D01*
X190402381Y-79730952D01*
X190450000Y-79635714D01*
X190497619Y-79588095D01*
X190592857Y-79540476D01*
X190688095Y-79540476D01*
X190830952Y-79588095D01*
X191402381Y-80159524D01*
X191402381Y-79540476D01*
X190735714Y-78683333D02*
X191402381Y-78683333D01*
X190354762Y-78921429D02*
X191069048Y-79159524D01*
X191069048Y-78540476D01*
X74017143Y-90442381D02*
X73683809Y-89966190D01*
X73445714Y-90442381D02*
X73445714Y-89442381D01*
X73826667Y-89442381D01*
X73921905Y-89490000D01*
X73969524Y-89537619D01*
X74017143Y-89632857D01*
X74017143Y-89775714D01*
X73969524Y-89870952D01*
X73921905Y-89918571D01*
X73826667Y-89966190D01*
X73445714Y-89966190D01*
X74398095Y-89537619D02*
X74445714Y-89490000D01*
X74540952Y-89442381D01*
X74779048Y-89442381D01*
X74874286Y-89490000D01*
X74921905Y-89537619D01*
X74969524Y-89632857D01*
X74969524Y-89728095D01*
X74921905Y-89870952D01*
X74350476Y-90442381D01*
X74969524Y-90442381D01*
X75826667Y-89442381D02*
X75636190Y-89442381D01*
X75540952Y-89490000D01*
X75493333Y-89537619D01*
X75398095Y-89680476D01*
X75350476Y-89870952D01*
X75350476Y-90251905D01*
X75398095Y-90347143D01*
X75445714Y-90394762D01*
X75540952Y-90442381D01*
X75731429Y-90442381D01*
X75826667Y-90394762D01*
X75874286Y-90347143D01*
X75921905Y-90251905D01*
X75921905Y-90013810D01*
X75874286Y-89918571D01*
X75826667Y-89870952D01*
X75731429Y-89823333D01*
X75540952Y-89823333D01*
X75445714Y-89870952D01*
X75398095Y-89918571D01*
X75350476Y-90013810D01*
X77532381Y-91982857D02*
X77056190Y-92316191D01*
X77532381Y-92554286D02*
X76532381Y-92554286D01*
X76532381Y-92173333D01*
X76580000Y-92078095D01*
X76627619Y-92030476D01*
X76722857Y-91982857D01*
X76865714Y-91982857D01*
X76960952Y-92030476D01*
X77008571Y-92078095D01*
X77056190Y-92173333D01*
X77056190Y-92554286D01*
X76532381Y-91649524D02*
X76532381Y-91030476D01*
X76913333Y-91363810D01*
X76913333Y-91220952D01*
X76960952Y-91125714D01*
X77008571Y-91078095D01*
X77103810Y-91030476D01*
X77341905Y-91030476D01*
X77437143Y-91078095D01*
X77484762Y-91125714D01*
X77532381Y-91220952D01*
X77532381Y-91506667D01*
X77484762Y-91601905D01*
X77437143Y-91649524D01*
X76532381Y-90697143D02*
X76532381Y-90030476D01*
X77532381Y-90459048D01*
X199592381Y-122292857D02*
X199116190Y-122626191D01*
X199592381Y-122864286D02*
X198592381Y-122864286D01*
X198592381Y-122483333D01*
X198640000Y-122388095D01*
X198687619Y-122340476D01*
X198782857Y-122292857D01*
X198925714Y-122292857D01*
X199020952Y-122340476D01*
X199068571Y-122388095D01*
X199116190Y-122483333D01*
X199116190Y-122864286D01*
X198925714Y-121435714D02*
X199592381Y-121435714D01*
X198544762Y-121673810D02*
X199259048Y-121911905D01*
X199259048Y-121292857D01*
X198592381Y-121007143D02*
X198592381Y-120388095D01*
X198973333Y-120721429D01*
X198973333Y-120578571D01*
X199020952Y-120483333D01*
X199068571Y-120435714D01*
X199163810Y-120388095D01*
X199401905Y-120388095D01*
X199497143Y-120435714D01*
X199544762Y-120483333D01*
X199592381Y-120578571D01*
X199592381Y-120864286D01*
X199544762Y-120959524D01*
X199497143Y-121007143D01*
X117202381Y-67562857D02*
X116726190Y-67896191D01*
X117202381Y-68134286D02*
X116202381Y-68134286D01*
X116202381Y-67753333D01*
X116250000Y-67658095D01*
X116297619Y-67610476D01*
X116392857Y-67562857D01*
X116535714Y-67562857D01*
X116630952Y-67610476D01*
X116678571Y-67658095D01*
X116726190Y-67753333D01*
X116726190Y-68134286D01*
X116535714Y-66705714D02*
X117202381Y-66705714D01*
X116154762Y-66943810D02*
X116869048Y-67181905D01*
X116869048Y-66562857D01*
X116202381Y-65753333D02*
X116202381Y-65943810D01*
X116250000Y-66039048D01*
X116297619Y-66086667D01*
X116440476Y-66181905D01*
X116630952Y-66229524D01*
X117011905Y-66229524D01*
X117107143Y-66181905D01*
X117154762Y-66134286D01*
X117202381Y-66039048D01*
X117202381Y-65848571D01*
X117154762Y-65753333D01*
X117107143Y-65705714D01*
X117011905Y-65658095D01*
X116773810Y-65658095D01*
X116678571Y-65705714D01*
X116630952Y-65753333D01*
X116583333Y-65848571D01*
X116583333Y-66039048D01*
X116630952Y-66134286D01*
X116678571Y-66181905D01*
X116773810Y-66229524D01*
X114432381Y-70532857D02*
X113956190Y-70866191D01*
X114432381Y-71104286D02*
X113432381Y-71104286D01*
X113432381Y-70723333D01*
X113480000Y-70628095D01*
X113527619Y-70580476D01*
X113622857Y-70532857D01*
X113765714Y-70532857D01*
X113860952Y-70580476D01*
X113908571Y-70628095D01*
X113956190Y-70723333D01*
X113956190Y-71104286D01*
X113765714Y-69675714D02*
X114432381Y-69675714D01*
X113384762Y-69913810D02*
X114099048Y-70151905D01*
X114099048Y-69532857D01*
X113432381Y-69247143D02*
X113432381Y-68580476D01*
X114432381Y-69009048D01*
X119997143Y-74272381D02*
X119663809Y-73796190D01*
X119425714Y-74272381D02*
X119425714Y-73272381D01*
X119806667Y-73272381D01*
X119901905Y-73320000D01*
X119949524Y-73367619D01*
X119997143Y-73462857D01*
X119997143Y-73605714D01*
X119949524Y-73700952D01*
X119901905Y-73748571D01*
X119806667Y-73796190D01*
X119425714Y-73796190D01*
X120854286Y-73605714D02*
X120854286Y-74272381D01*
X120616190Y-73224762D02*
X120378095Y-73939048D01*
X120997143Y-73939048D01*
X121520952Y-73700952D02*
X121425714Y-73653333D01*
X121378095Y-73605714D01*
X121330476Y-73510476D01*
X121330476Y-73462857D01*
X121378095Y-73367619D01*
X121425714Y-73320000D01*
X121520952Y-73272381D01*
X121711429Y-73272381D01*
X121806667Y-73320000D01*
X121854286Y-73367619D01*
X121901905Y-73462857D01*
X121901905Y-73510476D01*
X121854286Y-73605714D01*
X121806667Y-73653333D01*
X121711429Y-73700952D01*
X121520952Y-73700952D01*
X121425714Y-73748571D01*
X121378095Y-73796190D01*
X121330476Y-73891429D01*
X121330476Y-74081905D01*
X121378095Y-74177143D01*
X121425714Y-74224762D01*
X121520952Y-74272381D01*
X121711429Y-74272381D01*
X121806667Y-74224762D01*
X121854286Y-74177143D01*
X121901905Y-74081905D01*
X121901905Y-73891429D01*
X121854286Y-73796190D01*
X121806667Y-73748571D01*
X121711429Y-73700952D01*
X109517143Y-70902381D02*
X109183809Y-70426190D01*
X108945714Y-70902381D02*
X108945714Y-69902381D01*
X109326667Y-69902381D01*
X109421905Y-69950000D01*
X109469524Y-69997619D01*
X109517143Y-70092857D01*
X109517143Y-70235714D01*
X109469524Y-70330952D01*
X109421905Y-70378571D01*
X109326667Y-70426190D01*
X108945714Y-70426190D01*
X110374286Y-70235714D02*
X110374286Y-70902381D01*
X110136190Y-69854762D02*
X109898095Y-70569048D01*
X110517143Y-70569048D01*
X110945714Y-70902381D02*
X111136190Y-70902381D01*
X111231429Y-70854762D01*
X111279048Y-70807143D01*
X111374286Y-70664286D01*
X111421905Y-70473810D01*
X111421905Y-70092857D01*
X111374286Y-69997619D01*
X111326667Y-69950000D01*
X111231429Y-69902381D01*
X111040952Y-69902381D01*
X110945714Y-69950000D01*
X110898095Y-69997619D01*
X110850476Y-70092857D01*
X110850476Y-70330952D01*
X110898095Y-70426190D01*
X110945714Y-70473810D01*
X111040952Y-70521429D01*
X111231429Y-70521429D01*
X111326667Y-70473810D01*
X111374286Y-70426190D01*
X111421905Y-70330952D01*
X105612381Y-76292857D02*
X105136190Y-76626191D01*
X105612381Y-76864286D02*
X104612381Y-76864286D01*
X104612381Y-76483333D01*
X104660000Y-76388095D01*
X104707619Y-76340476D01*
X104802857Y-76292857D01*
X104945714Y-76292857D01*
X105040952Y-76340476D01*
X105088571Y-76388095D01*
X105136190Y-76483333D01*
X105136190Y-76864286D01*
X104612381Y-75388095D02*
X104612381Y-75864286D01*
X105088571Y-75911905D01*
X105040952Y-75864286D01*
X104993333Y-75769048D01*
X104993333Y-75530952D01*
X105040952Y-75435714D01*
X105088571Y-75388095D01*
X105183810Y-75340476D01*
X105421905Y-75340476D01*
X105517143Y-75388095D01*
X105564762Y-75435714D01*
X105612381Y-75530952D01*
X105612381Y-75769048D01*
X105564762Y-75864286D01*
X105517143Y-75911905D01*
X104612381Y-74721429D02*
X104612381Y-74626190D01*
X104660000Y-74530952D01*
X104707619Y-74483333D01*
X104802857Y-74435714D01*
X104993333Y-74388095D01*
X105231429Y-74388095D01*
X105421905Y-74435714D01*
X105517143Y-74483333D01*
X105564762Y-74530952D01*
X105612381Y-74626190D01*
X105612381Y-74721429D01*
X105564762Y-74816667D01*
X105517143Y-74864286D01*
X105421905Y-74911905D01*
X105231429Y-74959524D01*
X104993333Y-74959524D01*
X104802857Y-74911905D01*
X104707619Y-74864286D01*
X104660000Y-74816667D01*
X104612381Y-74721429D01*
X114127143Y-74822381D02*
X113793809Y-74346190D01*
X113555714Y-74822381D02*
X113555714Y-73822381D01*
X113936667Y-73822381D01*
X114031905Y-73870000D01*
X114079524Y-73917619D01*
X114127143Y-74012857D01*
X114127143Y-74155714D01*
X114079524Y-74250952D01*
X114031905Y-74298571D01*
X113936667Y-74346190D01*
X113555714Y-74346190D01*
X115031905Y-73822381D02*
X114555714Y-73822381D01*
X114508095Y-74298571D01*
X114555714Y-74250952D01*
X114650952Y-74203333D01*
X114889048Y-74203333D01*
X114984286Y-74250952D01*
X115031905Y-74298571D01*
X115079524Y-74393810D01*
X115079524Y-74631905D01*
X115031905Y-74727143D01*
X114984286Y-74774762D01*
X114889048Y-74822381D01*
X114650952Y-74822381D01*
X114555714Y-74774762D01*
X114508095Y-74727143D01*
X116031905Y-74822381D02*
X115460476Y-74822381D01*
X115746190Y-74822381D02*
X115746190Y-73822381D01*
X115650952Y-73965238D01*
X115555714Y-74060476D01*
X115460476Y-74108095D01*
X105832381Y-60822857D02*
X105356190Y-61156191D01*
X105832381Y-61394286D02*
X104832381Y-61394286D01*
X104832381Y-61013333D01*
X104880000Y-60918095D01*
X104927619Y-60870476D01*
X105022857Y-60822857D01*
X105165714Y-60822857D01*
X105260952Y-60870476D01*
X105308571Y-60918095D01*
X105356190Y-61013333D01*
X105356190Y-61394286D01*
X104832381Y-59918095D02*
X104832381Y-60394286D01*
X105308571Y-60441905D01*
X105260952Y-60394286D01*
X105213333Y-60299048D01*
X105213333Y-60060952D01*
X105260952Y-59965714D01*
X105308571Y-59918095D01*
X105403810Y-59870476D01*
X105641905Y-59870476D01*
X105737143Y-59918095D01*
X105784762Y-59965714D01*
X105832381Y-60060952D01*
X105832381Y-60299048D01*
X105784762Y-60394286D01*
X105737143Y-60441905D01*
X104927619Y-59489524D02*
X104880000Y-59441905D01*
X104832381Y-59346667D01*
X104832381Y-59108571D01*
X104880000Y-59013333D01*
X104927619Y-58965714D01*
X105022857Y-58918095D01*
X105118095Y-58918095D01*
X105260952Y-58965714D01*
X105832381Y-59537143D01*
X105832381Y-58918095D01*
X108562381Y-60942857D02*
X108086190Y-61276191D01*
X108562381Y-61514286D02*
X107562381Y-61514286D01*
X107562381Y-61133333D01*
X107610000Y-61038095D01*
X107657619Y-60990476D01*
X107752857Y-60942857D01*
X107895714Y-60942857D01*
X107990952Y-60990476D01*
X108038571Y-61038095D01*
X108086190Y-61133333D01*
X108086190Y-61514286D01*
X107562381Y-60038095D02*
X107562381Y-60514286D01*
X108038571Y-60561905D01*
X107990952Y-60514286D01*
X107943333Y-60419048D01*
X107943333Y-60180952D01*
X107990952Y-60085714D01*
X108038571Y-60038095D01*
X108133810Y-59990476D01*
X108371905Y-59990476D01*
X108467143Y-60038095D01*
X108514762Y-60085714D01*
X108562381Y-60180952D01*
X108562381Y-60419048D01*
X108514762Y-60514286D01*
X108467143Y-60561905D01*
X107562381Y-59657143D02*
X107562381Y-59038095D01*
X107943333Y-59371429D01*
X107943333Y-59228571D01*
X107990952Y-59133333D01*
X108038571Y-59085714D01*
X108133810Y-59038095D01*
X108371905Y-59038095D01*
X108467143Y-59085714D01*
X108514762Y-59133333D01*
X108562381Y-59228571D01*
X108562381Y-59514286D01*
X108514762Y-59609524D01*
X108467143Y-59657143D01*
X112542381Y-60782857D02*
X112066190Y-61116191D01*
X112542381Y-61354286D02*
X111542381Y-61354286D01*
X111542381Y-60973333D01*
X111590000Y-60878095D01*
X111637619Y-60830476D01*
X111732857Y-60782857D01*
X111875714Y-60782857D01*
X111970952Y-60830476D01*
X112018571Y-60878095D01*
X112066190Y-60973333D01*
X112066190Y-61354286D01*
X111542381Y-59878095D02*
X111542381Y-60354286D01*
X112018571Y-60401905D01*
X111970952Y-60354286D01*
X111923333Y-60259048D01*
X111923333Y-60020952D01*
X111970952Y-59925714D01*
X112018571Y-59878095D01*
X112113810Y-59830476D01*
X112351905Y-59830476D01*
X112447143Y-59878095D01*
X112494762Y-59925714D01*
X112542381Y-60020952D01*
X112542381Y-60259048D01*
X112494762Y-60354286D01*
X112447143Y-60401905D01*
X111875714Y-58973333D02*
X112542381Y-58973333D01*
X111494762Y-59211429D02*
X112209048Y-59449524D01*
X112209048Y-58830476D01*
D10*
X55652381Y-65146666D02*
X55676190Y-65075237D01*
X55676190Y-64956190D01*
X55652381Y-64908571D01*
X55628571Y-64884761D01*
X55580952Y-64860952D01*
X55533333Y-64860952D01*
X55485714Y-64884761D01*
X55461905Y-64908571D01*
X55438095Y-64956190D01*
X55414286Y-65051428D01*
X55390476Y-65099047D01*
X55366667Y-65122856D01*
X55319048Y-65146666D01*
X55271429Y-65146666D01*
X55223810Y-65122856D01*
X55200000Y-65099047D01*
X55176190Y-65051428D01*
X55176190Y-64932380D01*
X55200000Y-64860952D01*
X55176190Y-64694285D02*
X55676190Y-64575238D01*
X55319048Y-64480000D01*
X55676190Y-64384762D01*
X55176190Y-64265714D01*
X55676190Y-63813333D02*
X55676190Y-64099047D01*
X55676190Y-63956190D02*
X55176190Y-63956190D01*
X55247619Y-64003809D01*
X55295238Y-64051428D01*
X55319048Y-64099047D01*
D20*
X125392885Y-84253702D02*
X126204457Y-84253702D01*
X126299936Y-84205963D01*
X126347676Y-84158223D01*
X126395415Y-84062744D01*
X126395415Y-83871786D01*
X126347676Y-83776307D01*
X126299936Y-83728568D01*
X126204457Y-83680828D01*
X125392885Y-83680828D01*
X126395415Y-82678298D02*
X126395415Y-83251172D01*
X126395415Y-82964735D02*
X125392885Y-82964735D01*
X125536104Y-83060214D01*
X125631583Y-83155693D01*
X125679323Y-83251172D01*
X118807394Y-86406256D02*
X118855152Y-86262981D01*
X118855152Y-86024191D01*
X118807394Y-85928675D01*
X118759636Y-85880917D01*
X118664120Y-85833158D01*
X118568603Y-85833158D01*
X118473087Y-85880917D01*
X118425329Y-85928675D01*
X118377571Y-86024191D01*
X118329813Y-86215223D01*
X118282055Y-86310739D01*
X118234297Y-86358498D01*
X118138780Y-86406256D01*
X118043264Y-86406256D01*
X117947748Y-86358498D01*
X117899990Y-86310739D01*
X117852232Y-86215223D01*
X117852232Y-85976433D01*
X117899990Y-85833158D01*
X118855152Y-85403336D02*
X117852232Y-85403336D01*
X118282055Y-84782480D02*
X118234297Y-84877996D01*
X118186539Y-84925755D01*
X118091022Y-84973513D01*
X118043264Y-84973513D01*
X117947748Y-84925755D01*
X117899990Y-84877996D01*
X117852232Y-84782480D01*
X117852232Y-84591448D01*
X117899990Y-84495932D01*
X117947748Y-84448174D01*
X118043264Y-84400415D01*
X118091022Y-84400415D01*
X118186539Y-84448174D01*
X118234297Y-84495932D01*
X118282055Y-84591448D01*
X118282055Y-84782480D01*
X118329813Y-84877996D01*
X118377571Y-84925755D01*
X118473087Y-84973513D01*
X118664120Y-84973513D01*
X118759636Y-84925755D01*
X118807394Y-84877996D01*
X118855152Y-84782480D01*
X118855152Y-84591448D01*
X118807394Y-84495932D01*
X118759636Y-84448174D01*
X118664120Y-84400415D01*
X118473087Y-84400415D01*
X118377571Y-84448174D01*
X118329813Y-84495932D01*
X118282055Y-84591448D01*
X117852232Y-83540770D02*
X117852232Y-83731802D01*
X117899990Y-83827318D01*
X117947748Y-83875076D01*
X118091022Y-83970593D01*
X118282055Y-84018351D01*
X118664120Y-84018351D01*
X118759636Y-83970593D01*
X118807394Y-83922834D01*
X118855152Y-83827318D01*
X118855152Y-83636286D01*
X118807394Y-83540770D01*
X118759636Y-83493012D01*
X118664120Y-83445253D01*
X118425329Y-83445253D01*
X118329813Y-83493012D01*
X118282055Y-83540770D01*
X118234297Y-83636286D01*
X118234297Y-83827318D01*
X118282055Y-83922834D01*
X118329813Y-83970593D01*
X118425329Y-84018351D01*
X117852232Y-82824398D02*
X117852232Y-82728882D01*
X117899990Y-82633366D01*
X117947748Y-82585608D01*
X118043264Y-82537850D01*
X118234297Y-82490091D01*
X118473087Y-82490091D01*
X118664120Y-82537850D01*
X118759636Y-82585608D01*
X118807394Y-82633366D01*
X118855152Y-82728882D01*
X118855152Y-82824398D01*
X118807394Y-82919914D01*
X118759636Y-82967672D01*
X118664120Y-83015431D01*
X118473087Y-83063189D01*
X118234297Y-83063189D01*
X118043264Y-83015431D01*
X117947748Y-82967672D01*
X117899990Y-82919914D01*
X117852232Y-82824398D01*
X117852232Y-81869236D02*
X117852232Y-81773720D01*
X117899990Y-81678204D01*
X117947748Y-81630446D01*
X118043264Y-81582688D01*
X118234297Y-81534929D01*
X118473087Y-81534929D01*
X118664120Y-81582688D01*
X118759636Y-81630446D01*
X118807394Y-81678204D01*
X118855152Y-81773720D01*
X118855152Y-81869236D01*
X118807394Y-81964752D01*
X118759636Y-82012510D01*
X118664120Y-82060269D01*
X118473087Y-82108027D01*
X118234297Y-82108027D01*
X118043264Y-82060269D01*
X117947748Y-82012510D01*
X117899990Y-81964752D01*
X117852232Y-81869236D01*
X57530700Y-35461200D02*
X58860100Y-35461200D01*
X59016500Y-35383000D01*
X59094700Y-35304800D01*
X59172900Y-35148400D01*
X59172900Y-34835600D01*
X59094700Y-34679200D01*
X59016500Y-34601000D01*
X58860100Y-34522800D01*
X57530700Y-34522800D01*
X58078100Y-33037000D02*
X59172900Y-33037000D01*
X57452500Y-33428000D02*
X58625500Y-33819000D01*
X58625500Y-32802400D01*
X138085501Y-89125559D02*
X138085501Y-89937244D01*
X138133247Y-90032736D01*
X138180993Y-90080483D01*
X138276486Y-90128229D01*
X138467470Y-90128229D01*
X138562963Y-90080483D01*
X138610709Y-90032736D01*
X138658455Y-89937244D01*
X138658455Y-89125559D01*
X139613379Y-89125559D02*
X139135917Y-89125559D01*
X139088171Y-89603021D01*
X139135917Y-89555275D01*
X139231409Y-89507528D01*
X139470140Y-89507528D01*
X139565633Y-89555275D01*
X139613379Y-89603021D01*
X139661125Y-89698513D01*
X139661125Y-89937244D01*
X139613379Y-90032736D01*
X139565633Y-90080483D01*
X139470140Y-90128229D01*
X139231409Y-90128229D01*
X139135917Y-90080483D01*
X139088171Y-90032736D01*
X135861118Y-105414589D02*
X135527072Y-104937380D01*
X135288467Y-105414589D02*
X135288467Y-104412449D01*
X135670234Y-104412449D01*
X135765676Y-104460170D01*
X135813397Y-104507891D01*
X135861118Y-104603333D01*
X135861118Y-104746496D01*
X135813397Y-104841938D01*
X135765676Y-104889659D01*
X135670234Y-104937380D01*
X135288467Y-104937380D01*
X136815537Y-105414589D02*
X136242886Y-105414589D01*
X136529212Y-105414589D02*
X136529212Y-104412449D01*
X136433770Y-104555612D01*
X136338328Y-104651054D01*
X136242886Y-104698775D01*
X137197305Y-105366868D02*
X137340468Y-105414589D01*
X137579072Y-105414589D01*
X137674514Y-105366868D01*
X137722235Y-105319147D01*
X137769956Y-105223705D01*
X137769956Y-105128263D01*
X137722235Y-105032821D01*
X137674514Y-104985100D01*
X137579072Y-104937380D01*
X137388189Y-104889659D01*
X137292747Y-104841938D01*
X137245026Y-104794217D01*
X137197305Y-104698775D01*
X137197305Y-104603333D01*
X137245026Y-104507891D01*
X137292747Y-104460170D01*
X137388189Y-104412449D01*
X137626793Y-104412449D01*
X137769956Y-104460170D01*
X138199445Y-104889659D02*
X138533491Y-104889659D01*
X138676654Y-105414589D02*
X138199445Y-105414589D01*
X138199445Y-104412449D01*
X138676654Y-104412449D01*
X139106143Y-105032821D02*
X139869678Y-105032821D01*
X140537772Y-104412449D02*
X140633213Y-104412449D01*
X140728655Y-104460170D01*
X140776376Y-104507891D01*
X140824097Y-104603333D01*
X140871818Y-104794217D01*
X140871818Y-105032821D01*
X140824097Y-105223705D01*
X140776376Y-105319147D01*
X140728655Y-105366868D01*
X140633213Y-105414589D01*
X140537772Y-105414589D01*
X140442330Y-105366868D01*
X140394609Y-105319147D01*
X140346888Y-105223705D01*
X140299167Y-105032821D01*
X140299167Y-104794217D01*
X140346888Y-104603333D01*
X140394609Y-104507891D01*
X140442330Y-104460170D01*
X140537772Y-104412449D01*
X141778516Y-104412449D02*
X141301307Y-104412449D01*
X141253586Y-104889659D01*
X141301307Y-104841938D01*
X141396749Y-104794217D01*
X141635353Y-104794217D01*
X141730795Y-104841938D01*
X141778516Y-104889659D01*
X141826237Y-104985100D01*
X141826237Y-105223705D01*
X141778516Y-105319147D01*
X141730795Y-105366868D01*
X141635353Y-105414589D01*
X141396749Y-105414589D01*
X141301307Y-105366868D01*
X141253586Y-105319147D01*
X142446610Y-104412449D02*
X142542051Y-104412449D01*
X142637493Y-104460170D01*
X142685214Y-104507891D01*
X142732935Y-104603333D01*
X142780656Y-104794217D01*
X142780656Y-105032821D01*
X142732935Y-105223705D01*
X142685214Y-105319147D01*
X142637493Y-105366868D01*
X142542051Y-105414589D01*
X142446610Y-105414589D01*
X142351168Y-105366868D01*
X142303447Y-105319147D01*
X142255726Y-105223705D01*
X142208005Y-105032821D01*
X142208005Y-104794217D01*
X142255726Y-104603333D01*
X142303447Y-104507891D01*
X142351168Y-104460170D01*
X142446610Y-104412449D01*
X143687354Y-104412449D02*
X143210145Y-104412449D01*
X143162424Y-104889659D01*
X143210145Y-104841938D01*
X143305587Y-104794217D01*
X143544191Y-104794217D01*
X143639633Y-104841938D01*
X143687354Y-104889659D01*
X143735075Y-104985100D01*
X143735075Y-105223705D01*
X143687354Y-105319147D01*
X143639633Y-105366868D01*
X143544191Y-105414589D01*
X143305587Y-105414589D01*
X143210145Y-105366868D01*
X143162424Y-105319147D01*
X74696770Y-54441428D02*
X74696770Y-55252360D01*
X74744471Y-55347764D01*
X74792173Y-55395466D01*
X74887577Y-55443168D01*
X75078385Y-55443168D01*
X75173789Y-55395466D01*
X75221490Y-55347764D01*
X75269192Y-55252360D01*
X75269192Y-54441428D01*
X75650808Y-54441428D02*
X76318634Y-54441428D01*
X75889317Y-55443168D01*
D16*
X134338095Y-109152381D02*
X134338095Y-109961905D01*
X134385714Y-110057143D01*
X134433333Y-110104762D01*
X134528571Y-110152381D01*
X134719048Y-110152381D01*
X134814286Y-110104762D01*
X134861905Y-110057143D01*
X134909524Y-109961905D01*
X134909524Y-109152381D01*
X135528571Y-109580952D02*
X135433333Y-109533333D01*
X135385714Y-109485714D01*
X135338095Y-109390476D01*
X135338095Y-109342857D01*
X135385714Y-109247619D01*
X135433333Y-109200000D01*
X135528571Y-109152381D01*
X135719048Y-109152381D01*
X135814286Y-109200000D01*
X135861905Y-109247619D01*
X135909524Y-109342857D01*
X135909524Y-109390476D01*
X135861905Y-109485714D01*
X135814286Y-109533333D01*
X135719048Y-109580952D01*
X135528571Y-109580952D01*
X135433333Y-109628571D01*
X135385714Y-109676190D01*
X135338095Y-109771429D01*
X135338095Y-109961905D01*
X135385714Y-110057143D01*
X135433333Y-110104762D01*
X135528571Y-110152381D01*
X135719048Y-110152381D01*
X135814286Y-110104762D01*
X135861905Y-110057143D01*
X135909524Y-109961905D01*
X135909524Y-109771429D01*
X135861905Y-109676190D01*
X135814286Y-109628571D01*
X135719048Y-109580952D01*
D20*
X83558949Y-82716324D02*
X83558949Y-82945241D01*
X83398707Y-82464514D02*
X83558949Y-82716324D01*
X83719191Y-82464514D01*
X84131243Y-82945241D02*
X83856542Y-82945241D01*
X83993893Y-82945241D02*
X83993893Y-82464514D01*
X83948109Y-82533190D01*
X83902326Y-82578973D01*
X83856542Y-82601865D01*
X83312669Y-86228174D02*
X83037534Y-86228174D01*
X83175102Y-86228174D02*
X83175102Y-85746689D01*
X83129246Y-85815473D01*
X83083390Y-85861328D01*
X83037534Y-85884256D01*
X83725370Y-85746689D02*
X83633659Y-85746689D01*
X83587803Y-85769617D01*
X83564875Y-85792545D01*
X83519019Y-85861328D01*
X83496091Y-85953040D01*
X83496091Y-86136463D01*
X83519019Y-86182318D01*
X83541947Y-86205246D01*
X83587803Y-86228174D01*
X83679514Y-86228174D01*
X83725370Y-86205246D01*
X83748298Y-86182318D01*
X83771226Y-86136463D01*
X83771226Y-86021823D01*
X83748298Y-85975968D01*
X83725370Y-85953040D01*
X83679514Y-85930112D01*
X83587803Y-85930112D01*
X83541947Y-85953040D01*
X83519019Y-85975968D01*
X83496091Y-86021823D01*
X83977576Y-86228174D02*
X83977576Y-85746689D01*
X84138071Y-86090607D01*
X84298566Y-85746689D01*
X84298566Y-86228174D01*
X84527845Y-86228174D02*
X84527845Y-85746689D01*
X84734196Y-86228174D02*
X84734196Y-85975968D01*
X84711268Y-85930112D01*
X84665412Y-85907184D01*
X84596629Y-85907184D01*
X84550773Y-85930112D01*
X84527845Y-85953040D01*
X84917619Y-85907184D02*
X85169825Y-85907184D01*
X84917619Y-86228174D01*
X85169825Y-86228174D01*
D16*
X56966190Y-53086191D02*
X57442381Y-53086191D01*
X56442381Y-53419524D02*
X56966190Y-53086191D01*
X56442381Y-52752857D01*
X56537619Y-52467143D02*
X56490000Y-52419524D01*
X56442381Y-52324286D01*
X56442381Y-52086190D01*
X56490000Y-51990952D01*
X56537619Y-51943333D01*
X56632857Y-51895714D01*
X56728095Y-51895714D01*
X56870952Y-51943333D01*
X57442381Y-52514762D01*
X57442381Y-51895714D01*
X127143334Y-89037143D02*
X127095715Y-89084762D01*
X126952858Y-89132381D01*
X126857620Y-89132381D01*
X126714762Y-89084762D01*
X126619524Y-88989524D01*
X126571905Y-88894286D01*
X126524286Y-88703810D01*
X126524286Y-88560952D01*
X126571905Y-88370476D01*
X126619524Y-88275238D01*
X126714762Y-88180000D01*
X126857620Y-88132381D01*
X126952858Y-88132381D01*
X127095715Y-88180000D01*
X127143334Y-88227619D01*
X127476667Y-88132381D02*
X128095715Y-88132381D01*
X127762381Y-88513333D01*
X127905239Y-88513333D01*
X128000477Y-88560952D01*
X128048096Y-88608571D01*
X128095715Y-88703810D01*
X128095715Y-88941905D01*
X128048096Y-89037143D01*
X128000477Y-89084762D01*
X127905239Y-89132381D01*
X127619524Y-89132381D01*
X127524286Y-89084762D01*
X127476667Y-89037143D01*
X155847143Y-79976666D02*
X155894762Y-80024285D01*
X155942381Y-80167142D01*
X155942381Y-80262380D01*
X155894762Y-80405238D01*
X155799524Y-80500476D01*
X155704286Y-80548095D01*
X155513810Y-80595714D01*
X155370952Y-80595714D01*
X155180476Y-80548095D01*
X155085238Y-80500476D01*
X154990000Y-80405238D01*
X154942381Y-80262380D01*
X154942381Y-80167142D01*
X154990000Y-80024285D01*
X155037619Y-79976666D01*
X155942381Y-79500476D02*
X155942381Y-79310000D01*
X155894762Y-79214761D01*
X155847143Y-79167142D01*
X155704286Y-79071904D01*
X155513810Y-79024285D01*
X155132857Y-79024285D01*
X155037619Y-79071904D01*
X154990000Y-79119523D01*
X154942381Y-79214761D01*
X154942381Y-79405238D01*
X154990000Y-79500476D01*
X155037619Y-79548095D01*
X155132857Y-79595714D01*
X155370952Y-79595714D01*
X155466190Y-79548095D01*
X155513810Y-79500476D01*
X155561429Y-79405238D01*
X155561429Y-79214761D01*
X155513810Y-79119523D01*
X155466190Y-79071904D01*
X155370952Y-79024285D01*
X159007143Y-80082857D02*
X159054762Y-80130476D01*
X159102381Y-80273333D01*
X159102381Y-80368571D01*
X159054762Y-80511429D01*
X158959524Y-80606667D01*
X158864286Y-80654286D01*
X158673810Y-80701905D01*
X158530952Y-80701905D01*
X158340476Y-80654286D01*
X158245238Y-80606667D01*
X158150000Y-80511429D01*
X158102381Y-80368571D01*
X158102381Y-80273333D01*
X158150000Y-80130476D01*
X158197619Y-80082857D01*
X159102381Y-79130476D02*
X159102381Y-79701905D01*
X159102381Y-79416191D02*
X158102381Y-79416191D01*
X158245238Y-79511429D01*
X158340476Y-79606667D01*
X158388095Y-79701905D01*
X158102381Y-78797143D02*
X158102381Y-78178095D01*
X158483333Y-78511429D01*
X158483333Y-78368571D01*
X158530952Y-78273333D01*
X158578571Y-78225714D01*
X158673810Y-78178095D01*
X158911905Y-78178095D01*
X159007143Y-78225714D01*
X159054762Y-78273333D01*
X159102381Y-78368571D01*
X159102381Y-78654286D01*
X159054762Y-78749524D01*
X159007143Y-78797143D01*
X160972381Y-87361905D02*
X161781905Y-87361905D01*
X161877143Y-87314286D01*
X161924762Y-87266667D01*
X161972381Y-87171429D01*
X161972381Y-86980952D01*
X161924762Y-86885714D01*
X161877143Y-86838095D01*
X161781905Y-86790476D01*
X160972381Y-86790476D01*
X161067619Y-86361905D02*
X161020000Y-86314286D01*
X160972381Y-86219048D01*
X160972381Y-85980952D01*
X161020000Y-85885714D01*
X161067619Y-85838095D01*
X161162857Y-85790476D01*
X161258095Y-85790476D01*
X161400952Y-85838095D01*
X161972381Y-86409524D01*
X161972381Y-85790476D01*
X83953334Y-82652381D02*
X83620000Y-82176190D01*
X83381905Y-82652381D02*
X83381905Y-81652381D01*
X83762858Y-81652381D01*
X83858096Y-81700000D01*
X83905715Y-81747619D01*
X83953334Y-81842857D01*
X83953334Y-81985714D01*
X83905715Y-82080952D01*
X83858096Y-82128571D01*
X83762858Y-82176190D01*
X83381905Y-82176190D01*
X84858096Y-81652381D02*
X84381905Y-81652381D01*
X84334286Y-82128571D01*
X84381905Y-82080952D01*
X84477143Y-82033333D01*
X84715239Y-82033333D01*
X84810477Y-82080952D01*
X84858096Y-82128571D01*
X84905715Y-82223810D01*
X84905715Y-82461905D01*
X84858096Y-82557143D01*
X84810477Y-82604762D01*
X84715239Y-82652381D01*
X84477143Y-82652381D01*
X84381905Y-82604762D01*
X84334286Y-82557143D01*
M02*
